{"glyphs":{"0":{"ha":686,"x_min":36,"x_max":650,"o":"m 103 0 q 69 88 85 26 q 45 228 54 150 q 36 383 36 307 q 45 539 36 460 q 69 681 54 618 q 103 769 85 743 l 583 769 q 617 679 601 742 q 641 538 632 617 q 650 382 650 458 q 641 226 650 306 q 617 86 632 147 q 583 0 601 25 l 103 0 m 343 47 q 395 193 375 101 q 415 385 415 285 q 395 578 415 485 q 343 725 375 671 q 291 578 311 671 q 271 385 271 485 q 291 193 271 285 q 343 47 311 101 z "},"1":{"ha":349,"x_min":56,"x_max":293,"o":"m 56 0 l 56 510 q 68 657 56 594 q 107 769 81 719 l 293 769 l 293 0 l 56 0 z "},"2":{"ha":631,"x_min":14,"x_max":597,"o":"m 35 522 l 35 568 q 124 769 35 708 l 515 769 q 593 583 593 707 q 578 497 593 539 q 534 402 564 454 q 458 276 504 350 l 390 167 l 597 167 l 597 0 l 14 0 l 221 317 q 317 477 274 399 q 361 618 361 556 q 348 674 361 646 q 311 718 335 701 q 260 571 260 688 l 260 522 l 35 522 z "},"3":{"ha":594,"x_min":25,"x_max":567,"o":"m 567 288 q 543 187 567 240 q 480 84 519 133 q 389 0 440 35 l 63 0 l 61 3 q 197 112 139 56 q 286 220 254 168 q 318 311 318 272 q 281 392 318 363 l 68 392 l 210 603 l 25 603 l 25 769 l 564 769 l 354 460 l 503 460 q 553 378 539 425 q 567 288 567 331 z "},"4":{"ha":661,"x_min":36,"x_max":611,"o":"m 376 0 l 376 214 l 132 214 q 83 287 104 242 q 49 386 61 332 q 36 493 36 440 q 60 647 36 571 q 124 769 85 722 l 404 769 l 406 767 q 301 637 331 707 q 271 482 271 567 q 301 365 271 426 q 376 264 332 303 l 376 603 l 611 603 l 611 0 l 376 0 z "},"5":{"ha":631,"x_min":50,"x_max":603,"o":"m 106 0 l 104 3 q 354 313 354 182 q 282 429 354 383 l 50 429 l 50 769 l 551 769 l 551 603 l 274 603 l 274 483 l 525 483 q 581 396 560 450 q 603 288 603 342 q 558 137 603 214 q 432 0 514 60 l 106 0 z "},"6":{"ha":657,"x_min":36,"x_max":624,"o":"m 478 769 l 479 768 q 385 638 428 713 q 314 483 342 563 l 553 483 q 604 372 585 442 q 624 238 624 301 q 615 146 624 193 q 592 60 606 99 q 561 0 578 22 l 111 0 q 72 69 89 25 q 45 167 54 114 q 36 275 36 221 q 78 522 36 390 q 193 769 121 653 l 478 769 m 300 438 q 274 276 274 374 q 338 60 274 139 q 390 231 390 128 q 365 353 390 297 q 300 438 340 410 z "},"7":{"ha":585,"x_min":33,"x_max":551,"o":"m 122 0 l 121 1 q 208 141 163 51 q 285 349 253 231 q 319 603 317 468 l 33 603 l 33 769 l 547 769 q 551 694 550 738 q 551 621 551 651 q 528 372 551 492 q 470 155 504 251 q 404 0 436 58 l 122 0 z "},"8":{"ha":676,"x_min":35,"x_max":651,"o":"m 88 0 q 49 85 63 35 q 35 186 35 135 q 44 274 35 226 q 68 353 54 321 l 250 353 l 251 354 l 215 375 q 101 482 143 419 q 60 617 60 544 q 74 702 60 661 q 113 769 89 743 l 563 769 q 621 600 621 714 q 611 521 621 561 q 581 453 601 481 l 439 453 l 435 451 q 494 415 467 433 q 536 386 522 397 q 622 292 593 344 q 651 169 651 239 q 597 0 651 71 l 88 0 m 360 503 q 390 553 381 526 q 399 611 399 581 q 385 674 399 646 q 349 724 372 701 q 312 674 326 703 q 297 615 297 646 q 312 561 297 588 q 360 503 326 535 m 346 38 q 384 100 372 65 q 396 165 396 135 q 374 245 396 208 q 301 321 353 282 q 284 260 292 294 q 276 197 276 225 q 291 114 276 156 q 346 38 306 72 z "},"9":{"ha":658,"x_min":36,"x_max":622,"o":"m 158 0 l 157 1 q 230 90 192 38 q 300 195 268 142 q 344 286 332 249 l 97 286 q 53 398 71 328 q 36 532 36 468 q 45 623 36 576 q 69 709 54 669 q 103 769 85 749 l 553 769 q 603 655 583 732 q 622 494 622 578 q 601 326 622 414 q 543 156 581 239 q 456 0 506 72 l 158 0 m 358 332 q 385 493 385 396 q 321 710 385 631 q 269 539 269 642 q 294 417 269 474 q 358 332 318 360 z "},"A":{"ha":724,"x_min":36,"x_max":692,"o":"m 65 0 q 51 89 58 35 q 40 203 44 143 q 36 310 36 263 q 64 557 36 436 q 142 769 92 678 l 586 769 q 664 557 636 678 q 692 310 692 436 q 688 203 692 263 q 677 89 683 143 q 663 0 671 35 l 424 0 q 443 96 436 54 q 454 181 450 138 q 461 279 458 224 l 267 279 q 274 181 269 224 q 285 96 278 138 q 304 0 293 54 l 65 0 m 274 438 l 454 438 q 421 583 444 508 q 364 715 397 658 q 307 584 331 658 q 274 438 283 510 z "},"Á":{"ha":724,"x_min":36,"x_max":692,"o":"m 65 0 q 51 89 58 35 q 40 203 44 143 q 36 310 36 263 q 64 557 36 436 q 142 769 92 678 l 586 769 q 664 557 636 678 q 692 310 692 436 q 688 203 692 263 q 677 89 683 143 q 663 0 671 35 l 424 0 q 443 96 436 54 q 454 181 450 138 q 461 279 458 224 l 267 279 q 274 181 269 224 q 285 96 278 138 q 304 0 293 54 l 65 0 m 274 438 l 454 438 q 421 583 444 508 q 364 715 397 658 q 307 584 331 658 q 274 438 283 510 m 544 971 l 468 822 l 244 822 l 321 971 l 544 971 z "},"Ă":{"ha":724,"x_min":36,"x_max":692,"o":"m 65 0 q 51 89 58 35 q 40 203 44 143 q 36 310 36 263 q 64 557 36 436 q 142 769 92 678 l 586 769 q 664 557 636 678 q 692 310 692 436 q 688 203 692 263 q 677 89 683 143 q 663 0 671 35 l 424 0 q 443 96 436 54 q 454 181 450 138 q 461 279 458 224 l 267 279 q 274 181 269 224 q 285 96 278 138 q 304 0 293 54 l 65 0 m 274 438 l 454 438 q 421 583 444 508 q 364 715 397 658 q 307 584 331 658 q 274 438 283 510 m 364 803 q 257 817 310 803 q 158 861 204 832 l 158 1008 q 364 939 256 939 q 569 1008 472 939 l 569 861 q 471 817 524 832 q 364 803 418 803 z "},"Ắ":{"ha":724,"x_min":36,"x_max":692,"o":"m 529 1126 l 454 994 l 254 994 l 329 1126 l 529 1126 m 364 808 q 257 823 310 808 q 158 867 204 838 l 158 1004 q 364 935 256 935 q 569 1004 472 935 l 569 867 q 471 823 524 838 q 364 808 418 808 m 65 0 q 51 89 58 35 q 40 203 44 143 q 36 310 36 263 q 64 557 36 436 q 142 769 92 678 l 586 769 q 664 557 636 678 q 692 310 692 436 q 688 203 692 263 q 677 89 683 143 q 663 0 671 35 l 424 0 q 443 96 436 54 q 454 181 450 138 q 461 279 458 224 l 267 279 q 274 181 269 224 q 285 96 278 138 q 304 0 293 54 l 65 0 m 274 438 l 454 438 q 421 583 444 508 q 364 715 397 658 q 307 584 331 658 q 274 438 283 510 z "},"Ặ":{"ha":724,"x_min":36,"x_max":692,"o":"m 65 0 q 51 89 58 35 q 40 203 44 143 q 36 310 36 263 q 64 557 36 436 q 142 769 92 678 l 586 769 q 664 557 636 678 q 692 310 692 436 q 688 203 692 263 q 677 89 683 143 q 663 0 671 35 l 424 0 q 443 96 436 54 q 454 181 450 138 q 461 279 458 224 l 267 279 q 274 181 269 224 q 285 96 278 138 q 304 0 293 54 l 65 0 m 274 438 l 454 438 q 421 583 444 508 q 364 715 397 658 q 307 584 331 658 q 274 438 283 510 m 364 803 q 257 817 310 803 q 158 861 204 832 l 158 1008 q 364 939 256 939 q 569 1008 472 939 l 569 861 q 471 817 524 832 q 364 803 418 803 m 269 -219 q 247 -140 247 -193 q 269 -58 247 -85 l 463 -58 q 481 -140 481 -82 q 463 -219 481 -193 l 269 -219 z "},"Ằ":{"ha":724,"x_min":36,"x_max":692,"o":"m 65 0 q 51 89 58 35 q 40 203 44 143 q 36 310 36 263 q 64 557 36 436 q 142 769 92 678 l 586 769 q 664 557 636 678 q 692 310 692 436 q 688 203 692 263 q 677 89 683 143 q 663 0 671 35 l 424 0 q 443 96 436 54 q 454 181 450 138 q 461 279 458 224 l 267 279 q 274 181 269 224 q 285 96 278 138 q 304 0 293 54 l 65 0 m 274 438 l 454 438 q 421 583 444 508 q 364 715 397 658 q 307 584 331 658 q 274 438 283 510 m 364 808 q 257 823 310 808 q 158 867 204 838 l 158 1004 q 364 935 256 935 q 569 1004 472 935 l 569 867 q 471 823 524 838 q 364 808 418 808 m 193 1126 l 393 1126 l 468 994 l 268 994 l 193 1126 z "},"Ẳ":{"ha":724,"x_min":36,"x_max":692,"o":"m 65 0 q 51 89 58 35 q 40 203 44 143 q 36 310 36 263 q 64 557 36 436 q 142 769 92 678 l 586 769 q 664 557 636 678 q 692 310 692 436 q 688 203 692 263 q 677 89 683 143 q 663 0 671 35 l 424 0 q 443 96 436 54 q 454 181 450 138 q 461 279 458 224 l 267 279 q 274 181 269 224 q 285 96 278 138 q 304 0 293 54 l 65 0 m 274 438 l 454 438 q 421 583 444 508 q 364 715 397 658 q 307 584 331 658 q 274 438 283 510 m 364 808 q 257 823 310 808 q 158 867 204 838 l 158 1004 q 364 935 256 935 q 569 1004 472 935 l 569 867 q 471 823 524 838 q 364 808 418 808 m 271 993 q 300 1041 290 1017 q 310 1082 310 1065 q 219 1138 310 1133 l 219 1151 q 302 1160 269 1157 q 358 1163 335 1163 q 398 1162 378 1163 q 438 1154 418 1161 q 486 1089 486 1139 q 433 993 486 1039 l 271 993 z "},"Ẵ":{"ha":724,"x_min":36,"x_max":692,"o":"m 189 993 l 189 1121 q 229 1142 207 1133 q 278 1150 251 1150 q 381 1126 324 1150 q 453 1110 422 1110 q 536 1150 496 1110 l 536 1021 q 456 988 507 988 q 403 995 431 988 q 344 1014 375 1003 q 275 1029 303 1029 q 226 1019 249 1029 q 189 993 204 1008 m 364 808 q 257 823 310 808 q 158 867 204 838 l 158 1004 q 364 935 256 935 q 569 1004 472 935 l 569 867 q 471 823 524 838 q 364 808 418 808 m 65 0 q 51 89 58 35 q 40 203 44 143 q 36 310 36 263 q 64 557 36 436 q 142 769 92 678 l 586 769 q 664 557 636 678 q 692 310 692 436 q 688 203 692 263 q 677 89 683 143 q 663 0 671 35 l 424 0 q 443 96 436 54 q 454 181 450 138 q 461 279 458 224 l 267 279 q 274 181 269 224 q 285 96 278 138 q 304 0 293 54 l 65 0 m 274 438 l 454 438 q 421 583 444 508 q 364 715 397 658 q 307 584 331 658 q 274 438 283 510 z "},"Ǎ":{"ha":724,"x_min":36,"x_max":692,"o":"m 65 0 q 51 89 58 35 q 40 203 44 143 q 36 310 36 263 q 64 557 36 436 q 142 769 92 678 l 586 769 q 664 557 636 678 q 692 310 692 436 q 688 203 692 263 q 677 89 683 143 q 663 0 671 35 l 424 0 q 443 96 436 54 q 454 181 450 138 q 461 279 458 224 l 267 279 q 274 181 269 224 q 285 96 278 138 q 304 0 293 54 l 65 0 m 274 438 l 454 438 q 421 583 444 508 q 364 715 397 658 q 307 584 331 658 q 274 438 283 510 m 122 971 l 313 971 l 364 868 l 415 971 l 604 971 l 529 822 l 197 822 l 122 971 z "},"Â":{"ha":724,"x_min":36,"x_max":692,"o":"m 65 0 q 51 89 58 35 q 40 203 44 143 q 36 310 36 263 q 64 557 36 436 q 142 769 92 678 l 586 769 q 664 557 636 678 q 692 310 692 436 q 688 203 692 263 q 677 89 683 143 q 663 0 671 35 l 424 0 q 443 96 436 54 q 454 181 450 138 q 461 279 458 224 l 267 279 q 274 181 269 224 q 285 96 278 138 q 304 0 293 54 l 65 0 m 274 438 l 454 438 q 421 583 444 508 q 364 715 397 658 q 307 584 331 658 q 274 438 283 510 m 122 822 l 197 971 l 529 971 l 604 822 l 415 822 l 364 925 l 313 822 l 122 822 z "},"Ấ":{"ha":724,"x_min":36,"x_max":692,"o":"m 65 0 q 51 89 58 35 q 40 203 44 143 q 36 310 36 263 q 64 557 36 436 q 142 769 92 678 l 586 769 q 664 557 636 678 q 692 310 692 436 q 688 203 692 263 q 677 89 683 143 q 663 0 671 35 l 424 0 q 443 96 436 54 q 454 181 450 138 q 461 279 458 224 l 267 279 q 274 181 269 224 q 285 96 278 138 q 304 0 293 54 l 65 0 m 274 438 l 454 438 q 421 583 444 508 q 364 715 397 658 q 307 584 331 658 q 274 438 283 510 m 125 822 l 200 953 l 526 953 l 601 822 l 415 822 l 364 913 l 313 822 l 125 822 m 522 1138 l 447 1006 l 247 1006 l 322 1138 l 522 1138 z "},"Ậ":{"ha":724,"x_min":36,"x_max":692,"o":"m 65 0 q 51 89 58 35 q 40 203 44 143 q 36 310 36 263 q 64 557 36 436 q 142 769 92 678 l 586 769 q 664 557 636 678 q 692 310 692 436 q 688 203 692 263 q 677 89 683 143 q 663 0 671 35 l 424 0 q 443 96 436 54 q 454 181 450 138 q 461 279 458 224 l 267 279 q 274 181 269 224 q 285 96 278 138 q 304 0 293 54 l 65 0 m 274 438 l 454 438 q 421 583 444 508 q 364 715 397 658 q 307 584 331 658 q 274 438 283 510 m 122 822 l 197 971 l 529 971 l 604 822 l 415 822 l 364 925 l 313 822 l 122 822 m 269 -219 q 247 -140 247 -193 q 269 -58 247 -85 l 463 -58 q 481 -140 481 -82 q 463 -219 481 -193 l 269 -219 z "},"Ầ":{"ha":724,"x_min":36,"x_max":692,"o":"m 65 0 q 51 89 58 35 q 40 203 44 143 q 36 310 36 263 q 64 557 36 436 q 142 769 92 678 l 586 769 q 664 557 636 678 q 692 310 692 436 q 688 203 692 263 q 677 89 683 143 q 663 0 671 35 l 424 0 q 443 96 436 54 q 454 181 450 138 q 461 279 458 224 l 267 279 q 274 181 269 224 q 285 96 278 138 q 304 0 293 54 l 65 0 m 274 438 l 454 438 q 421 583 444 508 q 364 715 397 658 q 307 584 331 658 q 274 438 283 510 m 603 822 l 415 822 l 364 913 l 313 822 l 126 822 l 201 953 l 528 953 l 603 822 m 207 1138 l 407 1138 l 482 1006 l 282 1006 l 207 1138 z "},"Ẩ":{"ha":724,"x_min":36,"x_max":692,"o":"m 65 0 q 51 89 58 35 q 40 203 44 143 q 36 310 36 263 q 64 557 36 436 q 142 769 92 678 l 586 769 q 664 557 636 678 q 692 310 692 436 q 688 203 692 263 q 677 89 683 143 q 663 0 671 35 l 424 0 q 443 96 436 54 q 454 181 450 138 q 461 279 458 224 l 267 279 q 274 181 269 224 q 285 96 278 138 q 304 0 293 54 l 65 0 m 274 438 l 454 438 q 421 583 444 508 q 364 715 397 658 q 307 584 331 658 q 274 438 283 510 m 603 822 l 415 822 l 364 913 l 313 822 l 126 822 l 201 953 l 528 953 l 603 822 m 333 1004 q 363 1052 353 1028 q 372 1093 372 1076 q 282 1149 372 1144 l 282 1163 q 365 1171 332 1168 q 421 1174 397 1174 q 460 1173 440 1174 q 500 1165 481 1172 q 549 1100 549 1150 q 496 1004 549 1050 l 333 1004 z "},"Ẫ":{"ha":724,"x_min":36,"x_max":692,"o":"m 65 0 q 51 89 58 35 q 40 203 44 143 q 36 310 36 263 q 64 557 36 436 q 142 769 92 678 l 586 769 q 664 557 636 678 q 692 310 692 436 q 688 203 692 263 q 677 89 683 143 q 663 0 671 35 l 424 0 q 443 96 436 54 q 454 181 450 138 q 461 279 458 224 l 267 279 q 274 181 269 224 q 285 96 278 138 q 304 0 293 54 l 65 0 m 274 438 l 454 438 q 421 583 444 508 q 364 715 397 658 q 307 584 331 658 q 274 438 283 510 m 125 822 l 200 953 l 526 953 l 601 822 l 415 822 l 364 913 l 313 822 l 125 822 m 194 1004 l 194 1132 q 235 1153 213 1144 q 283 1161 257 1161 q 386 1138 329 1161 q 458 1121 428 1121 q 542 1161 501 1121 l 542 1032 q 461 999 513 999 q 408 1006 436 999 q 350 1025 381 1014 q 281 1040 308 1040 q 232 1030 254 1040 q 194 1004 210 1019 z "},"Ȁ":{"ha":724,"x_min":36,"x_max":692,"o":"m 65 0 q 51 89 58 35 q 40 203 44 143 q 36 310 36 263 q 64 557 36 436 q 142 769 92 678 l 586 769 q 664 557 636 678 q 692 310 692 436 q 688 203 692 263 q 677 89 683 143 q 663 0 671 35 l 424 0 q 443 96 436 54 q 454 181 450 138 q 461 279 458 224 l 267 279 q 274 181 269 224 q 285 96 278 138 q 304 0 293 54 l 65 0 m 274 438 l 454 438 q 421 583 444 508 q 364 715 397 658 q 307 584 331 658 q 274 438 283 510 m 386 822 l 296 971 l 482 971 l 572 822 l 386 822 m 140 822 l 50 971 l 236 971 l 326 822 l 140 822 z "},"Ä":{"ha":724,"x_min":36,"x_max":692,"o":"m 65 0 q 51 89 58 35 q 40 203 44 143 q 36 310 36 263 q 64 557 36 436 q 142 769 92 678 l 586 769 q 664 557 636 678 q 692 310 692 436 q 688 203 692 263 q 677 89 683 143 q 663 0 671 35 l 424 0 q 443 96 436 54 q 454 181 450 138 q 461 279 458 224 l 267 279 q 274 181 269 224 q 285 96 278 138 q 304 0 293 54 l 65 0 m 274 438 l 454 438 q 421 583 444 508 q 364 715 397 658 q 307 584 331 658 q 274 438 283 510 m 407 822 q 392 853 399 833 q 386 899 386 874 q 392 943 386 924 q 407 975 399 963 l 571 975 q 592 897 592 953 q 571 822 592 846 l 407 822 m 156 822 q 136 899 136 846 q 156 975 136 949 l 319 975 q 335 944 331 964 q 339 897 339 924 q 335 853 339 874 q 319 822 331 833 l 156 822 z "},"Ǟ":{"ha":724,"x_min":36,"x_max":692,"o":"m 65 0 q 51 89 58 35 q 40 203 44 143 q 36 310 36 263 q 64 557 36 436 q 142 769 92 678 l 586 769 q 664 557 636 678 q 692 310 692 436 q 688 203 692 263 q 677 89 683 143 q 663 0 671 35 l 424 0 q 443 96 436 54 q 454 181 450 138 q 461 279 458 224 l 267 279 q 274 181 269 224 q 285 96 278 138 q 304 0 293 54 l 65 0 m 274 438 l 454 438 q 421 583 444 508 q 364 715 397 658 q 307 584 331 658 q 274 438 283 510 m 406 824 q 391 854 397 835 q 385 897 385 874 q 391 940 385 921 q 406 971 397 958 l 563 971 q 583 896 583 949 q 563 824 583 847 l 406 824 m 163 824 q 144 897 144 849 q 163 971 144 944 l 321 971 q 340 896 340 950 q 336 854 340 874 q 321 824 332 835 l 163 824 m 160 1018 l 160 1136 l 567 1136 l 567 1018 l 160 1018 z "},"Ȧ":{"ha":724,"x_min":36,"x_max":692,"o":"m 65 0 q 51 89 58 35 q 40 203 44 143 q 36 310 36 263 q 64 557 36 436 q 142 769 92 678 l 586 769 q 664 557 636 678 q 692 310 692 436 q 688 203 692 263 q 677 89 683 143 q 663 0 671 35 l 424 0 q 443 96 436 54 q 454 181 450 138 q 461 279 458 224 l 267 279 q 274 181 269 224 q 285 96 278 138 q 304 0 293 54 l 65 0 m 274 438 l 454 438 q 421 583 444 508 q 364 715 397 658 q 307 584 331 658 q 274 438 283 510 m 271 822 q 249 901 249 849 q 271 983 249 957 l 460 983 q 478 901 478 960 q 460 822 478 849 l 271 822 z "},"Ạ":{"ha":724,"x_min":36,"x_max":692,"o":"m 65 0 q 51 89 58 35 q 40 203 44 143 q 36 310 36 263 q 64 557 36 436 q 142 769 92 678 l 586 769 q 664 557 636 678 q 692 310 692 436 q 688 203 692 263 q 677 89 683 143 q 663 0 671 35 l 424 0 q 443 96 436 54 q 454 181 450 138 q 461 279 458 224 l 267 279 q 274 181 269 224 q 285 96 278 138 q 304 0 293 54 l 65 0 m 274 438 l 454 438 q 421 583 444 508 q 364 715 397 658 q 307 584 331 658 q 274 438 283 510 m 269 -219 q 247 -140 247 -193 q 269 -58 247 -85 l 463 -58 q 481 -140 481 -82 q 463 -219 481 -193 l 269 -219 z "},"Ǡ":{"ha":724,"x_min":36,"x_max":692,"o":"m 65 0 q 51 89 58 35 q 40 203 44 143 q 36 310 36 263 q 64 557 36 436 q 142 769 92 678 l 586 769 q 664 557 636 678 q 692 310 692 436 q 688 203 692 263 q 677 89 683 143 q 663 0 671 35 l 424 0 q 443 96 436 54 q 454 181 450 138 q 461 279 458 224 l 267 279 q 274 181 269 224 q 285 96 278 138 q 304 0 293 54 l 65 0 m 274 438 l 454 438 q 421 583 444 508 q 364 715 397 658 q 307 584 331 658 q 274 438 283 510 m 285 817 q 270 847 276 828 q 264 890 264 867 q 270 933 264 914 q 285 964 276 951 l 442 964 q 463 889 463 942 q 442 817 463 840 l 285 817 m 160 1018 l 160 1136 l 567 1136 l 567 1018 l 160 1018 z "},"À":{"ha":724,"x_min":36,"x_max":692,"o":"m 65 0 q 51 89 58 35 q 40 203 44 143 q 36 310 36 263 q 64 557 36 436 q 142 769 92 678 l 586 769 q 664 557 636 678 q 692 310 692 436 q 688 203 692 263 q 677 89 683 143 q 663 0 671 35 l 424 0 q 443 96 436 54 q 454 181 450 138 q 461 279 458 224 l 267 279 q 274 181 269 224 q 285 96 278 138 q 304 0 293 54 l 65 0 m 274 438 l 454 438 q 421 583 444 508 q 364 715 397 658 q 307 584 331 658 q 274 438 283 510 m 174 971 l 397 971 l 474 822 l 250 822 l 174 971 z "},"Ả":{"ha":724,"x_min":36,"x_max":692,"o":"m 65 0 q 51 89 58 35 q 40 203 44 143 q 36 310 36 263 q 64 557 36 436 q 142 769 92 678 l 586 769 q 664 557 636 678 q 692 310 692 436 q 688 203 692 263 q 677 89 683 143 q 663 0 671 35 l 424 0 q 443 96 436 54 q 454 181 450 138 q 461 279 458 224 l 267 279 q 274 181 269 224 q 285 96 278 138 q 304 0 293 54 l 65 0 m 274 438 l 454 438 q 421 583 444 508 q 364 715 397 658 q 307 584 331 658 q 274 438 283 510 m 260 821 q 300 914 300 875 q 206 971 300 967 l 206 986 q 293 994 258 992 q 353 997 328 997 q 394 997 372 997 q 435 989 415 996 q 486 921 486 974 q 431 821 486 869 l 260 821 z "},"Ȃ":{"ha":724,"x_min":36,"x_max":692,"o":"m 65 0 q 51 89 58 35 q 40 203 44 143 q 36 310 36 263 q 64 557 36 436 q 142 769 92 678 l 586 769 q 664 557 636 678 q 692 310 692 436 q 688 203 692 263 q 677 89 683 143 q 663 0 671 35 l 424 0 q 443 96 436 54 q 454 181 450 138 q 461 279 458 224 l 267 279 q 274 181 269 224 q 285 96 278 138 q 304 0 293 54 l 65 0 m 274 438 l 454 438 q 421 583 444 508 q 364 715 397 658 q 307 584 331 658 q 274 438 283 510 m 156 958 q 256 1010 203 993 q 364 1026 308 1026 q 473 1010 419 1026 q 572 958 526 993 l 572 807 q 364 888 472 888 q 156 807 256 888 l 156 958 z "},"Ɑ":{"ha":717,"x_min":19,"x_max":728,"o":"m 142 0 q 51 158 82 61 q 19 374 19 256 q 35 536 19 458 q 78 675 50 614 q 142 769 106 736 l 639 769 l 639 271 q 660 128 639 193 q 728 0 682 63 l 142 0 m 257 382 q 276 228 257 300 q 328 106 296 156 q 401 44 361 57 l 401 719 q 295 580 333 668 q 257 382 257 492 z "},"Ā":{"ha":724,"x_min":36,"x_max":692,"o":"m 65 0 q 51 89 58 35 q 40 203 44 143 q 36 310 36 263 q 64 557 36 436 q 142 769 92 678 l 586 769 q 664 557 636 678 q 692 310 692 436 q 688 203 692 263 q 677 89 683 143 q 663 0 671 35 l 424 0 q 443 96 436 54 q 454 181 450 138 q 461 279 458 224 l 267 279 q 274 181 269 224 q 285 96 278 138 q 304 0 293 54 l 65 0 m 274 438 l 454 438 q 421 583 444 508 q 364 715 397 658 q 307 584 331 658 q 274 438 283 510 m 160 821 l 160 949 l 567 949 l 567 821 l 160 821 z "},"Ą":{"ha":724,"x_min":36,"x_max":692,"o":"m 65 0 q 51 89 58 35 q 40 203 44 143 q 36 310 36 263 q 64 557 36 436 q 142 769 92 678 l 586 769 q 664 557 636 678 q 692 310 692 436 q 688 203 692 263 q 677 89 683 143 q 663 0 671 35 l 424 0 q 443 96 436 54 q 454 181 450 138 q 461 279 458 224 l 267 279 q 274 181 269 224 q 285 96 278 138 q 304 0 293 54 l 65 0 m 274 438 l 454 438 q 421 583 444 508 q 364 715 397 658 q 307 584 331 658 q 274 438 283 510 m 518 -110 l 518 -261 q 471 -265 493 -265 q 357 -226 403 -265 q 311 -122 311 -186 q 342 -44 311 -78 q 424 0 374 -10 l 525 0 q 464 -31 486 -10 q 442 -78 442 -51 q 454 -108 442 -97 q 485 -118 467 -118 q 518 -110 501 -118 z "},"Å":{"ha":724,"x_min":36,"x_max":692,"o":"m 65 0 q 51 89 58 35 q 40 203 44 143 q 36 310 36 263 q 64 557 36 436 q 142 769 92 678 l 586 769 q 664 557 636 678 q 692 310 692 436 q 688 203 692 263 q 677 89 683 143 q 663 0 671 35 l 424 0 q 443 96 436 54 q 454 181 450 138 q 461 279 458 224 l 267 279 q 274 181 269 224 q 285 96 278 138 q 304 0 293 54 l 65 0 m 274 438 l 454 438 q 421 583 444 508 q 364 715 397 658 q 307 584 331 658 q 274 438 283 510 m 175 990 l 553 990 q 578 952 569 976 q 586 903 586 928 q 578 856 586 878 q 553 821 569 833 l 175 821 q 150 856 158 833 q 142 903 142 878 q 150 952 142 928 q 175 990 158 976 m 333 908 q 364 839 333 871 q 394 908 394 871 q 364 974 394 946 q 333 908 333 946 z "},"Ḁ":{"ha":724,"x_min":36,"x_max":692,"o":"m 65 0 q 51 89 58 35 q 40 203 44 143 q 36 310 36 263 q 64 557 36 436 q 142 769 92 678 l 586 769 q 664 557 636 678 q 692 310 692 436 q 688 203 692 263 q 677 89 683 143 q 663 0 671 35 l 424 0 q 443 96 436 54 q 454 181 450 138 q 461 279 458 224 l 267 279 q 274 181 269 224 q 285 96 278 138 q 304 0 293 54 l 65 0 m 274 438 l 454 438 q 421 583 444 508 q 364 715 397 658 q 307 584 331 658 q 274 438 283 510 m 175 -58 l 553 -58 q 578 -94 569 -71 q 586 -142 586 -118 q 578 -187 586 -165 q 553 -219 569 -208 l 175 -219 q 150 -187 158 -208 q 142 -142 142 -165 q 150 -94 142 -118 q 175 -58 158 -71 m 333 -136 q 364 -201 333 -172 q 394 -136 394 -172 q 364 -74 394 -101 q 333 -136 333 -101 z "},"Ⱥ":{"ha":724,"x_min":36,"x_max":692,"o":"m 65 0 q 51 89 58 35 q 40 203 44 143 q 36 310 36 263 q 64 557 36 436 q 142 769 92 678 l 586 769 q 664 557 636 678 q 692 310 692 436 q 688 203 692 263 q 677 89 683 143 q 663 0 671 35 l 424 0 q 443 96 436 54 q 454 181 450 138 q 461 279 458 224 l 267 279 q 274 181 269 224 q 285 96 278 138 q 304 0 293 54 l 65 0 m 274 438 l 454 438 q 421 583 444 508 q 364 715 397 658 q 307 584 331 658 q 274 438 283 510 m 136 -99 l 539 865 l 604 865 l 201 -99 l 136 -99 z "},"Ã":{"ha":724,"x_min":36,"x_max":692,"o":"m 65 0 q 51 89 58 35 q 40 203 44 143 q 36 310 36 263 q 64 557 36 436 q 142 769 92 678 l 586 769 q 664 557 636 678 q 692 310 692 436 q 688 203 692 263 q 677 89 683 143 q 663 0 671 35 l 424 0 q 443 96 436 54 q 454 181 450 138 q 461 279 458 224 l 267 279 q 274 181 269 224 q 285 96 278 138 q 304 0 293 54 l 65 0 m 274 438 l 454 438 q 421 583 444 508 q 364 715 397 658 q 307 584 331 658 q 274 438 283 510 m 178 811 l 178 950 q 274 988 218 988 q 325 982 297 988 q 383 964 353 976 q 460 947 428 947 q 550 988 506 947 l 550 847 q 464 814 519 814 q 407 822 438 814 q 344 840 376 829 q 271 856 301 856 q 178 811 214 856 z "},"Æ":{"ha":893,"x_min":36,"x_max":885,"o":"m 65 0 q 51 89 58 35 q 40 203 44 143 q 36 310 36 263 q 64 557 36 436 q 142 769 92 678 l 882 769 l 838 604 l 607 604 l 607 467 l 815 467 l 771 303 l 607 303 l 607 165 l 885 165 l 850 -1 l 385 -1 l 385 279 l 267 279 q 274 181 269 224 q 285 96 278 138 q 304 0 293 54 l 65 0 m 274 438 l 385 438 l 385 725 q 274 438 300 635 z "},"Ǣ":{"ha":893,"x_min":36,"x_max":885,"o":"m 65 0 q 51 89 58 35 q 40 203 44 143 q 36 310 36 263 q 64 557 36 436 q 142 769 92 678 l 882 769 l 838 604 l 607 604 l 607 467 l 815 467 l 771 303 l 607 303 l 607 165 l 885 165 l 850 -1 l 385 -1 l 385 279 l 267 279 q 274 181 269 224 q 285 96 278 138 q 304 0 293 54 l 65 0 m 274 438 l 385 438 l 385 725 q 274 438 300 635 m 269 821 l 269 949 l 676 949 l 676 821 l 269 821 z "},"B":{"ha":704,"x_min":61,"x_max":685,"o":"m 61 0 l 61 769 l 568 769 q 628 696 607 742 q 650 597 650 650 q 627 496 650 543 q 565 425 604 449 q 685 208 685 343 q 660 90 685 144 q 593 0 636 35 l 61 0 m 300 431 q 389 487 356 446 q 422 579 422 528 q 388 672 422 633 q 300 717 353 711 l 300 431 m 300 47 q 401 106 363 63 q 440 204 440 150 q 300 340 440 324 l 300 47 z "},"Ḃ":{"ha":704,"x_min":61,"x_max":685,"o":"m 61 0 l 61 769 l 568 769 q 628 696 607 742 q 650 597 650 650 q 627 496 650 543 q 565 425 604 449 q 685 208 685 343 q 660 90 685 144 q 593 0 636 35 l 61 0 m 300 431 q 389 487 356 446 q 422 579 422 528 q 388 672 422 633 q 300 717 353 711 l 300 431 m 300 47 q 401 106 363 63 q 440 204 440 150 q 300 340 440 324 l 300 47 m 246 821 q 224 900 224 847 q 246 982 224 956 l 435 982 q 453 900 453 958 q 435 821 453 847 l 246 821 z "},"Ḅ":{"ha":704,"x_min":61,"x_max":685,"o":"m 61 0 l 61 769 l 568 769 q 628 696 607 742 q 650 597 650 650 q 627 496 650 543 q 565 425 604 449 q 685 208 685 343 q 660 90 685 144 q 593 0 636 35 l 61 0 m 300 431 q 389 487 356 446 q 422 579 422 528 q 388 672 422 633 q 300 717 353 711 l 300 431 m 300 47 q 401 106 363 63 q 440 204 440 150 q 300 340 440 324 l 300 47 m 260 -219 q 238 -140 238 -193 q 260 -58 238 -85 l 453 -58 q 471 -140 471 -82 q 453 -219 471 -193 l 260 -219 z "},"Ꞵ":{"ha":704,"x_min":61,"x_max":685,"o":"m 61 -264 l 61 769 l 568 769 q 628 696 607 742 q 650 597 650 650 q 627 496 650 543 q 565 425 604 449 q 685 208 685 343 q 660 90 685 144 q 593 0 636 35 l 300 0 l 300 -264 l 61 -264 m 300 431 q 389 487 356 446 q 422 579 422 528 q 388 672 422 633 q 300 717 353 711 l 300 431 m 300 47 q 401 106 363 63 q 440 204 440 150 q 300 340 440 324 l 300 47 z "},"Ɓ":{"ha":704,"x_min":-179,"x_max":685,"o":"m 61 0 l 61 769 l 568 769 q 628 696 607 742 q 650 597 650 650 q 627 496 650 543 q 565 425 604 449 q 685 208 685 343 q 660 90 685 144 q 593 0 636 35 l 61 0 m 300 431 q 389 487 356 446 q 422 579 422 528 q 388 672 422 633 q 300 717 353 711 l 300 431 m 300 47 q 401 106 363 63 q 440 204 440 150 q 300 340 440 324 l 300 47 m -151 485 q -174 543 -169 517 q -179 592 -179 569 q -146 699 -179 660 q -58 753 -112 738 q 61 769 -3 769 l 61 714 q 0 681 22 714 q -22 594 -22 647 q -14 542 -22 571 q 13 485 -6 514 l -151 485 z "},"Ḇ":{"ha":704,"x_min":61,"x_max":685,"o":"m 61 0 l 61 769 l 568 769 q 628 696 607 742 q 650 597 650 650 q 627 496 650 543 q 565 425 604 449 q 685 208 685 343 q 660 90 685 144 q 593 0 636 35 l 61 0 m 300 431 q 389 487 356 446 q 422 579 422 528 q 388 672 422 633 q 300 717 353 711 l 300 431 m 300 47 q 401 106 363 63 q 440 204 440 150 q 300 340 440 324 l 300 47 m 150 -187 l 150 -60 l 557 -60 l 557 -187 l 150 -187 z "},"Ƀ":{"ha":704,"x_min":-3,"x_max":685,"o":"m 61 0 l 61 769 l 568 769 q 628 696 607 742 q 650 597 650 650 q 627 496 650 543 q 565 425 604 449 q 685 208 685 343 q 660 90 685 144 q 593 0 636 35 l 61 0 m 300 431 q 389 487 356 446 q 422 579 422 528 q 388 672 422 633 q 300 717 353 711 l 300 431 m 300 47 q 401 106 363 63 q 440 204 440 150 q 300 340 440 324 l 300 47 m -3 158 l -3 240 l 369 240 l 369 158 l -3 158 z "},"C":{"ha":453,"x_min":19,"x_max":464,"o":"m 157 0 q 55 161 90 63 q 19 382 19 260 q 56 600 19 499 q 157 769 92 701 l 463 769 l 463 765 q 312 588 364 683 q 260 389 260 493 q 309 190 260 282 q 464 4 358 97 l 464 0 l 157 0 z "},"Ć":{"ha":453,"x_min":19,"x_max":490,"o":"m 157 0 q 55 161 90 63 q 19 382 19 260 q 56 600 19 499 q 157 769 92 701 l 463 769 l 463 765 q 312 588 364 683 q 260 389 260 493 q 309 190 260 282 q 464 4 358 97 l 464 0 l 157 0 m 490 969 l 414 821 l 190 821 l 267 969 l 490 969 z "},"Č":{"ha":453,"x_min":19,"x_max":550,"o":"m 157 0 q 55 161 90 63 q 19 382 19 260 q 56 600 19 499 q 157 769 92 701 l 463 769 l 463 765 q 312 588 364 683 q 260 389 260 493 q 309 190 260 282 q 464 4 358 97 l 464 0 l 157 0 m 68 969 l 258 969 l 310 867 l 361 969 l 550 969 l 475 821 l 143 821 l 68 969 z "},"Ç":{"ha":453,"x_min":19,"x_max":464,"o":"m 157 0 q 55 161 90 63 q 19 382 19 260 q 56 600 19 499 q 157 769 92 701 l 463 769 l 463 765 q 312 588 364 683 q 260 389 260 493 q 309 190 260 282 q 464 4 358 97 l 464 0 l 157 0 m 181 -226 q 238 -196 210 -219 q 267 -139 267 -172 q 247 -94 267 -114 q 204 -65 228 -75 l 235 0 l 381 0 l 363 -44 q 421 -78 396 -54 q 446 -143 446 -103 q 434 -188 446 -164 q 394 -232 422 -212 l 181 -232 l 181 -226 z "},"Ḉ":{"ha":453,"x_min":19,"x_max":490,"o":"m 157 0 q 55 161 90 63 q 19 382 19 260 q 56 600 19 499 q 157 769 92 701 l 463 769 l 463 765 q 312 588 364 683 q 260 389 260 493 q 309 190 260 282 q 464 4 358 97 l 464 0 l 157 0 m 490 969 l 414 821 l 190 821 l 267 969 l 490 969 m 181 -226 q 238 -196 210 -219 q 267 -139 267 -172 q 247 -94 267 -114 q 204 -65 228 -75 l 235 0 l 381 0 l 363 -44 q 421 -78 396 -54 q 446 -143 446 -103 q 434 -188 446 -164 q 394 -232 422 -212 l 181 -232 l 181 -226 z "},"Ĉ":{"ha":453,"x_min":19,"x_max":550,"o":"m 157 0 q 55 161 90 63 q 19 382 19 260 q 56 600 19 499 q 157 769 92 701 l 463 769 l 463 765 q 312 588 364 683 q 260 389 260 493 q 309 190 260 282 q 464 4 358 97 l 464 0 l 157 0 m 68 821 l 143 969 l 475 969 l 550 821 l 361 821 l 310 924 l 258 821 l 68 821 z "},"Ċ":{"ha":453,"x_min":19,"x_max":464,"o":"m 157 0 q 55 161 90 63 q 19 382 19 260 q 56 600 19 499 q 157 769 92 701 l 463 769 l 463 765 q 312 588 364 683 q 260 389 260 493 q 309 190 260 282 q 464 4 358 97 l 464 0 l 157 0 m 217 821 q 194 900 194 847 q 217 982 194 956 l 406 982 q 424 900 424 958 q 406 821 424 847 l 217 821 z "},"Ꭓ":{"ha":701,"x_min":-28,"x_max":729,"o":"m 11 0 l 92 371 l 231 371 l 106 581 q 28 702 63 654 q -28 760 -7 750 l -28 769 l 219 769 q 277 715 247 757 q 343 613 307 674 l 376 558 l 435 767 l 663 767 l 565 428 l 456 428 l 603 188 q 649 113 624 154 q 697 42 674 72 q 729 7 719 11 l 729 0 l 492 0 q 431 46 461 7 q 360 156 401 85 l 299 258 l 243 0 l 11 0 z "},"Ƈ":{"ha":631,"x_min":19,"x_max":664,"o":"m 157 0 q 55 161 90 63 q 19 382 19 260 q 56 600 19 499 q 157 769 92 701 l 401 769 q 426 941 390 881 q 558 1001 461 1001 q 601 999 571 1001 q 664 983 632 996 l 664 826 q 556 851 606 851 q 463 769 463 851 l 463 765 q 312 588 364 683 q 260 389 260 493 q 309 190 260 282 q 464 4 358 97 l 464 0 l 157 0 z "},"Ȼ":{"ha":453,"x_min":0,"x_max":568,"o":"m 0 -68 l 88 89 q 19 382 19 208 q 56 600 19 499 q 157 769 92 701 l 463 769 l 463 765 q 313 592 365 685 q 260 397 261 499 l 506 836 l 568 836 l 268 299 q 464 4 300 147 l 464 0 l 157 0 q 122 38 139 17 l 64 -68 l 0 -68 z "},"D":{"ha":724,"x_min":61,"x_max":696,"o":"m 61 0 l 61 769 l 576 769 q 696 404 696 592 q 681 254 696 331 q 639 111 665 178 q 576 0 613 44 l 61 0 m 301 44 q 419 192 379 97 q 458 392 458 288 q 439 531 458 464 q 385 647 419 597 q 301 717 350 697 l 301 44 z "},"Ð":{"ha":724,"x_min":-4,"x_max":696,"o":"m 61 0 l 61 769 l 576 769 q 696 404 696 592 q 681 254 696 331 q 639 111 665 178 q 576 0 613 44 l 61 0 m 301 44 q 419 192 379 97 q 458 392 458 288 q 439 531 458 464 q 385 647 419 597 q 301 717 350 697 l 301 44 m -4 344 l -4 426 l 368 426 l 368 344 l -4 344 z "},"Ď":{"ha":724,"x_min":61,"x_max":696,"o":"m 61 0 l 61 769 l 576 769 q 696 404 696 592 q 681 254 696 331 q 639 111 665 178 q 576 0 613 44 l 61 0 m 301 44 q 419 192 379 97 q 458 392 458 288 q 439 531 458 464 q 385 647 419 597 q 301 717 350 697 l 301 44 m 85 971 l 275 971 l 326 868 l 378 971 l 567 971 l 492 822 l 160 822 l 85 971 z "},"Ḑ":{"ha":724,"x_min":61,"x_max":696,"o":"m 61 0 l 61 769 l 576 769 q 696 404 696 592 q 681 254 696 331 q 639 111 665 178 q 576 0 613 44 l 61 0 m 301 44 q 419 192 379 97 q 458 392 458 288 q 439 531 458 464 q 385 647 419 597 q 301 717 350 697 l 301 44 m 292 -293 l 292 -200 l 247 -200 l 247 -58 l 419 -58 q 437 -85 431 -68 q 443 -131 443 -101 q 428 -215 443 -174 q 388 -293 414 -257 l 292 -293 z "},"Ḓ":{"ha":724,"x_min":61,"x_max":696,"o":"m 61 0 l 61 769 l 576 769 q 696 404 696 592 q 681 254 696 331 q 639 111 665 178 q 576 0 613 44 l 61 0 m 301 44 q 419 192 379 97 q 458 392 458 288 q 439 531 458 464 q 385 647 419 597 q 301 717 350 697 l 301 44 m 104 -208 l 179 -60 l 511 -60 l 586 -208 l 397 -208 l 346 -106 l 294 -208 l 104 -208 z "},"Đ":{"ha":724,"x_min":-4,"x_max":696,"o":"m 61 0 l 61 769 l 576 769 q 696 404 696 592 q 681 254 696 331 q 639 111 665 178 q 576 0 613 44 l 61 0 m 301 44 q 419 192 379 97 q 458 392 458 288 q 439 531 458 464 q 385 647 419 597 q 301 717 350 697 l 301 44 m -4 344 l -4 426 l 368 426 l 368 344 l -4 344 z "},"Ḋ":{"ha":724,"x_min":61,"x_max":696,"o":"m 61 0 l 61 769 l 576 769 q 696 404 696 592 q 681 254 696 331 q 639 111 665 178 q 576 0 613 44 l 61 0 m 301 44 q 419 192 379 97 q 458 392 458 288 q 439 531 458 464 q 385 647 419 597 q 301 717 350 697 l 301 44 m 235 822 q 213 901 213 849 q 235 983 213 957 l 422 983 q 440 901 440 960 q 422 822 440 849 l 235 822 z "},"Ḍ":{"ha":724,"x_min":61,"x_max":696,"o":"m 61 0 l 61 769 l 576 769 q 696 404 696 592 q 681 254 696 331 q 639 111 665 178 q 576 0 613 44 l 61 0 m 301 44 q 419 192 379 97 q 458 392 458 288 q 439 531 458 464 q 385 647 419 597 q 301 717 350 697 l 301 44 m 251 -221 q 229 -142 229 -194 q 251 -60 229 -86 l 444 -60 q 463 -142 463 -83 q 444 -221 463 -194 l 251 -221 z "},"Ɗ":{"ha":917,"x_min":14,"x_max":889,"o":"m 254 0 l 254 769 l 769 769 q 889 404 889 592 q 874 254 889 331 q 832 111 858 178 q 769 0 806 44 l 254 0 m 494 44 q 612 192 572 97 q 651 392 651 288 q 632 531 651 464 q 578 647 613 597 q 494 717 543 697 l 494 44 m 42 485 q 19 543 24 517 q 14 592 14 569 q 47 699 14 660 q 135 753 81 738 q 254 769 190 769 l 254 714 q 193 681 215 714 q 171 594 171 647 q 179 542 171 571 q 206 485 188 514 l 42 485 z "},"Ḏ":{"ha":724,"x_min":61,"x_max":696,"o":"m 61 0 l 61 769 l 576 769 q 696 404 696 592 q 681 254 696 331 q 639 111 665 178 q 576 0 613 44 l 61 0 m 301 44 q 419 192 379 97 q 458 392 458 288 q 439 531 458 464 q 385 647 419 597 q 301 717 350 697 l 301 44 m 153 -189 l 153 -60 l 539 -60 l 539 -189 l 153 -189 z "},"Ɖ":{"ha":724,"x_min":-4,"x_max":696,"o":"m 61 0 l 61 769 l 576 769 q 696 404 696 592 q 681 254 696 331 q 639 111 665 178 q 576 0 613 44 l 61 0 m 301 44 q 419 192 379 97 q 458 392 458 288 q 439 531 458 464 q 385 647 419 597 q 301 717 350 697 l 301 44 m -4 344 l -4 426 l 368 426 l 368 344 l -4 344 z "},"E":{"ha":579,"x_min":61,"x_max":571,"o":"m 61 0 l 61 769 l 568 769 l 524 606 l 293 606 l 293 468 l 501 468 l 457 304 l 293 304 l 293 167 l 571 167 l 526 0 l 61 0 z "},"É":{"ha":579,"x_min":61,"x_max":571,"o":"m 61 0 l 61 769 l 568 769 l 524 606 l 293 606 l 293 468 l 501 468 l 457 304 l 293 304 l 293 167 l 571 167 l 526 0 l 61 0 m 488 971 l 411 822 l 188 822 l 264 971 l 488 971 z "},"Ě":{"ha":579,"x_min":61,"x_max":571,"o":"m 61 0 l 61 769 l 568 769 l 524 606 l 293 606 l 293 468 l 501 468 l 457 304 l 293 304 l 293 167 l 571 167 l 526 0 l 61 0 m 63 983 l 246 983 l 307 871 l 369 983 l 551 983 l 463 822 l 151 822 l 63 983 z "},"Ȩ":{"ha":579,"x_min":61,"x_max":571,"o":"m 61 0 l 61 769 l 568 769 l 524 606 l 293 606 l 293 468 l 501 468 l 457 304 l 293 304 l 293 167 l 571 167 l 526 0 l 61 0 m 169 -226 q 227 -196 199 -219 q 256 -139 256 -172 q 236 -94 256 -114 q 193 -65 217 -75 l 224 0 l 369 0 l 351 -44 q 410 -78 385 -54 q 435 -143 435 -103 q 423 -188 435 -164 q 383 -232 411 -212 l 169 -232 l 169 -226 z "},"Ḝ":{"ha":579,"x_min":61,"x_max":571,"o":"m 61 0 l 61 769 l 568 769 l 524 606 l 293 606 l 293 468 l 501 468 l 457 304 l 293 304 l 293 167 l 571 167 l 526 0 l 61 0 m 169 -226 q 227 -196 199 -219 q 256 -139 256 -172 q 236 -94 256 -114 q 193 -65 217 -75 l 224 0 l 369 0 l 351 -44 q 410 -78 385 -54 q 435 -143 435 -103 q 423 -188 435 -164 q 383 -232 411 -212 l 169 -232 l 169 -226 m 307 803 q 200 817 253 803 q 101 861 147 832 l 101 1008 q 307 939 199 939 q 513 1008 415 939 l 513 861 q 414 817 467 832 q 307 803 361 803 z "},"Ê":{"ha":579,"x_min":61,"x_max":571,"o":"m 61 0 l 61 769 l 568 769 l 524 606 l 293 606 l 293 468 l 501 468 l 457 304 l 293 304 l 293 167 l 571 167 l 526 0 l 61 0 m 65 822 l 140 971 l 472 971 l 547 822 l 358 822 l 307 925 l 256 822 l 65 822 z "},"Ế":{"ha":579,"x_min":61,"x_max":571,"o":"m 61 0 l 61 769 l 568 769 l 524 606 l 293 606 l 293 468 l 501 468 l 457 304 l 293 304 l 293 167 l 571 167 l 526 0 l 61 0 m 68 822 l 143 953 l 469 953 l 544 822 l 358 822 l 307 913 l 256 822 l 68 822 m 465 1138 l 390 1006 l 190 1006 l 265 1138 l 465 1138 z "},"Ḙ":{"ha":579,"x_min":60,"x_max":571,"o":"m 61 0 l 61 769 l 568 769 l 524 606 l 293 606 l 293 468 l 501 468 l 457 304 l 293 304 l 293 167 l 571 167 l 526 0 l 61 0 m 60 -207 l 135 -58 l 467 -58 l 542 -207 l 353 -207 l 301 -104 l 250 -207 l 60 -207 z "},"Ệ":{"ha":579,"x_min":61,"x_max":571,"o":"m 61 0 l 61 769 l 568 769 l 524 606 l 293 606 l 293 468 l 501 468 l 457 304 l 293 304 l 293 167 l 571 167 l 526 0 l 61 0 m 207 -219 q 185 -140 185 -193 q 207 -58 185 -85 l 400 -58 q 418 -140 418 -82 q 400 -219 418 -193 l 207 -219 m 65 822 l 140 971 l 472 971 l 547 822 l 358 822 l 307 925 l 256 822 l 65 822 z "},"Ề":{"ha":579,"x_min":61,"x_max":571,"o":"m 61 0 l 61 769 l 568 769 l 524 606 l 293 606 l 293 468 l 501 468 l 457 304 l 293 304 l 293 167 l 571 167 l 526 0 l 61 0 m 546 822 l 358 822 l 307 913 l 256 822 l 69 822 l 144 953 l 471 953 l 546 822 m 150 1138 l 350 1138 l 425 1006 l 225 1006 l 150 1138 z "},"Ể":{"ha":579,"x_min":61,"x_max":571,"o":"m 61 0 l 61 769 l 568 769 l 524 606 l 293 606 l 293 468 l 501 468 l 457 304 l 293 304 l 293 167 l 571 167 l 526 0 l 61 0 m 546 822 l 358 822 l 307 913 l 256 822 l 69 822 l 144 953 l 471 953 l 546 822 m 276 1004 q 306 1052 296 1028 q 315 1093 315 1076 q 225 1149 315 1144 l 225 1163 q 308 1171 275 1168 q 364 1174 340 1174 q 403 1173 383 1174 q 443 1165 424 1172 q 492 1100 492 1150 q 439 1004 492 1050 l 276 1004 z "},"Ễ":{"ha":579,"x_min":61,"x_max":571,"o":"m 61 0 l 61 769 l 568 769 l 524 606 l 293 606 l 293 468 l 501 468 l 457 304 l 293 304 l 293 167 l 571 167 l 526 0 l 61 0 m 68 822 l 143 953 l 469 953 l 544 822 l 358 822 l 307 913 l 256 822 l 68 822 m 138 1004 l 138 1132 q 178 1153 156 1144 q 226 1161 200 1161 q 329 1138 272 1161 q 401 1121 371 1121 q 485 1161 444 1121 l 485 1032 q 404 999 456 999 q 351 1006 379 999 q 293 1025 324 1014 q 224 1040 251 1040 q 175 1030 197 1040 q 138 1004 153 1019 z "},"Ȅ":{"ha":579,"x_min":-7,"x_max":571,"o":"m 61 0 l 61 769 l 568 769 l 524 606 l 293 606 l 293 468 l 501 468 l 457 304 l 293 304 l 293 167 l 571 167 l 526 0 l 61 0 m 329 822 l 239 971 l 425 971 l 515 822 l 329 822 m 83 822 l -7 971 l 179 971 l 269 822 l 83 822 z "},"Ë":{"ha":579,"x_min":61,"x_max":571,"o":"m 61 0 l 61 769 l 568 769 l 524 606 l 293 606 l 293 468 l 501 468 l 457 304 l 293 304 l 293 167 l 571 167 l 526 0 l 61 0 m 350 822 q 335 853 342 833 q 329 899 329 874 q 335 943 329 924 q 350 975 342 963 l 514 975 q 535 897 535 953 q 514 822 535 846 l 350 822 m 99 822 q 79 899 79 846 q 99 975 79 949 l 263 975 q 278 944 274 964 q 282 897 282 924 q 278 853 282 874 q 263 822 274 833 l 99 822 z "},"Ė":{"ha":579,"x_min":61,"x_max":571,"o":"m 61 0 l 61 769 l 568 769 l 524 606 l 293 606 l 293 468 l 501 468 l 457 304 l 293 304 l 293 167 l 571 167 l 526 0 l 61 0 m 214 822 q 192 901 192 849 q 214 983 192 957 l 403 983 q 421 901 421 960 q 403 822 421 849 l 214 822 z "},"Ẹ":{"ha":579,"x_min":61,"x_max":571,"o":"m 61 0 l 61 769 l 568 769 l 524 606 l 293 606 l 293 468 l 501 468 l 457 304 l 293 304 l 293 167 l 571 167 l 526 0 l 61 0 m 207 -219 q 185 -140 185 -193 q 207 -58 185 -85 l 400 -58 q 418 -140 418 -82 q 400 -219 418 -193 l 207 -219 z "},"È":{"ha":579,"x_min":61,"x_max":571,"o":"m 61 0 l 61 769 l 568 769 l 524 606 l 293 606 l 293 468 l 501 468 l 457 304 l 293 304 l 293 167 l 571 167 l 526 0 l 61 0 m 117 971 l 340 971 l 417 822 l 193 822 l 117 971 z "},"Ẻ":{"ha":579,"x_min":61,"x_max":571,"o":"m 61 0 l 61 769 l 568 769 l 524 606 l 293 606 l 293 468 l 501 468 l 457 304 l 293 304 l 293 167 l 571 167 l 526 0 l 61 0 m 203 821 q 243 914 243 875 q 149 971 243 967 l 149 986 q 236 994 201 992 q 296 997 271 997 q 337 997 315 997 q 378 989 358 996 q 429 921 429 974 q 374 821 429 869 l 203 821 z "},"Ȇ":{"ha":579,"x_min":61,"x_max":571,"o":"m 61 0 l 61 769 l 568 769 l 524 606 l 293 606 l 293 468 l 501 468 l 457 304 l 293 304 l 293 167 l 571 167 l 526 0 l 61 0 m 99 958 q 199 1010 146 993 q 307 1026 251 1026 q 416 1010 363 1026 q 515 958 469 993 l 515 807 q 307 888 415 888 q 99 807 199 888 l 99 958 z "},"Ē":{"ha":579,"x_min":61,"x_max":571,"o":"m 61 0 l 61 769 l 568 769 l 524 606 l 293 606 l 293 468 l 501 468 l 457 304 l 293 304 l 293 167 l 571 167 l 526 0 l 61 0 m 103 821 l 103 949 l 510 949 l 510 821 l 103 821 z "},"Ḗ":{"ha":579,"x_min":61,"x_max":571,"o":"m 61 0 l 61 769 l 568 769 l 524 606 l 293 606 l 293 468 l 501 468 l 457 304 l 293 304 l 293 167 l 571 167 l 526 0 l 61 0 m 103 824 l 103 942 l 510 942 l 510 824 l 103 824 m 472 1126 l 397 994 l 197 994 l 272 1126 l 472 1126 z "},"Ḕ":{"ha":579,"x_min":61,"x_max":571,"o":"m 61 0 l 61 769 l 568 769 l 524 606 l 293 606 l 293 468 l 501 468 l 457 304 l 293 304 l 293 167 l 571 167 l 526 0 l 61 0 m 103 824 l 103 942 l 510 942 l 510 824 l 103 824 m 136 1126 l 336 1126 l 411 994 l 211 994 l 136 1126 z "},"Ę":{"ha":579,"x_min":61,"x_max":571,"o":"m 61 0 l 61 769 l 568 769 l 524 606 l 293 606 l 293 468 l 501 468 l 457 304 l 293 304 l 293 167 l 571 167 l 526 0 l 61 0 m 519 -110 l 519 -261 q 472 -265 494 -265 q 358 -226 404 -265 q 313 -122 313 -186 q 344 -44 313 -78 q 425 0 375 -10 l 526 0 q 465 -31 488 -10 q 443 -78 443 -51 q 456 -108 443 -97 q 486 -118 468 -118 q 519 -110 503 -118 z "},"Ɛ":{"ha":632,"x_min":28,"x_max":624,"o":"m 538 769 q 596 705 576 747 q 615 593 615 663 q 611 526 615 563 l 383 526 q 388 558 386 543 q 389 586 389 572 q 367 673 389 643 q 319 717 346 703 q 271 611 271 676 q 298 503 271 560 q 369 399 325 447 q 293 293 324 347 q 263 188 263 239 q 278 122 263 153 q 332 63 294 90 q 375 126 360 82 q 390 219 390 169 q 389 251 390 235 q 383 283 388 268 l 617 283 q 622 242 621 263 q 624 203 624 222 q 603 79 624 135 q 544 0 582 24 l 124 0 q 53 79 78 25 q 28 197 28 133 q 49 311 28 254 q 118 413 71 368 q 51 508 69 460 q 32 600 32 556 q 51 694 32 650 q 97 769 71 739 l 538 769 z "},"Ǝ":{"ha":579,"x_min":8,"x_max":518,"o":"m 518 0 l 53 0 l 8 167 l 286 167 l 286 304 l 122 304 l 78 468 l 286 468 l 286 606 l 56 606 l 11 769 l 518 769 l 518 0 z "},"Ʃ":{"ha":549,"x_min":14,"x_max":528,"o":"m 14 0 l 14 122 l 265 122 l 88 394 l 88 406 l 265 647 l 14 647 l 14 769 l 528 769 l 528 669 l 329 400 l 528 100 l 528 0 l 14 0 z "},"Ɇ":{"ha":579,"x_min":58,"x_max":571,"o":"m 61 0 l 61 769 l 568 769 l 524 606 l 293 606 l 293 468 l 501 468 l 457 304 l 293 304 l 293 167 l 571 167 l 526 0 l 61 0 m 58 -100 l 461 864 l 526 864 l 124 -100 l 58 -100 z "},"Ẽ":{"ha":579,"x_min":61,"x_max":571,"o":"m 61 0 l 61 769 l 568 769 l 524 606 l 293 606 l 293 468 l 501 468 l 457 304 l 293 304 l 293 167 l 571 167 l 526 0 l 61 0 m 121 811 l 121 950 q 217 988 161 988 q 268 982 240 988 q 326 964 296 976 q 403 947 371 947 q 493 988 449 947 l 493 847 q 407 814 463 814 q 350 822 381 814 q 288 840 319 829 q 214 856 244 856 q 121 811 157 856 z "},"Ḛ":{"ha":579,"x_min":61,"x_max":571,"o":"m 61 0 l 61 769 l 568 769 l 524 606 l 293 606 l 293 468 l 501 468 l 457 304 l 293 304 l 293 167 l 571 167 l 526 0 l 61 0 m 115 -231 l 115 -92 q 211 -54 156 -54 q 263 -60 235 -54 q 321 -78 290 -65 q 397 -94 365 -94 q 488 -54 443 -94 l 488 -194 q 401 -228 457 -228 q 344 -220 375 -228 q 282 -201 314 -212 q 208 -186 239 -186 q 115 -231 151 -186 z "},"Ə":{"ha":736,"x_min":36,"x_max":700,"o":"m 124 0 q 52 185 68 82 q 36 397 36 289 l 457 397 q 431 574 457 489 q 364 725 406 660 q 328 650 344 690 q 301 567 313 610 l 51 567 q 83 683 63 631 q 129 769 103 735 l 611 769 q 677 605 654 706 q 700 386 700 504 q 676 163 700 265 q 606 0 651 61 l 124 0 m 371 44 q 427 176 406 104 q 454 325 449 249 l 281 325 q 294 213 283 260 q 324 127 306 167 q 371 44 343 88 z "},"Ʒ":{"ha":557,"x_min":15,"x_max":529,"o":"m 90 0 q 217 106 172 50 q 261 232 261 161 q 218 340 261 297 q 117 400 175 382 l 117 406 l 267 647 l 15 647 l 15 769 l 529 769 l 529 647 l 392 453 l 392 450 q 492 349 460 399 q 525 219 525 299 q 484 94 525 154 q 392 0 443 35 l 90 0 z "},"Ǯ":{"ha":557,"x_min":15,"x_max":529,"o":"m 90 0 q 217 106 172 50 q 261 232 261 161 q 218 340 261 297 q 117 400 175 382 l 117 406 l 267 647 l 15 647 l 15 769 l 529 769 l 529 647 l 392 453 l 392 450 q 492 349 460 399 q 525 219 525 299 q 484 94 525 154 q 392 0 443 35 l 90 0 m 26 971 l 217 971 l 268 868 l 319 971 l 508 971 l 433 822 l 101 822 l 26 971 z "},"Ƹ":{"ha":557,"x_min":28,"x_max":542,"o":"m 478 0 l 176 0 q 110 58 142 24 q 59 134 79 92 q 39 219 39 176 q 70 349 39 299 q 168 450 101 399 l 168 454 l 28 647 l 28 769 l 542 769 l 542 647 l 290 647 l 444 406 l 444 400 q 344 340 386 382 q 303 232 303 297 q 349 106 303 161 q 478 0 394 50 z "},"F":{"ha":561,"x_min":61,"x_max":558,"o":"m 61 0 l 61 769 l 558 769 l 514 606 l 297 606 l 297 454 l 519 454 l 475 290 l 297 290 l 297 0 l 61 0 z "},"Ḟ":{"ha":561,"x_min":61,"x_max":558,"o":"m 61 0 l 61 769 l 558 769 l 514 606 l 297 606 l 297 454 l 519 454 l 475 290 l 297 290 l 297 0 l 61 0 m 214 822 q 192 901 192 849 q 214 983 192 957 l 403 983 q 421 901 421 960 q 403 822 421 849 l 214 822 z "},"Ƒ":{"ha":557,"x_min":-24,"x_max":560,"o":"m -24 -242 q 40 -154 17 -206 q 63 -46 63 -103 l 63 769 l 560 769 l 515 606 l 299 606 l 299 454 l 521 454 l 476 290 l 299 290 l 299 -54 q 271 -160 299 -110 q 193 -242 243 -210 l -24 -242 z "},"G":{"ha":694,"x_min":28,"x_max":647,"o":"m 151 0 q 60 174 93 69 q 28 400 28 278 q 54 609 28 514 q 132 769 81 704 l 571 769 q 623 678 600 739 q 646 556 646 617 l 411 556 q 394 649 406 613 q 358 717 382 685 q 291 579 315 656 q 267 429 267 503 q 305 194 267 290 q 413 49 343 99 l 413 400 l 647 400 l 647 0 l 151 0 z "},"Ǵ":{"ha":694,"x_min":28,"x_max":647,"o":"m 151 0 q 60 174 93 69 q 28 400 28 278 q 54 609 28 514 q 132 769 81 704 l 571 769 q 623 678 600 739 q 646 556 646 617 l 411 556 q 394 649 406 613 q 358 717 382 685 q 291 579 315 656 q 267 429 267 503 q 305 194 267 290 q 413 49 343 99 l 413 400 l 647 400 l 647 0 l 151 0 m 529 971 l 453 822 l 229 822 l 306 971 l 529 971 z "},"Ğ":{"ha":694,"x_min":28,"x_max":647,"o":"m 151 0 q 60 174 93 69 q 28 400 28 278 q 54 609 28 514 q 132 769 81 704 l 571 769 q 623 678 600 739 q 646 556 646 617 l 411 556 q 394 649 406 613 q 358 717 382 685 q 291 579 315 656 q 267 429 267 503 q 305 194 267 290 q 413 49 343 99 l 413 400 l 647 400 l 647 0 l 151 0 m 144 874 l 144 1025 q 349 944 242 944 q 553 1025 456 944 l 553 874 q 456 822 508 839 q 349 806 403 806 q 242 822 294 806 q 144 874 190 839 z "},"Ǧ":{"ha":694,"x_min":28,"x_max":647,"o":"m 151 0 q 60 174 93 69 q 28 400 28 278 q 54 609 28 514 q 132 769 81 704 l 571 769 q 623 678 600 739 q 646 556 646 617 l 411 556 q 394 649 406 613 q 358 717 382 685 q 291 579 315 656 q 267 429 267 503 q 305 194 267 290 q 413 49 343 99 l 413 400 l 647 400 l 647 0 l 151 0 m 104 983 l 288 983 l 349 871 l 411 983 l 593 983 l 504 822 l 193 822 l 104 983 z "},"Ĝ":{"ha":694,"x_min":28,"x_max":647,"o":"m 151 0 q 60 174 93 69 q 28 400 28 278 q 54 609 28 514 q 132 769 81 704 l 571 769 q 623 678 600 739 q 646 556 646 617 l 411 556 q 394 649 406 613 q 358 717 382 685 q 291 579 315 656 q 267 429 267 503 q 305 194 267 290 q 413 49 343 99 l 413 400 l 647 400 l 647 0 l 151 0 m 107 822 l 182 971 l 514 971 l 589 822 l 400 822 l 349 925 l 297 822 l 107 822 z "},"Ģ":{"ha":694,"x_min":28,"x_max":647,"o":"m 151 0 q 60 174 93 69 q 28 400 28 278 q 54 609 28 514 q 132 769 81 704 l 571 769 q 623 678 600 739 q 646 556 646 617 l 411 556 q 394 649 406 613 q 358 717 382 685 q 291 579 315 656 q 267 429 267 503 q 305 194 267 290 q 413 49 343 99 l 413 400 l 647 400 l 647 0 l 151 0 m 332 -303 l 332 -206 l 286 -206 l 286 -58 l 465 -58 q 483 -85 476 -68 q 490 -133 490 -103 q 475 -222 490 -178 q 432 -303 460 -265 l 332 -303 z "},"Ġ":{"ha":694,"x_min":28,"x_max":647,"o":"m 151 0 q 60 174 93 69 q 28 400 28 278 q 54 609 28 514 q 132 769 81 704 l 571 769 q 623 678 600 739 q 646 556 646 617 l 411 556 q 394 649 406 613 q 358 717 382 685 q 291 579 315 656 q 267 429 267 503 q 305 194 267 290 q 413 49 343 99 l 413 400 l 647 400 l 647 0 l 151 0 m 257 822 q 235 901 235 849 q 257 983 235 957 l 444 983 q 463 901 463 960 q 444 822 463 849 l 257 822 z "},"Ɠ":{"ha":694,"x_min":28,"x_max":772,"o":"m 151 0 q 60 174 93 69 q 28 400 28 278 q 54 609 28 514 q 132 769 81 704 l 510 769 q 534 941 499 881 q 667 1001 569 1001 q 710 999 679 1001 q 772 983 740 996 l 772 826 q 664 851 714 851 q 571 769 571 851 q 623 678 600 739 q 646 556 646 617 l 411 556 q 394 649 406 613 q 358 717 382 685 q 291 579 315 656 q 267 429 267 503 q 305 194 267 290 q 413 49 343 99 l 413 400 l 647 400 l 647 0 l 151 0 z "},"Ɂ":{"ha":514,"x_min":36,"x_max":499,"o":"m 156 0 l 86 231 q 74 306 74 272 q 95 387 74 349 q 167 472 117 425 q 222 528 204 508 q 239 567 239 549 q 213 629 239 594 q 140 700 186 664 q 36 767 94 736 l 38 769 l 354 769 q 460 675 421 733 q 499 553 499 617 q 470 466 499 508 q 393 379 442 424 q 340 323 358 347 q 322 271 322 299 q 329 232 322 256 l 397 0 l 156 0 z "},"Ḡ":{"ha":694,"x_min":28,"x_max":647,"o":"m 151 0 q 60 174 93 69 q 28 400 28 278 q 54 609 28 514 q 132 769 81 704 l 571 769 q 623 678 600 739 q 646 556 646 617 l 411 556 q 394 649 406 613 q 358 717 382 685 q 291 579 315 656 q 267 429 267 503 q 305 194 267 290 q 413 49 343 99 l 413 400 l 647 400 l 647 0 l 151 0 m 144 821 l 144 949 l 551 949 l 551 821 l 144 821 z "},"Ǥ":{"ha":694,"x_min":28,"x_max":721,"o":"m 151 0 q 60 174 93 69 q 28 400 28 278 q 54 609 28 514 q 132 769 81 704 l 571 769 q 623 678 600 739 q 646 556 646 617 l 411 556 q 394 649 406 613 q 358 717 382 685 q 291 579 315 656 q 267 429 267 503 q 305 194 267 290 q 413 49 343 99 l 413 400 l 647 400 l 647 0 l 151 0 m 349 226 l 349 308 l 721 308 l 721 226 l 349 226 z "},"H":{"ha":761,"x_min":61,"x_max":700,"o":"m 460 0 l 460 311 l 301 311 l 301 0 l 61 0 l 61 769 l 301 769 l 301 475 l 460 475 l 460 769 l 700 769 l 700 0 l 460 0 z "},"Ħ":{"ha":761,"x_min":0,"x_max":761,"o":"m 61 0 l 61 544 l 0 544 l 0 628 l 61 628 l 61 769 l 301 769 l 301 628 l 460 628 l 460 769 l 700 769 l 700 628 l 761 628 l 761 544 l 700 544 l 700 0 l 460 0 l 460 311 l 301 311 l 301 0 l 61 0 m 301 475 l 460 475 l 460 544 l 301 544 l 301 475 z "},"Ḫ":{"ha":761,"x_min":-11,"x_max":700,"o":"m 460 0 l 460 311 l 301 311 l 301 0 l 61 0 l 61 769 l 301 769 l 301 475 l 460 475 l 460 769 l 700 769 l 700 0 l 460 0 m 194 -231 q 88 -216 140 -231 q -11 -172 35 -201 l -11 -25 q 194 -94 86 -94 q 400 -25 303 -94 l 400 -172 q 301 -216 354 -201 q 194 -231 249 -231 z "},"Ȟ":{"ha":761,"x_min":61,"x_max":700,"o":"m 460 0 l 460 311 l 301 311 l 301 0 l 61 0 l 61 769 l 301 769 l 301 475 l 460 475 l 460 769 l 700 769 l 700 0 l 460 0 m 136 983 l 319 983 l 381 871 l 443 983 l 625 983 l 536 822 l 225 822 l 136 983 z "},"Ḩ":{"ha":761,"x_min":61,"x_max":700,"o":"m 460 0 l 460 311 l 301 311 l 301 0 l 61 0 l 61 769 l 301 769 l 301 475 l 460 475 l 460 769 l 700 769 l 700 0 l 460 0 m 63 -226 q 120 -196 92 -219 q 149 -139 149 -172 q 129 -94 149 -114 q 86 -65 110 -75 l 117 0 l 263 0 l 244 -44 q 303 -78 278 -54 q 328 -143 328 -103 q 316 -188 328 -164 q 276 -232 304 -212 l 63 -232 l 63 -226 z "},"Ĥ":{"ha":761,"x_min":61,"x_max":700,"o":"m 460 0 l 460 311 l 301 311 l 301 0 l 61 0 l 61 769 l 301 769 l 301 475 l 460 475 l 460 769 l 700 769 l 700 0 l 460 0 m 139 822 l 214 971 l 546 971 l 621 822 l 432 822 l 381 925 l 329 822 l 139 822 z "},"Ḧ":{"ha":761,"x_min":61,"x_max":700,"o":"m 460 0 l 460 311 l 301 311 l 301 0 l 61 0 l 61 769 l 301 769 l 301 475 l 460 475 l 460 769 l 700 769 l 700 0 l 460 0 m 174 822 q 151 901 151 849 q 174 983 151 957 l 339 983 q 357 901 357 960 q 339 822 357 849 l 174 822 m 425 822 q 403 901 403 849 q 425 983 403 957 l 590 983 q 608 901 608 960 q 590 822 608 849 l 425 822 z "},"Ḣ":{"ha":761,"x_min":61,"x_max":700,"o":"m 460 0 l 460 311 l 301 311 l 301 0 l 61 0 l 61 769 l 301 769 l 301 475 l 460 475 l 460 769 l 700 769 l 700 0 l 460 0 m 289 822 q 267 901 267 849 q 289 983 267 957 l 476 983 q 494 901 494 960 q 476 822 494 849 l 289 822 z "},"Ḥ":{"ha":761,"x_min":61,"x_max":700,"o":"m 460 0 l 460 311 l 301 311 l 301 0 l 61 0 l 61 769 l 301 769 l 301 475 l 460 475 l 460 769 l 700 769 l 700 0 l 460 0 m 100 -219 q 78 -140 78 -193 q 100 -58 78 -85 l 293 -58 q 311 -140 311 -82 q 293 -219 311 -193 l 100 -219 z "},"Ꜧ":{"ha":761,"x_min":61,"x_max":700,"o":"m 381 -258 q 460 -46 460 -185 l 460 311 l 301 311 l 301 0 l 61 0 l 61 769 l 301 769 l 301 475 l 460 475 l 460 769 l 700 769 l 700 -54 q 597 -258 700 -192 l 381 -258 z "},"Ɦ":{"ha":761,"x_min":-179,"x_max":700,"o":"m 460 0 l 460 311 l 301 311 l 301 0 l 61 0 l 61 769 l 301 769 l 301 475 l 460 475 l 460 769 l 700 769 l 700 0 l 460 0 m -151 485 q -174 543 -169 517 q -179 592 -179 569 q -146 699 -179 660 q -58 753 -112 738 q 61 769 -3 769 l 61 714 q 0 681 22 714 q -22 594 -22 647 q -14 542 -22 571 q 13 485 -6 514 l -151 485 z "},"Ɥ":{"ha":686,"x_min":36,"x_max":625,"o":"m 388 0 l 388 242 l 117 242 q 58 360 79 286 q 36 519 36 435 l 36 769 l 274 769 l 274 535 q 303 383 274 442 q 388 289 333 324 l 388 769 l 625 769 l 625 0 l 388 0 z "},"I":{"ha":363,"x_min":61,"x_max":301,"o":"m 61 0 l 61 769 l 301 769 l 301 0 l 61 0 z "},"Ĳ":{"ha":699,"x_min":61,"x_max":638,"o":"m 61 0 l 61 769 l 301 769 l 301 0 l 61 0 m 321 -175 l 321 -172 q 397 39 397 -101 l 397 769 l 638 769 l 638 29 q 535 -175 638 -108 l 321 -175 z "},"Í":{"ha":363,"x_min":61,"x_max":363,"o":"m 61 0 l 61 769 l 301 769 l 301 0 l 61 0 m 363 971 l 286 822 l 63 822 l 139 971 l 363 971 z "},"Ǐ":{"ha":363,"x_min":-60,"x_max":422,"o":"m 61 0 l 61 769 l 301 769 l 301 0 l 61 0 m -60 971 l 131 971 l 182 868 l 233 971 l 422 971 l 347 822 l 15 822 l -60 971 z "},"Î":{"ha":363,"x_min":-60,"x_max":422,"o":"m 61 0 l 61 769 l 301 769 l 301 0 l 61 0 m -60 822 l 15 971 l 347 971 l 422 822 l 233 822 l 182 925 l 131 822 l -60 822 z "},"Ȉ":{"ha":363,"x_min":-132,"x_max":390,"o":"m 61 0 l 61 769 l 301 769 l 301 0 l 61 0 m 204 822 l 114 971 l 300 971 l 390 822 l 204 822 m -42 822 l -132 971 l 54 971 l 144 822 l -42 822 z "},"Ï":{"ha":363,"x_min":-46,"x_max":410,"o":"m 61 0 l 61 769 l 301 769 l 301 0 l 61 0 m 225 822 q 210 853 217 833 q 204 899 204 874 q 210 943 204 924 q 225 975 217 963 l 389 975 q 410 897 410 953 q 389 822 410 846 l 225 822 m -26 822 q -46 899 -46 846 q -26 975 -46 949 l 138 975 q 153 944 149 964 q 157 897 157 924 q 153 853 157 874 q 138 822 149 833 l -26 822 z "},"Ḯ":{"ha":363,"x_min":-37,"x_max":401,"o":"m 61 0 l 61 769 l 301 769 l 301 0 l 61 0 m 224 824 q 209 854 215 835 q 203 897 203 874 q 209 940 203 921 q 224 971 215 958 l 381 971 q 401 896 401 949 q 381 824 401 847 l 224 824 m -19 824 q -37 897 -37 849 q -19 971 -37 944 l 139 971 q 158 896 158 950 q 154 854 158 874 q 139 824 150 835 l -19 824 m 347 1149 l 272 1017 l 72 1017 l 147 1149 l 347 1149 z "},"İ":{"ha":363,"x_min":61,"x_max":301,"o":"m 61 0 l 61 769 l 301 769 l 301 0 l 61 0 m 89 822 q 67 901 67 849 q 89 983 67 957 l 278 983 q 296 901 296 960 q 278 822 296 849 l 89 822 z "},"Ị":{"ha":363,"x_min":61,"x_max":301,"o":"m 61 0 l 61 769 l 301 769 l 301 0 l 61 0 m 88 -219 q 65 -140 65 -193 q 88 -58 65 -85 l 281 -58 q 299 -140 299 -82 q 281 -219 299 -193 l 88 -219 z "},"Ì":{"ha":363,"x_min":-8,"x_max":301,"o":"m 61 0 l 61 769 l 301 769 l 301 0 l 61 0 m -8 971 l 215 971 l 292 822 l 68 822 l -8 971 z "},"Ỉ":{"ha":363,"x_min":24,"x_max":304,"o":"m 61 0 l 61 769 l 301 769 l 301 0 l 61 0 m 78 821 q 118 914 118 875 q 24 971 118 967 l 24 986 q 111 994 76 992 q 171 997 146 997 q 212 997 190 997 q 253 989 233 996 q 304 921 304 974 q 249 821 304 869 l 78 821 z "},"Ȋ":{"ha":363,"x_min":-26,"x_max":390,"o":"m 61 0 l 61 769 l 301 769 l 301 0 l 61 0 m -26 958 q 74 1010 21 993 q 182 1026 126 1026 q 291 1010 238 1026 q 390 958 344 993 l 390 807 q 182 888 290 888 q -26 807 74 888 l -26 958 z "},"Ī":{"ha":363,"x_min":-22,"x_max":385,"o":"m 61 0 l 61 769 l 301 769 l 301 0 l 61 0 m -22 821 l -22 949 l 385 949 l 385 821 l -22 821 z "},"Į":{"ha":363,"x_min":61,"x_max":301,"o":"m 61 0 l 61 769 l 301 769 l 301 0 l 61 0 m 294 -110 l 294 -261 q 247 -265 269 -265 q 133 -226 179 -265 q 88 -122 88 -186 q 119 -44 88 -78 q 200 0 150 -10 l 301 0 q 240 -31 263 -10 q 218 -78 218 -51 q 231 -108 218 -97 q 261 -118 243 -118 q 294 -110 278 -118 z "},"Ɩ":{"ha":335,"x_min":61,"x_max":301,"o":"m 61 0 l 61 769 l 301 769 l 301 0 l 61 0 z "},"Ɨ":{"ha":363,"x_min":-4,"x_max":368,"o":"m 61 0 l 61 769 l 301 769 l 301 0 l 61 0 m -4 344 l -4 426 l 368 426 l 368 344 l -4 344 z "},"Ĩ":{"ha":363,"x_min":-4,"x_max":368,"o":"m 61 0 l 61 769 l 301 769 l 301 0 l 61 0 m -4 811 l -4 950 q 92 988 36 988 q 143 982 115 988 q 201 964 171 976 q 278 947 246 947 q 368 988 324 947 l 368 847 q 282 814 338 814 q 225 822 256 814 q 163 840 194 829 q 89 856 119 856 q -4 811 32 856 z "},"Ḭ":{"ha":363,"x_min":-4,"x_max":368,"o":"m 61 0 l 61 769 l 301 769 l 301 0 l 61 0 m -4 -231 l -4 -92 q 92 -54 36 -54 q 143 -60 115 -54 q 201 -78 171 -65 q 278 -94 246 -94 q 368 -54 324 -94 l 368 -194 q 282 -228 338 -228 q 225 -220 256 -228 q 163 -201 194 -212 q 89 -186 119 -186 q -4 -231 32 -186 z "},"J":{"ha":363,"x_min":-15,"x_max":301,"o":"m -15 -175 l -15 -172 q 61 39 61 -101 l 61 769 l 301 769 l 301 29 q 199 -175 301 -108 l -15 -175 z "},"Ĵ":{"ha":363,"x_min":-60,"x_max":422,"o":"m -15 -175 l -15 -172 q 61 39 61 -101 l 61 769 l 301 769 l 301 29 q 199 -175 301 -108 l -15 -175 m -60 822 l 15 971 l 347 971 l 422 822 l 233 822 l 182 925 l 131 822 l -60 822 z "},"Ʝ":{"ha":622,"x_min":14,"x_max":650,"o":"m 147 -175 q 51 -100 88 -151 q 14 15 14 -49 q 53 134 14 82 q 160 217 92 186 q 321 253 229 249 l 321 769 l 561 769 l 561 210 q 650 163 613 188 l 650 79 q 561 124 600 106 l 561 29 q 399 -175 561 -142 l 147 -175 m 236 8 q 250 -73 236 -37 q 290 -128 264 -108 q 314 -77 307 -115 q 321 39 321 -39 l 321 153 q 256 103 275 139 q 236 8 236 67 z "},"Ɉ":{"ha":363,"x_min":-15,"x_max":368,"o":"m -15 -175 l -15 -172 q 61 39 61 -101 l 61 769 l 301 769 l 301 29 q 199 -175 301 -108 l -15 -175 m -4 344 l -4 426 l 368 426 l 368 344 l -4 344 z "},"K":{"ha":715,"x_min":61,"x_max":688,"o":"m 61 0 l 61 769 l 297 769 l 297 426 q 388 483 364 436 q 411 593 411 531 l 411 769 l 653 769 l 653 597 q 631 497 653 544 q 556 422 608 449 l 556 419 q 643 335 617 396 q 675 193 669 275 l 688 0 l 443 0 l 431 193 q 396 306 426 258 q 297 360 365 354 l 297 0 l 61 0 z "},"Ḱ":{"ha":715,"x_min":61,"x_max":688,"o":"m 61 0 l 61 769 l 297 769 l 297 426 q 388 483 364 436 q 411 593 411 531 l 411 769 l 653 769 l 653 597 q 631 497 653 544 q 556 422 608 449 l 556 419 q 643 335 617 396 q 675 193 669 275 l 688 0 l 443 0 l 431 193 q 396 306 426 258 q 297 360 365 354 l 297 0 l 61 0 m 539 971 l 463 822 l 239 822 l 315 971 l 539 971 z "},"Ǩ":{"ha":715,"x_min":61,"x_max":688,"o":"m 61 0 l 61 769 l 297 769 l 297 426 q 388 483 364 436 q 411 593 411 531 l 411 769 l 653 769 l 653 597 q 631 497 653 544 q 556 422 608 449 l 556 419 q 643 335 617 396 q 675 193 669 275 l 688 0 l 443 0 l 431 193 q 396 306 426 258 q 297 360 365 354 l 297 0 l 61 0 m 117 971 l 307 971 l 358 868 l 410 971 l 599 971 l 524 822 l 192 822 l 117 971 z "},"Ķ":{"ha":715,"x_min":61,"x_max":688,"o":"m 61 0 l 61 769 l 297 769 l 297 426 q 388 483 364 436 q 411 593 411 531 l 411 769 l 653 769 l 653 597 q 631 497 653 544 q 556 422 608 449 l 556 419 q 643 335 617 396 q 675 193 669 275 l 688 0 l 443 0 l 431 193 q 396 306 426 258 q 297 360 365 354 l 297 0 l 61 0 m 301 -303 l 301 -206 l 256 -206 l 256 -58 l 435 -58 q 453 -85 446 -68 q 460 -133 460 -103 q 444 -222 460 -178 q 401 -303 429 -265 l 301 -303 z "},"Ḳ":{"ha":715,"x_min":61,"x_max":688,"o":"m 61 0 l 61 769 l 297 769 l 297 426 q 388 483 364 436 q 411 593 411 531 l 411 769 l 653 769 l 653 597 q 631 497 653 544 q 556 422 608 449 l 556 419 q 643 335 617 396 q 675 193 669 275 l 688 0 l 443 0 l 431 193 q 396 306 426 258 q 297 360 365 354 l 297 0 l 61 0 m 264 -219 q 242 -140 242 -193 q 264 -58 242 -85 l 457 -58 q 475 -140 475 -82 q 457 -219 475 -193 l 264 -219 z "},"Ƙ":{"ha":715,"x_min":61,"x_max":688,"o":"m 61 0 l 61 522 q 65 599 61 556 q 89 688 69 643 q 154 769 108 733 l 386 769 l 386 765 q 324 693 351 750 q 297 556 297 636 l 297 426 q 388 483 364 436 q 411 593 411 531 l 411 769 l 653 769 l 653 597 q 631 497 653 544 q 556 422 608 449 l 556 419 q 643 335 617 396 q 675 193 669 275 l 688 0 l 443 0 l 431 193 q 396 306 426 258 q 297 360 365 354 l 297 0 l 61 0 z "},"Ḵ":{"ha":715,"x_min":61,"x_max":688,"o":"m 61 0 l 61 769 l 297 769 l 297 426 q 388 483 364 436 q 411 593 411 531 l 411 769 l 653 769 l 653 597 q 631 497 653 544 q 556 422 608 449 l 556 419 q 643 335 617 396 q 675 193 669 275 l 688 0 l 443 0 l 431 193 q 396 306 426 258 q 297 360 365 354 l 297 0 l 61 0 m 165 -187 l 165 -58 l 551 -58 l 551 -187 l 165 -187 z "},"Ꝁ":{"ha":715,"x_min":-4,"x_max":688,"o":"m 61 0 l 61 769 l 297 769 l 297 426 q 388 483 364 436 q 411 593 411 531 l 411 769 l 653 769 l 653 597 q 631 497 653 544 q 556 422 608 449 l 556 419 q 643 335 617 396 q 675 193 669 275 l 688 0 l 443 0 l 431 193 q 396 306 426 258 q 297 360 365 354 l 297 0 l 61 0 m -4 514 l -4 596 l 368 596 l 368 514 l -4 514 z "},"L":{"ha":533,"x_min":61,"x_max":556,"o":"m 61 0 l 61 769 l 299 769 l 299 174 l 556 174 l 511 0 l 61 0 z "},"Ĺ":{"ha":533,"x_min":60,"x_max":556,"o":"m 61 0 l 61 769 l 299 769 l 299 174 l 556 174 l 511 0 l 61 0 m 360 971 l 283 822 l 60 822 l 136 971 l 360 971 z "},"Ƚ":{"ha":533,"x_min":8,"x_max":556,"o":"m 61 0 l 61 769 l 299 769 l 299 174 l 556 174 l 511 0 l 61 0 m 8 397 l 8 479 l 381 479 l 381 397 l 8 397 z "},"Ɬ":{"ha":533,"x_min":-139,"x_max":556,"o":"m 61 0 l 61 283 q -89 331 -39 289 q -139 443 -139 372 q -97 537 -139 496 q 21 578 -54 578 q 61 574 42 578 l 61 769 l 299 769 l 299 368 l 432 367 l 432 283 l 299 283 l 299 174 l 556 174 l 511 0 l 61 0 m 61 465 q 53 498 61 481 q 25 515 44 515 q -4 503 10 515 q -18 460 -18 492 q 8 394 -18 414 q 61 371 35 374 l 61 465 z "},"Ľ":{"ha":533,"x_min":61,"x_max":568,"o":"m 61 0 l 61 769 l 299 769 l 299 174 l 556 174 l 511 0 l 61 0 m 353 556 l 390 772 l 568 772 l 531 556 l 353 556 z "},"Ḽ":{"ha":533,"x_min":57,"x_max":556,"o":"m 61 0 l 61 769 l 299 769 l 299 174 l 556 174 l 511 0 l 61 0 m 57 -207 l 132 -58 l 464 -58 l 539 -207 l 350 -207 l 299 -104 l 247 -207 l 57 -207 z "},"Ļ":{"ha":533,"x_min":61,"x_max":556,"o":"m 61 0 l 61 769 l 299 769 l 299 174 l 556 174 l 511 0 l 61 0 m 244 -292 l 244 -199 l 200 -199 l 200 -57 l 372 -57 q 390 -83 383 -67 q 396 -129 396 -100 q 381 -214 396 -172 q 340 -292 367 -256 l 244 -292 z "},"Ḷ":{"ha":533,"x_min":61,"x_max":556,"o":"m 61 0 l 61 769 l 299 769 l 299 174 l 556 174 l 511 0 l 61 0 m 204 -219 q 182 -140 182 -193 q 204 -58 182 -85 l 397 -58 q 415 -140 415 -82 q 397 -219 415 -193 l 204 -219 z "},"Ḹ":{"ha":533,"x_min":-14,"x_max":556,"o":"m 61 0 l 61 769 l 299 769 l 299 174 l 556 174 l 511 0 l 61 0 m 204 -219 q 182 -140 182 -193 q 204 -58 182 -85 l 397 -58 q 415 -140 415 -82 q 397 -219 415 -193 l 204 -219 m -14 821 l -14 950 l 372 950 l 372 821 l -14 821 z "},"Ⱡ":{"ha":536,"x_min":0,"x_max":558,"o":"m 64 0 l 64 769 l 301 769 l 301 174 l 558 174 l 514 0 l 64 0 m 0 472 l 0 556 l 364 556 l 364 472 l 0 472 m 0 326 l 0 410 l 364 410 l 364 326 l 0 326 z "},"Ḻ":{"ha":533,"x_min":61,"x_max":556,"o":"m 61 0 l 61 769 l 299 769 l 299 174 l 556 174 l 511 0 l 61 0 m 106 -187 l 106 -58 l 492 -58 l 492 -187 l 106 -187 z "},"Ɫ":{"ha":533,"x_min":-19,"x_max":556,"o":"m 61 0 l 61 769 l 299 769 l 299 174 l 556 174 l 511 0 l 61 0 m -19 361 l -19 465 q 83 503 24 503 q 138 497 108 503 q 200 479 167 492 q 282 463 247 463 q 378 503 331 463 l 378 397 q 286 364 344 364 q 225 372 257 364 q 158 390 193 379 q 81 406 113 406 q -19 361 19 406 z "},"Ł":{"ha":533,"x_min":-7,"x_max":556,"o":"m 61 0 l 61 769 l 299 769 l 299 174 l 556 174 l 511 0 l 61 0 m -7 319 l -7 408 l 365 618 l 365 529 l -7 319 z "},"M":{"ha":1075,"x_min":61,"x_max":1025,"o":"m 61 0 l 61 769 l 913 769 q 1025 489 1025 665 l 1025 0 l 785 0 l 785 433 q 749 619 785 556 q 622 715 714 682 l 619 714 q 654 608 646 667 q 663 489 663 549 l 663 0 l 424 0 l 424 435 q 413 551 424 494 q 377 651 403 607 q 304 714 351 694 l 301 713 l 301 0 l 61 0 z "},"Ḿ":{"ha":1075,"x_min":61,"x_max":1025,"o":"m 61 0 l 61 769 l 913 769 q 1025 489 1025 665 l 1025 0 l 785 0 l 785 433 q 749 619 785 556 q 622 715 714 682 l 619 714 q 654 608 646 667 q 663 489 663 549 l 663 0 l 424 0 l 424 435 q 413 551 424 494 q 377 651 403 607 q 304 714 351 694 l 301 713 l 301 0 l 61 0 m 683 971 l 607 822 l 383 822 l 460 971 l 683 971 z "},"Ṁ":{"ha":1075,"x_min":61,"x_max":1025,"o":"m 61 0 l 61 769 l 913 769 q 1025 489 1025 665 l 1025 0 l 785 0 l 785 433 q 749 619 785 556 q 622 715 714 682 l 619 714 q 654 608 646 667 q 663 489 663 549 l 663 0 l 424 0 l 424 435 q 413 551 424 494 q 377 651 403 607 q 304 714 351 694 l 301 713 l 301 0 l 61 0 m 410 822 q 388 901 388 849 q 410 983 388 957 l 599 983 q 617 901 617 960 q 599 822 617 849 l 410 822 z "},"Ṃ":{"ha":1075,"x_min":61,"x_max":1025,"o":"m 61 0 l 61 769 l 913 769 q 1025 489 1025 665 l 1025 0 l 785 0 l 785 433 q 749 619 785 556 q 622 715 714 682 l 619 714 q 654 608 646 667 q 663 489 663 549 l 663 0 l 424 0 l 424 435 q 413 551 424 494 q 377 651 403 607 q 304 714 351 694 l 301 713 l 301 0 l 61 0 m 451 -219 q 429 -140 429 -193 q 451 -58 429 -85 l 644 -58 q 663 -140 663 -82 q 644 -219 663 -193 l 451 -219 z "},"Ɯ":{"ha":1075,"x_min":50,"x_max":1014,"o":"m 1014 769 l 1014 0 l 163 0 q 50 281 50 104 l 50 769 l 290 769 l 290 336 q 326 151 290 214 q 453 54 361 88 l 456 56 q 421 163 429 104 q 413 281 413 221 l 413 769 l 651 769 l 651 335 q 662 219 651 276 q 698 119 672 163 q 771 56 724 76 l 774 57 l 774 769 l 1014 769 z "},"N":{"ha":728,"x_min":61,"x_max":678,"o":"m 438 0 l 438 397 q 405 613 438 536 q 301 717 372 690 l 301 0 l 61 0 l 61 769 l 569 769 q 678 439 678 697 l 678 0 l 438 0 z "},"Ń":{"ha":728,"x_min":61,"x_max":678,"o":"m 438 0 l 438 397 q 405 613 438 536 q 301 717 372 690 l 301 0 l 61 0 l 61 769 l 569 769 q 678 439 678 697 l 678 0 l 438 0 m 514 971 l 438 822 l 214 822 l 290 971 l 514 971 z "},"Ň":{"ha":728,"x_min":61,"x_max":678,"o":"m 438 0 l 438 397 q 405 613 438 536 q 301 717 372 690 l 301 0 l 61 0 l 61 769 l 569 769 q 678 439 678 697 l 678 0 l 438 0 m 92 971 l 282 971 l 333 868 l 385 971 l 574 971 l 499 822 l 167 822 l 92 971 z "},"Ṋ":{"ha":728,"x_min":61,"x_max":678,"o":"m 438 0 l 438 397 q 405 613 438 536 q 301 717 372 690 l 301 0 l 61 0 l 61 769 l 569 769 q 678 439 678 697 l 678 0 l 438 0 m 122 -207 l 197 -58 l 529 -58 l 604 -207 l 415 -207 l 364 -104 l 313 -207 l 122 -207 z "},"Ņ":{"ha":728,"x_min":61,"x_max":678,"o":"m 438 0 l 438 397 q 405 613 438 536 q 301 717 372 690 l 301 0 l 61 0 l 61 769 l 569 769 q 678 439 678 697 l 678 0 l 438 0 m 310 -292 l 310 -199 l 265 -199 l 265 -57 l 438 -57 q 455 -83 449 -67 q 461 -129 461 -100 q 447 -214 461 -172 q 406 -292 432 -256 l 310 -292 z "},"Ṅ":{"ha":728,"x_min":61,"x_max":678,"o":"m 438 0 l 438 397 q 405 613 438 536 q 301 717 372 690 l 301 0 l 61 0 l 61 769 l 569 769 q 678 439 678 697 l 678 0 l 438 0 m 240 822 q 218 901 218 849 q 240 983 218 957 l 429 983 q 447 901 447 960 q 429 822 447 849 l 240 822 z "},"Ṇ":{"ha":728,"x_min":61,"x_max":678,"o":"m 438 0 l 438 397 q 405 613 438 536 q 301 717 372 690 l 301 0 l 61 0 l 61 769 l 569 769 q 678 439 678 697 l 678 0 l 438 0 m 269 -219 q 247 -140 247 -193 q 269 -58 247 -85 l 463 -58 q 481 -140 481 -82 q 463 -219 481 -193 l 269 -219 z "},"Ǹ":{"ha":728,"x_min":61,"x_max":678,"o":"m 438 0 l 438 397 q 405 613 438 536 q 301 717 372 690 l 301 0 l 61 0 l 61 769 l 569 769 q 678 439 678 697 l 678 0 l 438 0 m 143 971 l 367 971 l 443 822 l 219 822 l 143 971 z "},"Ɲ":{"ha":728,"x_min":-18,"x_max":678,"o":"m 61 -46 l 61 769 l 569 769 q 678 439 678 697 l 678 -1 l 438 -1 l 438 397 q 405 613 438 536 q 301 717 372 690 l 301 -54 q 199 -258 301 -192 l -18 -258 q 61 -46 61 -185 z "},"Ƞ":{"ha":728,"x_min":61,"x_max":678,"o":"m 438 -242 l 438 397 q 405 613 438 536 q 301 717 372 690 l 301 0 l 61 0 l 61 769 l 569 769 q 678 439 678 697 l 678 -242 l 438 -242 z "},"Ṉ":{"ha":728,"x_min":61,"x_max":678,"o":"m 438 0 l 438 397 q 405 613 438 536 q 301 717 372 690 l 301 0 l 61 0 l 61 769 l 569 769 q 678 439 678 697 l 678 0 l 438 0 m 160 -187 l 160 -60 l 567 -60 l 567 -187 l 160 -187 z "},"Ñ":{"ha":728,"x_min":61,"x_max":678,"o":"m 438 0 l 438 397 q 405 613 438 536 q 301 717 372 690 l 301 0 l 61 0 l 61 769 l 569 769 q 678 439 678 697 l 678 0 l 438 0 m 147 811 l 147 950 q 243 988 188 988 q 294 982 267 988 q 353 964 322 976 q 429 947 397 947 q 519 988 475 947 l 519 847 q 433 814 489 814 q 376 822 407 814 q 314 840 346 829 q 240 856 271 856 q 147 811 183 856 z "},"Ŋ":{"ha":739,"x_min":61,"x_max":678,"o":"m 358 -262 q 438 -50 438 -189 l 438 397 q 405 613 438 536 q 301 717 372 690 l 301 0 l 61 0 l 61 769 l 569 769 q 678 439 678 697 l 678 -58 q 575 -262 678 -196 l 358 -262 z "},"O":{"ha":724,"x_min":36,"x_max":688,"o":"m 124 0 q 56 185 76 93 q 36 383 36 278 q 57 594 36 496 q 122 769 78 693 l 601 769 q 669 585 650 678 q 688 386 688 493 q 667 172 688 272 q 603 0 647 71 l 124 0 m 369 44 q 426 200 408 117 q 444 379 444 283 q 427 558 444 475 q 361 717 410 642 q 279 385 279 569 q 301 203 279 288 q 369 44 322 119 z "},"Ȣ":{"ha":725,"x_min":36,"x_max":689,"o":"m 125 0 q 57 128 78 63 q 36 257 36 193 q 58 395 36 325 q 124 517 79 465 l 125 517 q 58 640 78 578 q 38 769 38 701 l 281 769 q 302 660 281 711 q 371 561 324 608 q 446 769 446 649 l 689 769 q 669 631 689 697 q 604 517 649 564 l 603 517 q 670 394 651 456 q 689 260 689 332 q 669 116 689 183 q 604 0 649 49 l 125 0 m 371 44 q 446 256 446 132 q 428 365 446 313 q 363 464 411 417 q 281 256 281 374 q 302 144 281 197 q 371 44 324 92 z "},"Ó":{"ha":724,"x_min":36,"x_max":688,"o":"m 124 0 q 56 185 76 93 q 36 383 36 278 q 57 594 36 496 q 122 769 78 693 l 601 769 q 669 585 650 678 q 688 386 688 493 q 667 172 688 272 q 603 0 647 71 l 124 0 m 369 44 q 426 200 408 117 q 444 379 444 283 q 427 558 444 475 q 361 717 410 642 q 279 385 279 569 q 301 203 279 288 q 369 44 322 119 m 543 971 l 467 822 l 243 822 l 319 971 l 543 971 z "},"Ɵ":{"ha":724,"x_min":36,"x_max":688,"o":"m 124 0 q 56 185 76 93 q 36 383 36 278 q 57 594 36 496 q 122 769 78 693 l 601 769 q 669 585 650 678 q 688 386 688 493 q 667 172 688 272 q 603 0 647 71 l 124 0 m 369 44 q 426 200 408 117 q 444 379 444 283 q 427 558 444 475 q 361 717 410 642 q 279 385 279 569 q 301 203 279 288 q 369 44 322 119 m 97 343 l 97 425 l 628 425 l 628 343 l 97 343 z "},"Ǒ":{"ha":724,"x_min":36,"x_max":688,"o":"m 124 0 q 56 185 76 93 q 36 383 36 278 q 57 594 36 496 q 122 769 78 693 l 601 769 q 669 585 650 678 q 688 386 688 493 q 667 172 688 272 q 603 0 647 71 l 124 0 m 369 44 q 426 200 408 117 q 444 379 444 283 q 427 558 444 475 q 361 717 410 642 q 279 385 279 569 q 301 203 279 288 q 369 44 322 119 m 121 971 l 311 971 l 363 868 l 414 971 l 603 971 l 528 822 l 196 822 l 121 971 z "},"Ô":{"ha":724,"x_min":36,"x_max":688,"o":"m 124 0 q 56 185 76 93 q 36 383 36 278 q 57 594 36 496 q 122 769 78 693 l 601 769 q 669 585 650 678 q 688 386 688 493 q 667 172 688 272 q 603 0 647 71 l 124 0 m 369 44 q 426 200 408 117 q 444 379 444 283 q 427 558 444 475 q 361 717 410 642 q 279 385 279 569 q 301 203 279 288 q 369 44 322 119 m 121 822 l 196 971 l 528 971 l 603 822 l 414 822 l 363 925 l 311 822 l 121 822 z "},"Ố":{"ha":724,"x_min":36,"x_max":688,"o":"m 124 0 q 56 185 76 93 q 36 383 36 278 q 57 594 36 496 q 122 769 78 693 l 601 769 q 669 585 650 678 q 688 386 688 493 q 667 172 688 272 q 603 0 647 71 l 124 0 m 369 44 q 426 200 408 117 q 444 379 444 283 q 427 558 444 475 q 361 717 410 642 q 279 385 279 569 q 301 203 279 288 q 369 44 322 119 m 124 822 l 199 953 l 525 953 l 600 822 l 414 822 l 363 913 l 311 822 l 124 822 m 521 1138 l 446 1006 l 246 1006 l 321 1138 l 521 1138 z "},"Ộ":{"ha":724,"x_min":36,"x_max":688,"o":"m 124 0 q 56 185 76 93 q 36 383 36 278 q 57 594 36 496 q 122 769 78 693 l 601 769 q 669 585 650 678 q 688 386 688 493 q 667 172 688 272 q 603 0 647 71 l 124 0 m 369 44 q 426 200 408 117 q 444 379 444 283 q 427 558 444 475 q 361 717 410 642 q 279 385 279 569 q 301 203 279 288 q 369 44 322 119 m 268 -219 q 246 -140 246 -193 q 268 -58 246 -85 l 461 -58 q 479 -140 479 -82 q 461 -219 479 -193 l 268 -219 m 121 822 l 196 971 l 528 971 l 603 822 l 414 822 l 363 925 l 311 822 l 121 822 z "},"Ồ":{"ha":724,"x_min":36,"x_max":688,"o":"m 124 0 q 56 185 76 93 q 36 383 36 278 q 57 594 36 496 q 122 769 78 693 l 601 769 q 669 585 650 678 q 688 386 688 493 q 667 172 688 272 q 603 0 647 71 l 124 0 m 369 44 q 426 200 408 117 q 444 379 444 283 q 427 558 444 475 q 361 717 410 642 q 279 385 279 569 q 301 203 279 288 q 369 44 322 119 m 601 822 l 414 822 l 363 913 l 311 822 l 125 822 l 200 953 l 526 953 l 601 822 m 206 1138 l 406 1138 l 481 1006 l 281 1006 l 206 1138 z "},"Ổ":{"ha":724,"x_min":36,"x_max":688,"o":"m 124 0 q 56 185 76 93 q 36 383 36 278 q 57 594 36 496 q 122 769 78 693 l 601 769 q 669 585 650 678 q 688 386 688 493 q 667 172 688 272 q 603 0 647 71 l 124 0 m 369 44 q 426 200 408 117 q 444 379 444 283 q 427 558 444 475 q 361 717 410 642 q 279 385 279 569 q 301 203 279 288 q 369 44 322 119 m 601 822 l 414 822 l 363 913 l 311 822 l 125 822 l 200 953 l 526 953 l 601 822 m 332 1004 q 361 1052 351 1028 q 371 1093 371 1076 q 281 1149 371 1144 l 281 1163 q 363 1171 331 1168 q 419 1174 396 1174 q 459 1173 439 1174 q 499 1165 479 1172 q 547 1100 547 1150 q 494 1004 547 1050 l 332 1004 z "},"Ỗ":{"ha":724,"x_min":36,"x_max":688,"o":"m 124 0 q 56 185 76 93 q 36 383 36 278 q 57 594 36 496 q 122 769 78 693 l 601 769 q 669 585 650 678 q 688 386 688 493 q 667 172 688 272 q 603 0 647 71 l 124 0 m 369 44 q 426 200 408 117 q 444 379 444 283 q 427 558 444 475 q 361 717 410 642 q 279 385 279 569 q 301 203 279 288 q 369 44 322 119 m 124 822 l 199 953 l 525 953 l 600 822 l 414 822 l 363 913 l 311 822 l 124 822 m 193 1004 l 193 1132 q 233 1153 211 1144 q 282 1161 256 1161 q 385 1138 328 1161 q 457 1121 426 1121 q 540 1161 500 1121 l 540 1032 q 460 999 511 999 q 407 1006 435 999 q 349 1025 379 1014 q 279 1040 307 1040 q 231 1030 253 1040 q 193 1004 208 1019 z "},"Ȍ":{"ha":724,"x_min":36,"x_max":688,"o":"m 124 0 q 56 185 76 93 q 36 383 36 278 q 57 594 36 496 q 122 769 78 693 l 601 769 q 669 585 650 678 q 688 386 688 493 q 667 172 688 272 q 603 0 647 71 l 124 0 m 369 44 q 426 200 408 117 q 444 379 444 283 q 427 558 444 475 q 361 717 410 642 q 279 385 279 569 q 301 203 279 288 q 369 44 322 119 m 385 822 l 294 971 l 481 971 l 571 822 l 385 822 m 139 822 l 49 971 l 235 971 l 325 822 l 139 822 z "},"Ö":{"ha":724,"x_min":36,"x_max":688,"o":"m 124 0 q 56 185 76 93 q 36 383 36 278 q 57 594 36 496 q 122 769 78 693 l 601 769 q 669 585 650 678 q 688 386 688 493 q 667 172 688 272 q 603 0 647 71 l 124 0 m 369 44 q 426 200 408 117 q 444 379 444 283 q 427 558 444 475 q 361 717 410 642 q 279 385 279 569 q 301 203 279 288 q 369 44 322 119 m 406 822 q 391 853 397 833 q 385 899 385 874 q 391 943 385 924 q 406 975 397 963 l 569 975 q 590 897 590 953 q 569 822 590 846 l 406 822 m 154 822 q 135 899 135 846 q 154 975 135 949 l 318 975 q 333 944 329 964 q 338 897 338 924 q 333 853 338 874 q 318 822 329 833 l 154 822 z "},"Ȫ":{"ha":724,"x_min":36,"x_max":688,"o":"m 124 0 q 56 185 76 93 q 36 383 36 278 q 57 594 36 496 q 122 769 78 693 l 601 769 q 669 585 650 678 q 688 386 688 493 q 667 172 688 272 q 603 0 647 71 l 124 0 m 369 44 q 426 200 408 117 q 444 379 444 283 q 427 558 444 475 q 361 717 410 642 q 279 385 279 569 q 301 203 279 288 q 369 44 322 119 m 404 824 q 390 854 396 835 q 383 897 383 874 q 390 940 383 921 q 404 971 396 958 l 561 971 q 582 896 582 949 q 561 824 582 847 l 404 824 m 161 824 q 143 897 143 849 q 161 971 143 944 l 319 971 q 339 896 339 950 q 335 854 339 874 q 319 824 331 835 l 161 824 m 158 1018 l 158 1136 l 565 1136 l 565 1018 l 158 1018 z "},"Ȯ":{"ha":724,"x_min":36,"x_max":688,"o":"m 124 0 q 56 185 76 93 q 36 383 36 278 q 57 594 36 496 q 122 769 78 693 l 601 769 q 669 585 650 678 q 688 386 688 493 q 667 172 688 272 q 603 0 647 71 l 124 0 m 369 44 q 426 200 408 117 q 444 379 444 283 q 427 558 444 475 q 361 717 410 642 q 279 385 279 569 q 301 203 279 288 q 369 44 322 119 m 269 822 q 247 901 247 849 q 269 983 247 957 l 458 983 q 476 901 476 960 q 458 822 476 849 l 269 822 z "},"Ȱ":{"ha":724,"x_min":36,"x_max":688,"o":"m 124 0 q 56 185 76 93 q 36 383 36 278 q 57 594 36 496 q 122 769 78 693 l 601 769 q 669 585 650 678 q 688 386 688 493 q 667 172 688 272 q 603 0 647 71 l 124 0 m 369 44 q 426 200 408 117 q 444 379 444 283 q 427 558 444 475 q 361 717 410 642 q 279 385 279 569 q 301 203 279 288 q 369 44 322 119 m 283 817 q 269 847 275 828 q 263 890 263 867 q 269 933 263 914 q 283 964 275 951 l 440 964 q 461 889 461 942 q 440 817 461 840 l 283 817 m 158 1018 l 158 1136 l 565 1136 l 565 1018 l 158 1018 z "},"Ọ":{"ha":724,"x_min":36,"x_max":688,"o":"m 124 0 q 56 185 76 93 q 36 383 36 278 q 57 594 36 496 q 122 769 78 693 l 601 769 q 669 585 650 678 q 688 386 688 493 q 667 172 688 272 q 603 0 647 71 l 124 0 m 369 44 q 426 200 408 117 q 444 379 444 283 q 427 558 444 475 q 361 717 410 642 q 279 385 279 569 q 301 203 279 288 q 369 44 322 119 m 268 -219 q 246 -140 246 -193 q 268 -58 246 -85 l 461 -58 q 479 -140 479 -82 q 461 -219 479 -193 l 268 -219 z "},"Ò":{"ha":724,"x_min":36,"x_max":688,"o":"m 124 0 q 56 185 76 93 q 36 383 36 278 q 57 594 36 496 q 122 769 78 693 l 601 769 q 669 585 650 678 q 688 386 688 493 q 667 172 688 272 q 603 0 647 71 l 124 0 m 369 44 q 426 200 408 117 q 444 379 444 283 q 427 558 444 475 q 361 717 410 642 q 279 385 279 569 q 301 203 279 288 q 369 44 322 119 m 172 971 l 396 971 l 472 822 l 249 822 l 172 971 z "},"Ỏ":{"ha":724,"x_min":36,"x_max":688,"o":"m 124 0 q 56 185 76 93 q 36 383 36 278 q 57 594 36 496 q 122 769 78 693 l 601 769 q 669 585 650 678 q 688 386 688 493 q 667 172 688 272 q 603 0 647 71 l 124 0 m 369 44 q 426 200 408 117 q 444 379 444 283 q 427 558 444 475 q 361 717 410 642 q 279 385 279 569 q 301 203 279 288 q 369 44 322 119 m 258 821 q 299 914 299 875 q 204 971 299 967 l 204 986 q 292 994 257 992 q 351 997 326 997 q 392 997 371 997 q 433 989 414 996 q 485 921 485 974 q 429 821 485 869 l 258 821 z "},"Ơ":{"ha":724,"x_min":36,"x_max":729,"o":"m 124 0 q 56 185 76 93 q 36 383 36 278 q 57 594 36 496 q 122 769 78 693 l 601 769 q 669 585 650 678 q 688 386 688 493 q 667 172 688 272 q 603 0 647 71 l 124 0 m 369 44 q 426 200 408 117 q 444 379 444 283 q 427 558 444 475 q 361 717 410 642 q 279 385 279 569 q 301 203 279 288 q 369 44 322 119 m 479 721 q 581 867 581 768 q 549 979 581 929 l 550 983 l 729 983 q 705 806 729 874 q 621 706 681 738 l 479 721 z "},"Ớ":{"ha":724,"x_min":36,"x_max":729,"o":"m 124 0 q 56 185 76 93 q 36 383 36 278 q 57 594 36 496 q 122 769 78 693 l 601 769 q 669 585 650 678 q 688 386 688 493 q 667 172 688 272 q 603 0 647 71 l 124 0 m 369 44 q 426 200 408 117 q 444 379 444 283 q 427 558 444 475 q 361 717 410 642 q 279 385 279 569 q 301 203 279 288 q 369 44 322 119 m 479 721 q 581 867 581 768 q 549 979 581 929 l 550 983 l 729 983 q 705 806 729 874 q 621 706 681 738 l 479 721 m 488 971 l 411 822 l 188 822 l 264 971 l 488 971 z "},"Ợ":{"ha":724,"x_min":36,"x_max":729,"o":"m 124 0 q 56 185 76 93 q 36 383 36 278 q 57 594 36 496 q 122 769 78 693 l 601 769 q 669 585 650 678 q 688 386 688 493 q 667 172 688 272 q 603 0 647 71 l 124 0 m 369 44 q 426 200 408 117 q 444 379 444 283 q 427 558 444 475 q 361 717 410 642 q 279 385 279 569 q 301 203 279 288 q 369 44 322 119 m 479 721 q 581 867 581 768 q 549 979 581 929 l 550 983 l 729 983 q 705 806 729 874 q 621 706 681 738 l 479 721 m 268 -219 q 246 -140 246 -193 q 268 -58 246 -85 l 461 -58 q 479 -140 479 -82 q 461 -219 479 -193 l 268 -219 z "},"Ờ":{"ha":724,"x_min":36,"x_max":729,"o":"m 124 0 q 56 185 76 93 q 36 383 36 278 q 57 594 36 496 q 122 769 78 693 l 601 769 q 669 585 650 678 q 688 386 688 493 q 667 172 688 272 q 603 0 647 71 l 124 0 m 369 44 q 426 200 408 117 q 444 379 444 283 q 427 558 444 475 q 361 717 410 642 q 279 385 279 569 q 301 203 279 288 q 369 44 322 119 m 479 721 q 581 867 581 768 q 549 979 581 929 l 550 983 l 729 983 q 705 806 729 874 q 621 706 681 738 l 479 721 m 172 971 l 396 971 l 472 822 l 249 822 l 172 971 z "},"Ở":{"ha":724,"x_min":36,"x_max":729,"o":"m 124 0 q 56 185 76 93 q 36 383 36 278 q 57 594 36 496 q 122 769 78 693 l 601 769 q 669 585 650 678 q 688 386 688 493 q 667 172 688 272 q 603 0 647 71 l 124 0 m 369 44 q 426 200 408 117 q 444 379 444 283 q 427 558 444 475 q 361 717 410 642 q 279 385 279 569 q 301 203 279 288 q 369 44 322 119 m 479 721 q 581 867 581 768 q 549 979 581 929 l 550 983 l 729 983 q 705 806 729 874 q 621 706 681 738 l 479 721 m 258 821 q 299 914 299 875 q 204 971 299 967 l 204 986 q 292 994 257 992 q 351 997 326 997 q 392 997 371 997 q 433 989 414 996 q 485 921 485 974 q 429 821 485 869 l 258 821 z "},"Ỡ":{"ha":724,"x_min":36,"x_max":729,"o":"m 124 0 q 56 185 76 93 q 36 383 36 278 q 57 594 36 496 q 122 769 78 693 l 601 769 q 669 585 650 678 q 688 386 688 493 q 667 172 688 272 q 603 0 647 71 l 124 0 m 369 44 q 426 200 408 117 q 444 379 444 283 q 427 558 444 475 q 361 717 410 642 q 279 385 279 569 q 301 203 279 288 q 369 44 322 119 m 479 721 q 581 867 581 768 q 549 979 581 929 l 550 983 l 729 983 q 705 806 729 874 q 621 706 681 738 l 479 721 m 125 811 l 125 950 q 221 988 165 988 q 272 982 244 988 q 331 964 300 976 q 407 947 375 947 q 497 988 453 947 l 497 847 q 411 814 467 814 q 354 822 385 814 q 292 840 324 829 q 218 856 249 856 q 125 811 161 856 z "},"Ő":{"ha":724,"x_min":36,"x_max":688,"o":"m 124 0 q 56 185 76 93 q 36 383 36 278 q 57 594 36 496 q 122 769 78 693 l 601 769 q 669 585 650 678 q 688 386 688 493 q 667 172 688 272 q 603 0 647 71 l 124 0 m 369 44 q 426 200 408 117 q 444 379 444 283 q 427 558 444 475 q 361 717 410 642 q 279 385 279 569 q 301 203 279 288 q 369 44 322 119 m 331 822 l 144 822 l 235 971 l 421 971 l 331 822 m 576 822 l 390 822 l 481 971 l 667 971 l 576 822 z "},"Ȏ":{"ha":724,"x_min":36,"x_max":688,"o":"m 124 0 q 56 185 76 93 q 36 383 36 278 q 57 594 36 496 q 122 769 78 693 l 601 769 q 669 585 650 678 q 688 386 688 493 q 667 172 688 272 q 603 0 647 71 l 124 0 m 369 44 q 426 200 408 117 q 444 379 444 283 q 427 558 444 475 q 361 717 410 642 q 279 385 279 569 q 301 203 279 288 q 369 44 322 119 m 154 958 q 254 1010 201 993 q 363 1026 307 1026 q 472 1010 418 1026 q 571 958 525 993 l 571 807 q 363 888 471 888 q 154 807 254 888 l 154 958 z "},"Ō":{"ha":724,"x_min":36,"x_max":688,"o":"m 124 0 q 56 185 76 93 q 36 383 36 278 q 57 594 36 496 q 122 769 78 693 l 601 769 q 669 585 650 678 q 688 386 688 493 q 667 172 688 272 q 603 0 647 71 l 124 0 m 369 44 q 426 200 408 117 q 444 379 444 283 q 427 558 444 475 q 361 717 410 642 q 279 385 279 569 q 301 203 279 288 q 369 44 322 119 m 169 821 l 169 950 l 556 950 l 556 821 l 169 821 z "},"Ṓ":{"ha":724,"x_min":36,"x_max":688,"o":"m 124 0 q 56 185 76 93 q 36 383 36 278 q 57 594 36 496 q 122 769 78 693 l 601 769 q 669 585 650 678 q 688 386 688 493 q 667 172 688 272 q 603 0 647 71 l 124 0 m 369 44 q 426 200 408 117 q 444 379 444 283 q 427 558 444 475 q 361 717 410 642 q 279 385 279 569 q 301 203 279 288 q 369 44 322 119 m 158 824 l 158 942 l 565 942 l 565 824 l 158 824 m 528 1126 l 453 994 l 253 994 l 328 1126 l 528 1126 z "},"Ṑ":{"ha":724,"x_min":36,"x_max":688,"o":"m 124 0 q 56 185 76 93 q 36 383 36 278 q 57 594 36 496 q 122 769 78 693 l 601 769 q 669 585 650 678 q 688 386 688 493 q 667 172 688 272 q 603 0 647 71 l 124 0 m 369 44 q 426 200 408 117 q 444 379 444 283 q 427 558 444 475 q 361 717 410 642 q 279 385 279 569 q 301 203 279 288 q 369 44 322 119 m 158 824 l 158 942 l 565 942 l 565 824 l 158 824 m 192 1126 l 392 1126 l 467 994 l 267 994 l 192 1126 z "},"Ꞷ":{"ha":988,"x_min":38,"x_max":949,"o":"m 143 0 q 65 153 93 54 q 38 371 38 253 q 74 605 38 503 q 183 769 111 707 l 390 769 l 390 767 q 269 371 269 625 q 354 86 269 165 q 387 179 376 126 q 393 293 397 232 l 379 544 l 597 544 l 611 294 q 613 149 617 200 q 599 65 610 97 q 717 371 717 140 q 686 597 717 494 q 596 767 656 699 l 596 769 l 803 769 q 912 605 875 707 q 949 371 949 503 q 922 153 949 253 q 851 0 896 54 l 143 0 z "},"Ǫ":{"ha":724,"x_min":36,"x_max":688,"o":"m 124 0 q 56 185 76 93 q 36 383 36 278 q 57 594 36 496 q 122 769 78 693 l 601 769 q 669 585 650 678 q 688 386 688 493 q 667 172 688 272 q 603 0 647 71 l 124 0 m 369 44 q 426 200 408 117 q 444 379 444 283 q 427 558 444 475 q 361 717 410 642 q 279 385 279 569 q 301 203 279 288 q 369 44 322 119 m 596 -101 l 596 -242 q 549 -246 571 -246 q 435 -209 481 -246 q 389 -114 389 -172 q 488 0 389 -28 l 603 0 q 542 -28 564 -10 q 519 -72 519 -47 q 532 -100 519 -90 q 563 -110 544 -110 q 596 -101 579 -110 z "},"Ǭ":{"ha":724,"x_min":36,"x_max":688,"o":"m 124 0 q 56 185 76 93 q 36 383 36 278 q 57 594 36 496 q 122 769 78 693 l 601 769 q 669 585 650 678 q 688 386 688 493 q 667 172 688 272 q 603 0 647 71 l 124 0 m 369 44 q 426 200 408 117 q 444 379 444 283 q 427 558 444 475 q 361 717 410 642 q 279 385 279 569 q 301 203 279 288 q 369 44 322 119 m 596 -101 l 596 -242 q 549 -246 571 -246 q 435 -209 481 -246 q 389 -114 389 -172 q 488 0 389 -28 l 603 0 q 542 -28 564 -10 q 519 -72 519 -47 q 532 -100 519 -90 q 563 -110 544 -110 q 596 -101 579 -110 m 169 821 l 169 950 l 556 950 l 556 821 l 169 821 z "},"Ɔ":{"ha":732,"x_min":36,"x_max":688,"o":"m 111 0 q 64 98 85 40 q 36 203 43 156 l 288 203 q 316 122 296 163 q 358 44 336 81 q 422 203 399 115 q 444 382 444 292 q 420 567 444 478 q 351 725 396 657 q 288 567 310 651 l 38 567 q 70 681 50 629 q 117 769 90 733 l 599 769 q 665 605 642 706 q 688 386 688 504 q 663 163 688 265 q 593 0 639 61 l 111 0 z "},"Ø":{"ha":724,"x_min":36,"x_max":688,"o":"m 124 0 q 56 185 76 93 q 36 383 36 278 q 57 594 36 496 q 122 769 78 693 l 601 769 q 669 585 650 678 q 688 386 688 493 q 667 172 688 272 q 603 0 647 71 l 124 0 m 369 44 q 426 200 408 117 q 444 379 444 283 q 427 558 444 475 q 361 717 410 642 q 279 385 279 569 q 301 203 279 288 q 369 44 322 119 m 128 -100 l 531 864 l 596 864 l 193 -100 l 128 -100 z "},"Ǿ":{"ha":724,"x_min":36,"x_max":688,"o":"m 124 0 q 56 185 76 93 q 36 383 36 278 q 57 594 36 496 q 122 769 78 693 l 601 769 q 669 585 650 678 q 688 386 688 493 q 667 172 688 272 q 603 0 647 71 l 124 0 m 369 44 q 426 200 408 117 q 444 379 444 283 q 427 558 444 475 q 361 717 410 642 q 279 385 279 569 q 301 203 279 288 q 369 44 322 119 m 128 -100 l 531 864 l 596 864 l 193 -100 l 128 -100 m 542 971 l 465 822 l 242 822 l 318 971 l 542 971 z "},"Õ":{"ha":724,"x_min":36,"x_max":688,"o":"m 124 0 q 56 185 76 93 q 36 383 36 278 q 57 594 36 496 q 122 769 78 693 l 601 769 q 669 585 650 678 q 688 386 688 493 q 667 172 688 272 q 603 0 647 71 l 124 0 m 369 44 q 426 200 408 117 q 444 379 444 283 q 427 558 444 475 q 361 717 410 642 q 279 385 279 569 q 301 203 279 288 q 369 44 322 119 m 176 811 l 176 950 q 272 988 217 988 q 324 982 296 988 q 382 964 351 976 q 458 947 426 947 q 549 988 504 947 l 549 847 q 463 814 518 814 q 406 822 436 814 q 343 840 375 829 q 269 856 300 856 q 176 811 213 856 z "},"Ṍ":{"ha":724,"x_min":36,"x_max":688,"o":"m 124 0 q 56 185 76 93 q 36 383 36 278 q 57 594 36 496 q 122 769 78 693 l 601 769 q 669 585 650 678 q 688 386 688 493 q 667 172 688 272 q 603 0 647 71 l 124 0 m 369 44 q 426 200 408 117 q 444 379 444 283 q 427 558 444 475 q 361 717 410 642 q 279 385 279 569 q 301 203 279 288 q 369 44 322 119 m 176 811 l 176 950 q 272 988 217 988 q 324 982 296 988 q 382 964 351 976 q 458 947 426 947 q 549 988 504 947 l 549 847 q 463 814 518 814 q 406 822 436 814 q 343 840 375 829 q 269 856 300 856 q 176 811 213 856 m 543 1189 l 467 1040 l 243 1040 l 319 1189 l 543 1189 z "},"Ṏ":{"ha":724,"x_min":36,"x_max":688,"o":"m 124 0 q 56 185 76 93 q 36 383 36 278 q 57 594 36 496 q 122 769 78 693 l 601 769 q 669 585 650 678 q 688 386 688 493 q 667 172 688 272 q 603 0 647 71 l 124 0 m 369 44 q 426 200 408 117 q 444 379 444 283 q 427 558 444 475 q 361 717 410 642 q 279 385 279 569 q 301 203 279 288 q 369 44 322 119 m 176 811 l 176 950 q 272 988 217 988 q 324 982 296 988 q 382 964 351 976 q 458 947 426 947 q 549 988 504 947 l 549 847 q 463 814 518 814 q 406 822 436 814 q 343 840 375 829 q 269 856 300 856 q 176 811 213 856 m 406 1040 q 391 1072 397 1051 q 385 1117 385 1092 q 391 1161 385 1142 q 406 1193 397 1181 l 569 1193 q 590 1115 590 1171 q 569 1040 590 1064 l 406 1040 m 154 1040 q 135 1117 135 1064 q 154 1193 135 1167 l 318 1193 q 333 1162 329 1182 q 338 1115 338 1142 q 333 1072 338 1092 q 318 1040 329 1051 l 154 1040 z "},"Ȭ":{"ha":724,"x_min":36,"x_max":688,"o":"m 124 0 q 56 185 76 93 q 36 383 36 278 q 57 594 36 496 q 122 769 78 693 l 601 769 q 669 585 650 678 q 688 386 688 493 q 667 172 688 272 q 603 0 647 71 l 124 0 m 369 44 q 426 200 408 117 q 444 379 444 283 q 427 558 444 475 q 361 717 410 642 q 279 385 279 569 q 301 203 279 288 q 369 44 322 119 m 176 811 l 176 950 q 272 988 217 988 q 324 982 296 988 q 382 964 351 976 q 458 947 426 947 q 549 988 504 947 l 549 847 q 463 814 518 814 q 406 822 436 814 q 343 840 375 829 q 269 856 300 856 q 176 811 213 856 m 158 1039 l 158 1167 l 565 1167 l 565 1039 l 158 1039 z "},"Œ":{"ha":893,"x_min":36,"x_max":885,"o":"m 138 0 q 58 192 79 93 q 36 383 36 292 q 60 594 36 496 q 136 769 85 693 l 882 769 l 838 606 l 607 606 l 607 468 l 815 468 l 771 304 l 607 304 l 607 167 l 885 167 l 840 0 l 138 0 m 375 58 l 375 717 q 279 385 279 568 q 301 212 279 300 q 375 58 324 124 z "},"P":{"ha":688,"x_min":61,"x_max":669,"o":"m 61 0 l 61 769 l 567 769 q 617 711 594 751 q 655 621 640 671 q 669 524 669 571 q 642 367 669 442 q 567 238 615 292 l 301 238 l 301 0 l 61 0 m 301 290 q 429 519 429 375 q 394 647 429 593 q 301 717 358 701 l 301 290 z "},"Ṕ":{"ha":688,"x_min":61,"x_max":669,"o":"m 61 0 l 61 769 l 567 769 q 617 711 594 751 q 655 621 640 671 q 669 524 669 571 q 642 367 669 442 q 567 238 615 292 l 301 238 l 301 0 l 61 0 m 301 290 q 429 519 429 375 q 394 647 429 593 q 301 717 358 701 l 301 290 m 515 971 l 439 822 l 215 822 l 292 971 l 515 971 z "},"Ṗ":{"ha":688,"x_min":61,"x_max":669,"o":"m 61 0 l 61 769 l 567 769 q 617 711 594 751 q 655 621 640 671 q 669 524 669 571 q 642 367 669 442 q 567 238 615 292 l 301 238 l 301 0 l 61 0 m 301 290 q 429 519 429 375 q 394 647 429 593 q 301 717 358 701 l 301 290 m 242 822 q 219 901 219 849 q 242 983 219 957 l 431 983 q 449 901 449 960 q 431 822 449 849 l 242 822 z "},"Ƥ":{"ha":688,"x_min":-179,"x_max":669,"o":"m 61 0 l 61 769 l 567 769 q 617 711 594 751 q 655 621 640 671 q 669 524 669 571 q 642 367 669 442 q 567 238 615 292 l 301 238 l 301 0 l 61 0 m 301 290 q 429 519 429 375 q 394 647 429 593 q 301 717 358 701 l 301 290 m -151 485 q -174 543 -169 517 q -179 592 -179 569 q -146 699 -179 660 q -58 753 -112 738 q 61 769 -3 769 l 61 714 q 0 681 22 714 q -22 594 -22 647 q -14 542 -22 571 q 13 485 -6 514 l -151 485 z "},"Þ":{"ha":668,"x_min":61,"x_max":644,"o":"m 61 0 l 61 769 l 301 769 l 301 632 l 564 632 q 622 533 600 597 q 644 394 644 468 q 622 257 644 322 q 564 157 600 192 l 301 157 l 301 0 l 61 0 m 404 394 q 377 509 404 453 q 301 606 350 565 l 301 183 q 377 280 350 224 q 404 394 404 336 z "},"Ᵽ":{"ha":688,"x_min":-1,"x_max":669,"o":"m 61 0 l 61 769 l 567 769 q 617 711 594 751 q 655 621 640 671 q 669 524 669 571 q 642 367 669 442 q 567 238 615 292 l 301 238 l 301 0 l 61 0 m 301 290 q 429 519 429 375 q 394 647 429 593 q 301 717 358 701 l 301 290 m -1 458 l -1 540 l 371 540 l 371 458 l -1 458 z "},"Q":{"ha":722,"x_min":33,"x_max":686,"o":"m 271 -176 q 147 -32 201 -121 q 63 164 93 57 q 33 381 33 271 q 56 590 33 490 q 126 769 79 689 l 599 769 q 665 593 643 685 q 686 386 686 501 q 603 0 686 136 l 393 0 q 460 -86 422 -43 q 547 -174 499 -129 l 546 -176 l 271 -176 m 365 43 q 443 382 443 185 q 424 567 443 486 q 361 717 404 649 q 298 555 318 638 q 278 388 278 472 q 299 204 278 288 q 365 43 319 121 z "},"Ɋ":{"ha":736,"x_min":36,"x_max":736,"o":"m 158 0 q 67 158 99 61 q 36 374 36 256 q 51 536 36 458 q 94 675 67 614 q 158 769 122 736 l 656 769 l 656 -51 q 676 -155 656 -104 q 736 -242 697 -206 l 519 -242 q 444 -160 469 -210 q 418 -60 418 -111 l 418 0 l 158 0 m 274 382 q 293 228 274 300 q 345 106 313 156 q 418 44 378 57 l 418 719 q 312 580 350 668 q 274 382 274 492 z "},"R":{"ha":715,"x_min":61,"x_max":688,"o":"m 61 0 l 61 769 l 578 769 q 637 695 614 743 q 660 597 660 647 q 633 488 660 542 q 553 410 606 435 l 553 407 q 640 326 611 382 q 675 193 669 271 l 688 0 l 443 0 l 431 193 q 297 347 422 338 l 297 0 l 61 0 m 297 414 q 386 472 353 429 q 419 571 419 515 q 385 669 419 628 q 297 717 351 710 l 297 414 z "},"Ŕ":{"ha":715,"x_min":61,"x_max":688,"o":"m 61 0 l 61 769 l 578 769 q 637 695 614 743 q 660 597 660 647 q 633 488 660 542 q 553 410 606 435 l 553 407 q 640 326 611 382 q 675 193 669 271 l 688 0 l 443 0 l 431 193 q 297 347 422 338 l 297 0 l 61 0 m 297 414 q 386 472 353 429 q 419 571 419 515 q 385 669 419 628 q 297 717 351 710 l 297 414 m 529 971 l 453 822 l 229 822 l 306 971 l 529 971 z "},"Ř":{"ha":715,"x_min":61,"x_max":688,"o":"m 61 0 l 61 769 l 578 769 q 637 695 614 743 q 660 597 660 647 q 633 488 660 542 q 553 410 606 435 l 553 407 q 640 326 611 382 q 675 193 669 271 l 688 0 l 443 0 l 431 193 q 297 347 422 338 l 297 0 l 61 0 m 297 414 q 386 472 353 429 q 419 571 419 515 q 385 669 419 628 q 297 717 351 710 l 297 414 m 107 971 l 297 971 l 349 868 l 400 971 l 589 971 l 514 822 l 182 822 l 107 971 z "},"Ŗ":{"ha":715,"x_min":61,"x_max":688,"o":"m 61 0 l 61 769 l 578 769 q 637 695 614 743 q 660 597 660 647 q 633 488 660 542 q 553 410 606 435 l 553 407 q 640 326 611 382 q 675 193 669 271 l 688 0 l 443 0 l 431 193 q 297 347 422 338 l 297 0 l 61 0 m 297 414 q 386 472 353 429 q 419 571 419 515 q 385 669 419 628 q 297 717 351 710 l 297 414 m 308 -303 l 308 -206 l 263 -206 l 263 -58 l 442 -58 q 460 -85 453 -68 q 467 -133 467 -103 q 451 -222 467 -178 q 408 -303 436 -265 l 308 -303 z "},"Ȑ":{"ha":715,"x_min":57,"x_max":688,"o":"m 61 0 l 61 769 l 578 769 q 637 695 614 743 q 660 597 660 647 q 633 488 660 542 q 553 410 606 435 l 553 407 q 640 326 611 382 q 675 193 669 271 l 688 0 l 443 0 l 431 193 q 297 347 422 338 l 297 0 l 61 0 m 297 414 q 386 472 353 429 q 419 571 419 515 q 385 669 419 628 q 297 717 351 710 l 297 414 m 328 822 l 142 822 l 57 982 l 243 982 l 328 822 m 567 822 l 381 822 l 296 982 l 482 982 l 567 822 z "},"Ṙ":{"ha":715,"x_min":61,"x_max":688,"o":"m 61 0 l 61 769 l 578 769 q 637 695 614 743 q 660 597 660 647 q 633 488 660 542 q 553 410 606 435 l 553 407 q 640 326 611 382 q 675 193 669 271 l 688 0 l 443 0 l 431 193 q 297 347 422 338 l 297 0 l 61 0 m 297 414 q 386 472 353 429 q 419 571 419 515 q 385 669 419 628 q 297 717 351 710 l 297 414 m 257 822 q 235 901 235 849 q 257 983 235 957 l 444 983 q 463 901 463 960 q 444 822 463 849 l 257 822 z "},"Ṛ":{"ha":715,"x_min":61,"x_max":688,"o":"m 61 0 l 61 769 l 578 769 q 637 695 614 743 q 660 597 660 647 q 633 488 660 542 q 553 410 606 435 l 553 407 q 640 326 611 382 q 675 193 669 271 l 688 0 l 443 0 l 431 193 q 297 347 422 338 l 297 0 l 61 0 m 297 414 q 386 472 353 429 q 419 571 419 515 q 385 669 419 628 q 297 717 351 710 l 297 414 m 271 -219 q 249 -140 249 -193 q 271 -58 249 -85 l 464 -58 q 482 -140 482 -82 q 464 -219 482 -193 l 271 -219 z "},"Ṝ":{"ha":715,"x_min":61,"x_max":688,"o":"m 61 0 l 61 769 l 578 769 q 637 695 614 743 q 660 597 660 647 q 633 488 660 542 q 553 410 606 435 l 553 407 q 640 326 611 382 q 675 193 669 271 l 688 0 l 443 0 l 431 193 q 297 347 422 338 l 297 0 l 61 0 m 297 414 q 386 472 353 429 q 419 571 419 515 q 385 669 419 628 q 297 717 351 710 l 297 414 m 271 -219 q 249 -140 249 -193 q 271 -58 249 -85 l 464 -58 q 482 -140 482 -82 q 464 -219 482 -193 l 271 -219 m 156 821 l 156 950 l 542 950 l 542 821 l 156 821 z "},"Ȓ":{"ha":715,"x_min":61,"x_max":688,"o":"m 61 0 l 61 769 l 578 769 q 637 695 614 743 q 660 597 660 647 q 633 488 660 542 q 553 410 606 435 l 553 407 q 640 326 611 382 q 675 193 669 271 l 688 0 l 443 0 l 431 193 q 297 347 422 338 l 297 0 l 61 0 m 297 414 q 386 472 353 429 q 419 571 419 515 q 385 669 419 628 q 297 717 351 710 l 297 414 m 144 951 q 242 1003 190 986 q 349 1019 294 1019 q 456 1003 403 1019 q 553 951 508 986 l 553 800 q 349 881 456 881 q 144 800 242 881 l 144 951 z "},"Ṟ":{"ha":715,"x_min":61,"x_max":688,"o":"m 61 0 l 61 769 l 578 769 q 637 695 614 743 q 660 597 660 647 q 633 488 660 542 q 553 410 606 435 l 553 407 q 640 326 611 382 q 675 193 669 271 l 688 0 l 443 0 l 431 193 q 297 347 422 338 l 297 0 l 61 0 m 297 414 q 386 472 353 429 q 419 571 419 515 q 385 669 419 628 q 297 717 351 710 l 297 414 m 172 -187 l 172 -58 l 558 -58 l 558 -187 l 172 -187 z "},"Ɍ":{"ha":715,"x_min":8,"x_max":688,"o":"m 61 0 l 61 339 l 8 339 l 8 421 l 61 421 l 61 769 l 578 769 q 637 695 614 743 q 660 597 660 647 q 633 488 660 542 q 553 410 606 435 l 553 407 q 640 326 611 382 q 675 193 669 271 l 688 0 l 443 0 l 431 193 q 297 347 422 338 l 297 0 l 61 0 m 297 414 q 386 472 353 429 q 419 571 419 515 q 385 669 419 628 q 297 717 351 710 l 297 414 z "},"Ɽ":{"ha":715,"x_min":61,"x_max":688,"o":"m 164 -262 q 61 -58 61 -196 l 61 769 l 578 769 q 637 695 614 743 q 660 597 660 647 q 634 487 660 540 q 568 408 608 433 q 642 328 615 383 q 675 193 669 272 l 688 0 l 443 0 l 431 193 q 297 347 422 338 l 297 -50 q 376 -262 297 -189 l 164 -262 m 297 414 q 386 472 353 429 q 419 571 419 515 q 385 669 419 628 q 297 717 351 710 l 297 414 z "},"S":{"ha":438,"x_min":31,"x_max":407,"o":"m 50 0 l 50 3 q 147 197 147 110 q 141 244 147 221 q 119 301 135 268 q 75 388 103 335 q 31 549 31 472 q 54 659 31 600 q 124 769 78 718 l 383 769 l 383 767 q 310 665 332 710 q 288 572 288 619 q 300 504 288 538 q 340 418 313 471 q 392 308 378 350 q 407 221 407 265 q 388 109 407 161 q 324 0 368 57 l 50 0 z "},"Ś":{"ha":438,"x_min":31,"x_max":407,"o":"m 50 0 l 50 3 q 147 197 147 110 q 141 244 147 221 q 119 301 135 268 q 75 388 103 335 q 31 549 31 472 q 54 659 31 600 q 124 769 78 718 l 383 769 l 383 767 q 310 665 332 710 q 288 572 288 619 q 300 504 288 538 q 340 418 313 471 q 392 308 378 350 q 407 221 407 265 q 388 109 407 161 q 324 0 368 57 l 50 0 m 406 971 l 329 822 l 106 822 l 182 971 l 406 971 z "},"Ṥ":{"ha":438,"x_min":31,"x_max":407,"o":"m 50 0 l 50 3 q 147 197 147 110 q 141 244 147 221 q 119 301 135 268 q 75 388 103 335 q 31 549 31 472 q 54 659 31 600 q 124 769 78 718 l 383 769 l 383 767 q 310 665 332 710 q 288 572 288 619 q 300 504 288 538 q 340 418 313 471 q 392 308 378 350 q 407 221 407 265 q 388 109 407 161 q 324 0 368 57 l 50 0 m 406 971 l 329 822 l 106 822 l 182 971 l 406 971 m 132 1024 q 110 1103 110 1050 q 132 1185 110 1158 l 321 1185 q 339 1103 339 1161 q 321 1024 339 1050 l 132 1024 z "},"Ꞌ":{"ha":289,"x_min":61,"x_max":228,"o":"m 74 279 l 61 769 l 228 769 l 215 279 l 74 279 z "},"Š":{"ha":438,"x_min":-19,"x_max":469,"o":"m 50 0 l 50 3 q 147 197 147 110 q 141 244 147 221 q 119 301 135 268 q 75 388 103 335 q 31 549 31 472 q 54 659 31 600 q 124 769 78 718 l 383 769 l 383 767 q 310 665 332 710 q 288 572 288 619 q 300 504 288 538 q 340 418 313 471 q 392 308 378 350 q 407 221 407 265 q 388 109 407 161 q 324 0 368 57 l 50 0 m -19 983 l 164 983 l 225 871 l 288 983 l 469 983 l 381 822 l 69 822 l -19 983 z "},"Ṧ":{"ha":438,"x_min":-17,"x_max":460,"o":"m 50 0 l 50 3 q 147 197 147 110 q 141 244 147 221 q 119 301 135 268 q 75 388 103 335 q 31 549 31 472 q 54 659 31 600 q 124 769 78 718 l 383 769 l 383 767 q 310 665 332 710 q 288 572 288 619 q 300 504 288 538 q 340 418 313 471 q 392 308 378 350 q 407 221 407 265 q 388 109 407 161 q 324 0 368 57 l 50 0 m -17 953 l 178 953 l 222 875 l 267 953 l 460 953 l 385 822 l 58 822 l -17 953 m 146 1000 q 131 1031 138 1011 q 125 1074 125 1050 q 131 1116 125 1097 q 146 1147 138 1135 l 303 1147 q 324 1072 324 1125 q 303 1000 324 1024 l 146 1000 z "},"Ş":{"ha":438,"x_min":31,"x_max":407,"o":"m 50 0 l 50 3 q 147 197 147 110 q 141 244 147 221 q 119 301 135 268 q 75 388 103 335 q 31 549 31 472 q 54 659 31 600 q 124 769 78 718 l 383 769 l 383 767 q 310 665 332 710 q 288 572 288 619 q 300 504 288 538 q 340 418 313 471 q 392 308 378 350 q 407 221 407 265 q 388 109 407 161 q 324 0 368 57 l 50 0 m 74 -226 q 131 -196 103 -219 q 160 -139 160 -172 q 140 -94 160 -114 q 97 -65 121 -75 l 128 0 l 274 0 l 256 -44 q 314 -78 289 -54 q 339 -143 339 -103 q 327 -188 339 -164 q 288 -232 315 -212 l 74 -232 l 74 -226 z "},"Ŝ":{"ha":438,"x_min":-26,"x_max":476,"o":"m 50 0 l 50 3 q 147 197 147 110 q 141 244 147 221 q 119 301 135 268 q 75 388 103 335 q 31 549 31 472 q 54 659 31 600 q 124 769 78 718 l 383 769 l 383 767 q 310 665 332 710 q 288 572 288 619 q 300 504 288 538 q 340 418 313 471 q 392 308 378 350 q 407 221 407 265 q 388 109 407 161 q 324 0 368 57 l 50 0 m -26 822 l 63 983 l 388 983 l 476 822 l 288 822 l 225 935 l 164 822 l -26 822 z "},"Ș":{"ha":438,"x_min":31,"x_max":407,"o":"m 50 0 l 50 3 q 147 197 147 110 q 141 244 147 221 q 119 301 135 268 q 75 388 103 335 q 31 549 31 472 q 54 659 31 600 q 124 769 78 718 l 383 769 l 383 767 q 310 665 332 710 q 288 572 288 619 q 300 504 288 538 q 340 418 313 471 q 392 308 378 350 q 407 221 407 265 q 388 109 407 161 q 324 0 368 57 l 50 0 m 149 -303 l 149 -206 l 103 -206 l 103 -58 l 282 -58 q 300 -85 293 -68 q 307 -133 307 -103 q 292 -222 307 -178 q 249 -303 276 -265 l 149 -303 z "},"Ṡ":{"ha":438,"x_min":31,"x_max":407,"o":"m 50 0 l 50 3 q 147 197 147 110 q 141 244 147 221 q 119 301 135 268 q 75 388 103 335 q 31 549 31 472 q 54 659 31 600 q 124 769 78 718 l 383 769 l 383 767 q 310 665 332 710 q 288 572 288 619 q 300 504 288 538 q 340 418 313 471 q 392 308 378 350 q 407 221 407 265 q 388 109 407 161 q 324 0 368 57 l 50 0 m 133 822 q 111 901 111 849 q 133 983 111 957 l 321 983 q 339 901 339 960 q 321 822 339 849 l 133 822 z "},"Ṣ":{"ha":438,"x_min":31,"x_max":407,"o":"m 50 0 l 50 3 q 147 197 147 110 q 141 244 147 221 q 119 301 135 268 q 75 388 103 335 q 31 549 31 472 q 54 659 31 600 q 124 769 78 718 l 383 769 l 383 767 q 310 665 332 710 q 288 572 288 619 q 300 504 288 538 q 340 418 313 471 q 392 308 378 350 q 407 221 407 265 q 388 109 407 161 q 324 0 368 57 l 50 0 m 111 -219 q 89 -140 89 -193 q 111 -58 89 -85 l 304 -58 q 322 -140 322 -82 q 304 -219 322 -193 l 111 -219 z "},"Ṩ":{"ha":438,"x_min":31,"x_max":407,"o":"m 50 0 l 50 3 q 147 197 147 110 q 141 244 147 221 q 119 301 135 268 q 75 388 103 335 q 31 549 31 472 q 54 659 31 600 q 124 769 78 718 l 383 769 l 383 767 q 310 665 332 710 q 288 572 288 619 q 300 504 288 538 q 340 418 313 471 q 392 308 378 350 q 407 221 407 265 q 388 109 407 161 q 324 0 368 57 l 50 0 m 111 -219 q 89 -140 89 -193 q 111 -58 89 -85 l 304 -58 q 322 -140 322 -82 q 304 -219 322 -193 l 111 -219 m 133 822 q 111 901 111 849 q 133 983 111 957 l 321 983 q 339 901 339 960 q 321 822 339 849 l 133 822 z "},"ẞ":{"ha":771,"x_min":61,"x_max":732,"o":"m 61 0 l 61 538 q 102 694 61 640 q 213 767 143 747 q 371 786 283 786 q 519 768 436 786 q 699 706 601 750 l 699 660 l 599 453 l 599 450 q 696 358 660 417 q 732 219 732 299 q 706 94 732 154 q 633 0 679 35 l 332 0 q 437 104 406 50 q 468 219 468 158 q 430 338 468 293 q 331 400 392 382 l 331 406 l 458 689 q 411 705 436 701 q 378 708 386 708 q 310 685 324 708 q 297 625 297 661 l 297 0 l 61 0 z "},"Ꞩ":{"ha":426,"x_min":-8,"x_max":438,"o":"m 50 0 l 50 3 q 147 197 147 110 q 131 274 147 232 l 43 194 l -8 250 l 97 344 q 75 388 88 363 q 31 549 31 472 q 54 659 31 600 q 124 769 78 718 l 383 769 l 383 767 q 310 665 332 710 q 288 572 288 619 q 294 522 288 547 l 385 604 l 438 549 l 325 447 q 340 418 332 435 q 392 308 378 350 q 407 221 407 265 q 388 109 407 161 q 324 0 368 57 l 50 0 z "},"T":{"ha":597,"x_min":14,"x_max":597,"o":"m 181 0 l 181 606 l 14 606 l 14 769 l 597 769 l 553 606 l 414 606 l 414 0 l 181 0 z "},"Ŧ":{"ha":597,"x_min":14,"x_max":597,"o":"m 181 0 l 181 606 l 14 606 l 14 769 l 597 769 l 553 606 l 414 606 l 414 0 l 181 0 m 64 343 l 64 425 l 531 425 l 531 343 l 64 343 z "},"Ť":{"ha":597,"x_min":14,"x_max":597,"o":"m 181 0 l 181 606 l 14 606 l 14 769 l 597 769 l 553 606 l 414 606 l 414 0 l 181 0 m 53 983 l 236 983 l 297 871 l 360 983 l 542 983 l 453 822 l 142 822 l 53 983 z "},"Ţ":{"ha":597,"x_min":14,"x_max":597,"o":"m 181 0 l 181 606 l 14 606 l 14 769 l 597 769 l 553 606 l 414 606 l 414 0 l 181 0 m 167 -229 q 225 -196 196 -219 q 254 -139 254 -172 q 235 -94 254 -114 q 192 -65 215 -75 l 222 0 l 361 0 l 343 -44 q 401 -78 376 -54 q 426 -143 426 -103 q 415 -188 426 -164 q 375 -232 403 -212 l 168 -232 l 167 -229 z "},"Ṱ":{"ha":597,"x_min":14,"x_max":597,"o":"m 181 0 l 181 606 l 14 606 l 14 769 l 597 769 l 553 606 l 414 606 l 414 0 l 181 0 m 56 -207 l 131 -58 l 463 -58 l 538 -207 l 349 -207 l 297 -104 l 246 -207 l 56 -207 z "},"Ț":{"ha":597,"x_min":14,"x_max":597,"o":"m 181 0 l 181 606 l 14 606 l 14 769 l 597 769 l 553 606 l 414 606 l 414 0 l 181 0 m 240 -303 l 240 -206 l 194 -206 l 194 -58 l 374 -58 q 392 -85 385 -68 q 399 -133 399 -103 q 383 -222 399 -178 q 340 -303 368 -265 l 240 -303 z "},"Ⱦ":{"ha":597,"x_min":14,"x_max":597,"o":"m 181 0 l 181 606 l 14 606 l 14 769 l 597 769 l 553 606 l 414 606 l 414 0 l 181 0 m 67 -115 l 354 849 l 418 849 l 131 -115 l 67 -115 z "},"Ṫ":{"ha":597,"x_min":14,"x_max":597,"o":"m 181 0 l 181 606 l 14 606 l 14 769 l 597 769 l 553 606 l 414 606 l 414 0 l 181 0 m 206 822 q 183 901 183 849 q 206 983 183 957 l 393 983 q 411 901 411 960 q 393 822 411 849 l 206 822 z "},"Ṭ":{"ha":597,"x_min":14,"x_max":597,"o":"m 181 0 l 181 606 l 14 606 l 14 769 l 597 769 l 553 606 l 414 606 l 414 0 l 181 0 m 203 -219 q 181 -140 181 -193 q 203 -58 181 -85 l 396 -58 q 414 -140 414 -82 q 396 -219 414 -193 l 203 -219 z "},"Ƭ":{"ha":675,"x_min":17,"x_max":675,"o":"m 257 0 l 257 667 q 233 672 246 672 q 189 656 204 672 q 174 594 174 639 q 182 542 174 571 q 208 485 190 514 l 44 485 q 22 543 26 517 q 17 592 17 569 q 50 699 17 660 q 138 753 83 738 q 257 769 193 769 l 675 769 l 631 606 l 492 606 l 492 0 l 257 0 z "},"Ṯ":{"ha":597,"x_min":14,"x_max":597,"o":"m 181 0 l 181 606 l 14 606 l 14 769 l 597 769 l 553 606 l 414 606 l 414 0 l 181 0 m 104 -187 l 104 -58 l 490 -58 l 490 -187 l 104 -187 z "},"Ʈ":{"ha":597,"x_min":14,"x_max":597,"o":"m 414 -46 q 437 -169 414 -115 q 499 -258 460 -222 l 283 -258 q 181 -54 181 -192 l 181 606 l 14 606 l 14 769 l 597 769 l 553 606 l 414 606 l 414 -46 z "},"U":{"ha":728,"x_min":51,"x_max":667,"o":"m 160 0 q 76 126 101 40 q 51 329 51 213 l 51 769 l 292 769 l 292 371 q 324 162 292 243 q 426 44 357 81 l 426 769 l 667 769 l 667 0 l 160 0 z "},"Ú":{"ha":728,"x_min":51,"x_max":667,"o":"m 160 0 q 76 126 101 40 q 51 329 51 213 l 51 769 l 292 769 l 292 371 q 324 162 292 243 q 426 44 357 81 l 426 769 l 667 769 l 667 0 l 160 0 m 539 971 l 463 822 l 239 822 l 315 971 l 539 971 z "},"Ʉ":{"ha":728,"x_min":6,"x_max":714,"o":"m 160 0 q 76 126 101 40 q 51 329 51 213 l 51 343 l 6 343 l 6 425 l 51 425 l 51 769 l 292 769 l 292 425 l 426 425 l 426 769 l 667 769 l 667 425 l 714 425 l 714 343 l 667 343 l 667 0 l 160 0 m 426 44 l 426 343 l 292 343 q 328 152 296 226 q 426 44 361 78 z "},"Ŭ":{"ha":728,"x_min":51,"x_max":667,"o":"m 160 0 q 76 126 101 40 q 51 329 51 213 l 51 769 l 292 769 l 292 371 q 324 162 292 243 q 426 44 357 81 l 426 769 l 667 769 l 667 0 l 160 0 m 154 874 l 154 1025 q 358 944 251 944 q 563 1025 465 944 l 563 874 q 465 822 518 839 q 358 806 413 806 q 252 822 304 806 q 154 874 200 839 z "},"Ǔ":{"ha":728,"x_min":51,"x_max":667,"o":"m 160 0 q 76 126 101 40 q 51 329 51 213 l 51 769 l 292 769 l 292 371 q 324 162 292 243 q 426 44 357 81 l 426 769 l 667 769 l 667 0 l 160 0 m 114 983 l 297 983 l 358 871 l 421 983 l 603 983 l 514 822 l 203 822 l 114 983 z "},"Û":{"ha":728,"x_min":51,"x_max":667,"o":"m 160 0 q 76 126 101 40 q 51 329 51 213 l 51 769 l 292 769 l 292 371 q 324 162 292 243 q 426 44 357 81 l 426 769 l 667 769 l 667 0 l 160 0 m 107 822 l 196 983 l 521 983 l 610 822 l 421 822 l 358 935 l 297 822 l 107 822 z "},"Ṷ":{"ha":728,"x_min":51,"x_max":667,"o":"m 160 0 q 76 126 101 40 q 51 329 51 213 l 51 769 l 292 769 l 292 371 q 324 162 292 243 q 426 44 357 81 l 426 769 l 667 769 l 667 0 l 160 0 m 169 -207 l 244 -58 l 576 -58 l 651 -207 l 463 -207 l 411 -104 l 360 -207 l 169 -207 z "},"Ȕ":{"ha":728,"x_min":51,"x_max":667,"o":"m 160 0 q 76 126 101 40 q 51 329 51 213 l 51 769 l 292 769 l 292 371 q 324 162 292 243 q 426 44 357 81 l 426 769 l 667 769 l 667 0 l 160 0 m 338 822 l 151 822 l 67 982 l 253 982 l 338 822 m 576 822 l 390 822 l 306 982 l 492 982 l 576 822 z "},"Ü":{"ha":728,"x_min":51,"x_max":667,"o":"m 160 0 q 76 126 101 40 q 51 329 51 213 l 51 769 l 292 769 l 292 371 q 324 162 292 243 q 426 44 357 81 l 426 769 l 667 769 l 667 0 l 160 0 m 151 822 q 129 901 129 849 q 151 983 129 957 l 317 983 q 335 901 335 960 q 317 822 335 849 l 151 822 m 403 822 q 381 901 381 849 q 403 983 381 957 l 568 983 q 586 901 586 960 q 568 822 586 849 l 403 822 z "},"Ǘ":{"ha":728,"x_min":51,"x_max":667,"o":"m 160 0 q 76 126 101 40 q 51 329 51 213 l 51 769 l 292 769 l 292 371 q 324 162 292 243 q 426 44 357 81 l 426 769 l 667 769 l 667 0 l 160 0 m 400 824 q 385 854 392 835 q 379 897 379 874 q 385 940 379 921 q 400 971 392 958 l 557 971 q 578 896 578 949 q 557 824 578 847 l 400 824 m 157 824 q 139 897 139 849 q 157 971 139 944 l 315 971 q 335 896 335 950 q 331 854 335 874 q 315 824 326 835 l 157 824 m 524 1149 l 449 1017 l 249 1017 l 324 1149 l 524 1149 z "},"Ṳ":{"ha":728,"x_min":51,"x_max":667,"o":"m 160 0 q 76 126 101 40 q 51 329 51 213 l 51 769 l 292 769 l 292 371 q 324 162 292 243 q 426 44 357 81 l 426 769 l 667 769 l 667 0 l 160 0 m 193 -219 q 171 -140 171 -193 q 193 -58 171 -85 l 358 -58 q 376 -140 376 -82 q 358 -219 376 -193 l 193 -219 m 444 -219 q 422 -140 422 -193 q 444 -58 422 -85 l 610 -58 q 628 -140 628 -82 q 610 -219 628 -193 l 444 -219 z "},"Ǚ":{"ha":728,"x_min":51,"x_max":667,"o":"m 160 0 q 76 126 101 40 q 51 329 51 213 l 51 769 l 292 769 l 292 371 q 324 162 292 243 q 426 44 357 81 l 426 769 l 667 769 l 667 0 l 160 0 m 400 824 q 385 854 392 835 q 379 897 379 874 q 385 940 379 921 q 400 971 392 958 l 557 971 q 578 896 578 949 q 557 824 578 847 l 400 824 m 157 824 q 139 897 139 849 q 157 971 139 944 l 315 971 q 335 896 335 950 q 331 854 335 874 q 315 824 326 835 l 157 824 m 117 1147 l 311 1147 l 356 1069 l 400 1147 l 593 1147 l 518 1017 l 192 1017 l 117 1147 z "},"Ǜ":{"ha":728,"x_min":51,"x_max":667,"o":"m 160 0 q 76 126 101 40 q 51 329 51 213 l 51 769 l 292 769 l 292 371 q 324 162 292 243 q 426 44 357 81 l 426 769 l 667 769 l 667 0 l 160 0 m 400 824 q 385 854 392 835 q 379 897 379 874 q 385 940 379 921 q 400 971 392 958 l 557 971 q 578 896 578 949 q 557 824 578 847 l 400 824 m 157 824 q 139 897 139 849 q 157 971 139 944 l 315 971 q 335 896 335 950 q 331 854 335 874 q 315 824 326 835 l 157 824 m 188 1149 l 388 1149 l 463 1017 l 263 1017 l 188 1149 z "},"Ǖ":{"ha":728,"x_min":51,"x_max":667,"o":"m 160 0 q 76 126 101 40 q 51 329 51 213 l 51 769 l 292 769 l 292 371 q 324 162 292 243 q 426 44 357 81 l 426 769 l 667 769 l 667 0 l 160 0 m 400 824 q 385 854 392 835 q 379 897 379 874 q 385 940 379 921 q 400 971 392 958 l 557 971 q 578 896 578 949 q 557 824 578 847 l 400 824 m 157 824 q 139 897 139 849 q 157 971 139 944 l 315 971 q 335 896 335 950 q 331 854 335 874 q 315 824 326 835 l 157 824 m 164 1017 l 164 1132 l 553 1132 l 553 1017 l 164 1017 z "},"Ụ":{"ha":728,"x_min":51,"x_max":667,"o":"m 160 0 q 76 126 101 40 q 51 329 51 213 l 51 769 l 292 769 l 292 371 q 324 162 292 243 q 426 44 357 81 l 426 769 l 667 769 l 667 0 l 160 0 m 317 -219 q 294 -140 294 -193 q 317 -58 294 -85 l 510 -58 q 528 -140 528 -82 q 510 -219 528 -193 l 317 -219 z "},"Ù":{"ha":728,"x_min":51,"x_max":667,"o":"m 160 0 q 76 126 101 40 q 51 329 51 213 l 51 769 l 292 769 l 292 371 q 324 162 292 243 q 426 44 357 81 l 426 769 l 667 769 l 667 0 l 160 0 m 168 971 l 392 971 l 468 822 l 244 822 l 168 971 z "},"Ủ":{"ha":728,"x_min":51,"x_max":667,"o":"m 160 0 q 76 126 101 40 q 51 329 51 213 l 51 769 l 292 769 l 292 371 q 324 162 292 243 q 426 44 357 81 l 426 769 l 667 769 l 667 0 l 160 0 m 254 821 q 294 914 294 875 q 200 971 294 967 l 200 986 q 288 994 253 992 q 347 997 322 997 q 388 997 367 997 q 429 989 410 996 q 481 921 481 974 q 425 821 481 869 l 254 821 z "},"Ư":{"ha":728,"x_min":51,"x_max":775,"o":"m 160 0 q 76 126 101 40 q 51 329 51 213 l 51 769 l 292 769 l 292 371 q 324 162 292 243 q 426 44 357 81 l 426 769 l 667 769 l 667 0 l 160 0 m 525 721 q 626 867 626 768 q 594 979 626 929 l 596 983 l 775 983 q 751 806 775 874 q 667 706 726 738 l 525 721 z "},"Ứ":{"ha":728,"x_min":51,"x_max":775,"o":"m 160 0 q 76 126 101 40 q 51 329 51 213 l 51 769 l 292 769 l 292 371 q 324 162 292 243 q 426 44 357 81 l 426 769 l 667 769 l 667 0 l 160 0 m 525 721 q 626 867 626 768 q 594 979 626 929 l 596 983 l 775 983 q 751 806 775 874 q 667 706 726 738 l 525 721 m 539 971 l 463 822 l 239 822 l 315 971 l 539 971 z "},"Ự":{"ha":728,"x_min":51,"x_max":775,"o":"m 160 0 q 76 126 101 40 q 51 329 51 213 l 51 769 l 292 769 l 292 371 q 324 162 292 243 q 426 44 357 81 l 426 769 l 667 769 l 667 0 l 160 0 m 525 721 q 626 867 626 768 q 594 979 626 929 l 596 983 l 775 983 q 751 806 775 874 q 667 706 726 738 l 525 721 m 317 -219 q 294 -140 294 -193 q 317 -58 294 -85 l 510 -58 q 528 -140 528 -82 q 510 -219 528 -193 l 317 -219 z "},"Ừ":{"ha":728,"x_min":51,"x_max":775,"o":"m 160 0 q 76 126 101 40 q 51 329 51 213 l 51 769 l 292 769 l 292 371 q 324 162 292 243 q 426 44 357 81 l 426 769 l 667 769 l 667 0 l 160 0 m 525 721 q 626 867 626 768 q 594 979 626 929 l 596 983 l 775 983 q 751 806 775 874 q 667 706 726 738 l 525 721 m 168 971 l 392 971 l 468 822 l 244 822 l 168 971 z "},"Ử":{"ha":728,"x_min":51,"x_max":775,"o":"m 160 0 q 76 126 101 40 q 51 329 51 213 l 51 769 l 292 769 l 292 371 q 324 162 292 243 q 426 44 357 81 l 426 769 l 667 769 l 667 0 l 160 0 m 525 721 q 626 867 626 768 q 594 979 626 929 l 596 983 l 775 983 q 751 806 775 874 q 667 706 726 738 l 525 721 m 254 821 q 294 914 294 875 q 200 971 294 967 l 200 986 q 288 994 253 992 q 347 997 322 997 q 388 997 367 997 q 429 989 410 996 q 481 921 481 974 q 425 821 481 869 l 254 821 z "},"Ữ":{"ha":728,"x_min":51,"x_max":775,"o":"m 160 0 q 76 126 101 40 q 51 329 51 213 l 51 769 l 292 769 l 292 371 q 324 162 292 243 q 426 44 357 81 l 426 769 l 667 769 l 667 0 l 160 0 m 525 721 q 626 867 626 768 q 594 979 626 929 l 596 983 l 775 983 q 751 806 775 874 q 667 706 726 738 l 525 721 m 172 807 l 172 953 q 268 990 213 990 q 319 985 292 990 q 378 967 347 979 q 454 950 422 950 q 544 990 500 950 l 544 843 q 458 810 514 810 q 401 817 432 810 q 339 836 371 825 q 265 851 296 851 q 172 807 208 851 z "},"Ű":{"ha":728,"x_min":51,"x_max":667,"o":"m 160 0 q 76 126 101 40 q 51 329 51 213 l 51 769 l 292 769 l 292 371 q 324 162 292 243 q 426 44 357 81 l 426 769 l 667 769 l 667 0 l 160 0 m 326 822 l 140 822 l 231 971 l 417 971 l 326 822 m 572 822 l 386 822 l 476 971 l 663 971 l 572 822 z "},"Ȗ":{"ha":728,"x_min":51,"x_max":667,"o":"m 160 0 q 76 126 101 40 q 51 329 51 213 l 51 769 l 292 769 l 292 371 q 324 162 292 243 q 426 44 357 81 l 426 769 l 667 769 l 667 0 l 160 0 m 154 951 q 252 1003 200 986 q 358 1019 304 1019 q 465 1003 413 1019 q 563 951 518 986 l 563 800 q 358 881 465 881 q 154 800 251 881 l 154 951 z "},"Ū":{"ha":728,"x_min":51,"x_max":667,"o":"m 160 0 q 76 126 101 40 q 51 329 51 213 l 51 769 l 292 769 l 292 371 q 324 162 292 243 q 426 44 357 81 l 426 769 l 667 769 l 667 0 l 160 0 m 165 821 l 165 950 l 551 950 l 551 821 l 165 821 z "},"Ṻ":{"ha":728,"x_min":51,"x_max":667,"o":"m 160 0 q 76 126 101 40 q 51 329 51 213 l 51 769 l 292 769 l 292 371 q 324 162 292 243 q 426 44 357 81 l 426 769 l 667 769 l 667 0 l 160 0 m 154 824 l 154 942 l 561 942 l 561 824 l 154 824 m 400 996 q 385 1026 392 1007 q 379 1069 379 1046 q 385 1112 379 1093 q 400 1143 392 1131 l 557 1143 q 578 1068 578 1121 q 557 996 578 1019 l 400 996 m 157 996 q 139 1069 139 1021 q 157 1143 139 1117 l 315 1143 q 335 1068 335 1122 q 331 1026 335 1046 q 315 996 326 1007 l 157 996 z "},"Ų":{"ha":728,"x_min":51,"x_max":667,"o":"m 160 0 q 76 126 101 40 q 51 329 51 213 l 51 769 l 292 769 l 292 371 q 324 162 292 243 q 426 44 357 81 l 426 769 l 667 769 l 667 0 l 160 0 m 660 -101 l 660 -242 q 613 -246 635 -246 q 499 -209 544 -246 q 453 -114 453 -172 q 551 0 453 -28 l 667 0 q 606 -28 628 -10 q 583 -72 583 -47 q 596 -100 583 -90 q 626 -110 608 -110 q 660 -101 643 -110 z "},"Ʊ":{"ha":810,"x_min":36,"x_max":774,"o":"m 610 0 l 199 0 q 139 56 174 18 q 77 159 104 93 q 50 325 50 225 q 65 463 50 406 q 97 563 81 519 q 113 643 113 606 q 97 703 113 675 q 36 769 81 732 l 321 769 q 360 721 349 743 q 371 675 371 699 q 351 592 371 638 q 310 485 331 546 q 290 342 290 425 q 304 233 290 278 q 338 156 318 188 q 376 103 357 125 q 404 61 394 81 q 430 99 411 76 q 469 153 449 121 q 505 233 490 186 q 519 346 519 281 q 499 486 519 426 q 458 592 479 546 q 438 675 438 638 q 449 721 438 699 q 489 769 461 743 l 774 769 q 713 703 729 732 q 696 643 696 675 q 712 563 696 606 q 744 463 728 519 q 760 325 760 406 q 733 159 760 225 q 670 56 706 93 q 610 0 635 18 z "},"Ů":{"ha":728,"x_min":51,"x_max":667,"o":"m 160 0 q 76 126 101 40 q 51 329 51 213 l 51 769 l 292 769 l 292 371 q 324 162 292 243 q 426 44 357 81 l 426 769 l 667 769 l 667 0 l 160 0 m 183 989 l 533 989 q 558 951 550 975 q 567 901 567 926 q 558 854 567 876 q 533 819 550 832 l 183 819 q 158 854 167 832 q 150 901 150 876 q 158 951 150 926 q 183 989 167 975 m 328 907 q 358 838 328 869 q 389 907 389 869 q 358 972 389 944 q 328 907 328 944 z "},"Ũ":{"ha":728,"x_min":51,"x_max":667,"o":"m 160 0 q 76 126 101 40 q 51 329 51 213 l 51 769 l 292 769 l 292 371 q 324 162 292 243 q 426 44 357 81 l 426 769 l 667 769 l 667 0 l 160 0 m 172 807 l 172 953 q 268 990 213 990 q 319 985 292 990 q 378 967 347 979 q 454 950 422 950 q 544 990 500 950 l 544 843 q 458 810 514 810 q 401 817 432 810 q 339 836 371 825 q 265 851 296 851 q 172 807 208 851 z "},"Ṹ":{"ha":728,"x_min":51,"x_max":667,"o":"m 160 0 q 76 126 101 40 q 51 329 51 213 l 51 769 l 292 769 l 292 371 q 324 162 292 243 q 426 44 357 81 l 426 769 l 667 769 l 667 0 l 160 0 m 172 811 l 172 950 q 268 988 213 988 q 319 982 292 988 q 378 964 347 976 q 454 947 422 947 q 544 988 500 947 l 544 847 q 458 814 514 814 q 401 822 432 814 q 339 840 371 829 q 265 856 296 856 q 172 811 208 856 m 539 1189 l 463 1040 l 239 1040 l 315 1189 l 539 1189 z "},"Ṵ":{"ha":728,"x_min":51,"x_max":667,"o":"m 160 0 q 76 126 101 40 q 51 329 51 213 l 51 769 l 292 769 l 292 371 q 324 162 292 243 q 426 44 357 81 l 426 769 l 667 769 l 667 0 l 160 0 m 225 -232 l 225 -86 q 321 -49 265 -49 q 372 -54 344 -49 q 431 -72 400 -60 q 507 -89 475 -89 q 597 -49 553 -89 l 597 -196 q 511 -229 567 -229 q 454 -222 485 -229 q 392 -203 424 -214 q 318 -187 349 -187 q 225 -232 261 -187 z "},"V":{"ha":704,"x_min":25,"x_max":671,"o":"m 106 0 l 25 769 l 264 769 l 340 44 q 384 131 368 74 q 406 279 400 188 l 435 769 l 671 769 l 643 285 q 630 159 639 211 q 603 70 621 107 q 558 0 586 33 l 106 0 z "},"Ɣ":{"ha":861,"x_min":0,"x_max":861,"o":"m 235 -242 q 166 -172 186 -212 q 146 -85 146 -132 q 169 34 146 -28 q 226 151 193 96 l 297 269 l 0 769 l 265 769 l 431 493 l 596 769 l 861 769 l 564 269 l 635 151 q 692 34 668 96 q 715 -85 715 -28 q 695 -172 715 -132 q 626 -242 675 -212 l 235 -242 m 386 -86 q 431 -179 386 -137 q 475 -86 475 -137 q 463 -26 475 -58 q 431 43 451 6 q 398 -26 410 6 q 386 -86 386 -58 z "},"Ṿ":{"ha":704,"x_min":25,"x_max":671,"o":"m 106 0 l 25 769 l 264 769 l 340 44 q 384 131 368 74 q 406 279 400 188 l 435 769 l 671 769 l 643 285 q 630 159 639 211 q 603 70 621 107 q 558 0 586 33 l 106 0 m 256 -219 q 233 -140 233 -193 q 256 -58 233 -85 l 449 -58 q 467 -140 467 -82 q 449 -219 467 -193 l 256 -219 z "},"Ʋ":{"ha":689,"x_min":25,"x_max":656,"o":"m 558 0 l 106 0 l 25 769 l 264 769 l 340 44 q 383 110 371 68 q 400 206 396 153 l 418 417 q 424 492 422 464 q 425 542 425 519 q 409 677 425 626 q 336 768 393 728 l 560 768 q 611 724 590 749 q 644 658 632 699 q 656 549 656 618 q 654 494 656 526 q 646 397 653 463 l 626 183 q 604 65 619 107 q 558 0 589 24 z "},"Ṽ":{"ha":704,"x_min":25,"x_max":671,"o":"m 106 0 l 25 769 l 264 769 l 340 44 q 384 131 368 74 q 406 279 400 188 l 435 769 l 671 769 l 643 285 q 630 159 639 211 q 603 70 621 107 q 558 0 586 33 l 106 0 m 174 807 l 174 953 q 269 990 214 990 q 321 985 293 990 q 379 967 349 979 q 456 950 424 950 q 546 990 501 950 l 546 843 q 460 810 515 810 q 403 817 433 810 q 340 836 372 825 q 267 851 297 851 q 174 807 210 851 z "},"Ʌ":{"ha":704,"x_min":33,"x_max":679,"o":"m 599 769 l 679 0 l 440 0 l 364 725 q 320 639 336 696 q 299 490 304 582 l 269 0 l 33 0 l 61 485 q 74 611 65 560 q 101 700 83 663 q 146 769 118 738 l 599 769 z "},"W":{"ha":1064,"x_min":38,"x_max":1025,"o":"m 140 0 l 38 769 l 278 769 l 375 47 l 376 47 q 435 276 440 122 l 418 769 l 657 769 l 671 276 q 670 135 674 188 q 651 47 667 82 l 653 46 q 738 155 715 94 q 765 310 760 215 l 789 769 l 1025 769 l 999 281 q 985 142 994 193 q 957 61 975 92 q 907 0 939 31 l 140 0 z "},"Ẃ":{"ha":1064,"x_min":38,"x_max":1025,"o":"m 140 0 l 38 769 l 278 769 l 375 47 l 376 47 q 435 276 440 122 l 418 769 l 657 769 l 671 276 q 670 135 674 188 q 651 47 667 82 l 653 46 q 738 155 715 94 q 765 310 760 215 l 789 769 l 1025 769 l 999 281 q 985 142 994 193 q 957 61 975 92 q 907 0 939 31 l 140 0 m 721 971 l 644 822 l 421 822 l 497 971 l 721 971 z "},"Ŵ":{"ha":1064,"x_min":38,"x_max":1025,"o":"m 140 0 l 38 769 l 278 769 l 375 47 l 376 47 q 435 276 440 122 l 418 769 l 657 769 l 671 276 q 670 135 674 188 q 651 47 667 82 l 653 46 q 738 155 715 94 q 765 310 760 215 l 789 769 l 1025 769 l 999 281 q 985 142 994 193 q 957 61 975 92 q 907 0 939 31 l 140 0 m 289 822 l 378 983 l 703 983 l 792 822 l 603 822 l 540 935 l 479 822 l 289 822 z "},"Ẅ":{"ha":1064,"x_min":38,"x_max":1025,"o":"m 140 0 l 38 769 l 278 769 l 375 47 l 376 47 q 435 276 440 122 l 418 769 l 657 769 l 671 276 q 670 135 674 188 q 651 47 667 82 l 653 46 q 738 155 715 94 q 765 310 760 215 l 789 769 l 1025 769 l 999 281 q 985 142 994 193 q 957 61 975 92 q 907 0 939 31 l 140 0 m 333 822 q 311 901 311 849 q 333 983 311 957 l 499 983 q 517 901 517 960 q 499 822 517 849 l 333 822 m 585 822 q 563 901 563 849 q 585 983 563 957 l 750 983 q 768 901 768 960 q 750 822 768 849 l 585 822 z "},"Ẇ":{"ha":1064,"x_min":38,"x_max":1025,"o":"m 140 0 l 38 769 l 278 769 l 375 47 l 376 47 q 435 276 440 122 l 418 769 l 657 769 l 671 276 q 670 135 674 188 q 651 47 667 82 l 653 46 q 738 155 715 94 q 765 310 760 215 l 789 769 l 1025 769 l 999 281 q 985 142 994 193 q 957 61 975 92 q 907 0 939 31 l 140 0 m 449 822 q 426 901 426 849 q 449 983 426 957 l 636 983 q 654 901 654 960 q 636 822 654 849 l 449 822 z "},"Ẉ":{"ha":1064,"x_min":38,"x_max":1025,"o":"m 140 0 l 38 769 l 278 769 l 375 47 l 376 47 q 435 276 440 122 l 418 769 l 657 769 l 671 276 q 670 135 674 188 q 651 47 667 82 l 653 46 q 738 155 715 94 q 765 310 760 215 l 789 769 l 1025 769 l 999 281 q 985 142 994 193 q 957 61 975 92 q 907 0 939 31 l 140 0 m 439 -219 q 417 -140 417 -193 q 439 -58 417 -85 l 632 -58 q 650 -140 650 -82 q 632 -219 650 -193 l 439 -219 z "},"Ẁ":{"ha":1064,"x_min":38,"x_max":1025,"o":"m 140 0 l 38 769 l 278 769 l 375 47 l 376 47 q 435 276 440 122 l 418 769 l 657 769 l 671 276 q 670 135 674 188 q 651 47 667 82 l 653 46 q 738 155 715 94 q 765 310 760 215 l 789 769 l 1025 769 l 999 281 q 985 142 994 193 q 957 61 975 92 q 907 0 939 31 l 140 0 m 350 971 l 574 971 l 650 822 l 426 822 l 350 971 z "},"Ⱳ":{"ha":1079,"x_min":38,"x_max":1093,"o":"m 140 0 l 38 769 l 278 769 l 375 47 l 376 47 q 435 276 440 122 l 418 769 l 657 769 l 671 276 q 670 135 674 188 q 651 47 667 82 l 653 46 q 715 115 694 78 q 744 199 736 151 q 754 310 751 247 l 758 413 q 765 510 761 478 q 771 563 768 542 q 797 670 781 631 q 833 732 814 710 q 869 768 851 754 l 1093 768 q 1033 660 1053 713 q 1001 524 1013 607 q 995 464 999 501 q 990 399 992 426 l 985 281 q 975 151 982 203 q 952 65 968 100 q 904 0 936 31 l 140 0 z "},"X":{"ha":688,"x_min":19,"x_max":681,"o":"m 19 0 l 83 361 l 218 361 l 218 367 q 107 478 149 421 q 47 606 65 535 q 29 769 29 676 l 275 769 q 283 667 275 708 q 310 592 290 625 q 367 522 329 558 l 417 769 l 651 769 l 583 438 l 479 438 l 479 433 q 594 322 551 382 q 658 185 638 263 q 681 0 679 107 l 432 0 q 404 176 432 108 q 313 294 376 243 l 260 0 l 19 0 z "},"Ẍ":{"ha":688,"x_min":19,"x_max":681,"o":"m 19 0 l 83 361 l 218 361 l 218 367 q 107 478 149 421 q 47 606 65 535 q 29 769 29 676 l 275 769 q 283 667 275 708 q 310 592 290 625 q 367 522 329 558 l 417 769 l 651 769 l 583 438 l 479 438 l 479 433 q 594 322 551 382 q 658 185 638 263 q 681 0 679 107 l 432 0 q 404 176 432 108 q 313 294 376 243 l 260 0 l 19 0 m 124 822 q 101 901 101 849 q 124 983 101 957 l 289 983 q 307 901 307 960 q 289 822 307 849 l 124 822 m 375 822 q 353 901 353 849 q 375 983 353 957 l 540 983 q 558 901 558 960 q 540 822 558 849 l 375 822 z "},"Ẋ":{"ha":688,"x_min":19,"x_max":681,"o":"m 19 0 l 83 361 l 218 361 l 218 367 q 107 478 149 421 q 47 606 65 535 q 29 769 29 676 l 275 769 q 283 667 275 708 q 310 592 290 625 q 367 522 329 558 l 417 769 l 651 769 l 583 438 l 479 438 l 479 433 q 594 322 551 382 q 658 185 638 263 q 681 0 679 107 l 432 0 q 404 176 432 108 q 313 294 376 243 l 260 0 l 19 0 m 239 822 q 217 901 217 849 q 239 983 217 957 l 426 983 q 444 901 444 960 q 426 822 444 849 l 239 822 z "},"Y":{"ha":656,"x_min":25,"x_max":619,"o":"m 176 0 l 174 3 q 274 129 235 74 q 335 235 313 185 l 333 238 l 111 238 q 49 357 72 276 q 25 529 25 438 l 25 769 l 258 769 l 258 571 q 285 402 258 474 q 358 294 311 331 q 377 379 371 335 q 383 479 383 424 l 383 769 l 619 769 l 619 446 q 601 281 619 364 q 549 125 583 197 q 469 0 515 53 l 176 0 z "},"Ý":{"ha":656,"x_min":25,"x_max":619,"o":"m 176 0 l 174 3 q 274 129 235 74 q 335 235 313 185 l 333 238 l 111 238 q 49 357 72 276 q 25 529 25 438 l 25 769 l 258 769 l 258 571 q 285 402 258 474 q 358 294 311 331 q 377 379 371 335 q 383 479 383 424 l 383 769 l 619 769 l 619 446 q 601 281 619 364 q 549 125 583 197 q 469 0 515 53 l 176 0 m 503 971 l 426 822 l 203 822 l 279 971 l 503 971 z "},"Ŷ":{"ha":656,"x_min":25,"x_max":619,"o":"m 176 0 l 174 3 q 274 129 235 74 q 335 235 313 185 l 333 238 l 111 238 q 49 357 72 276 q 25 529 25 438 l 25 769 l 258 769 l 258 571 q 285 402 258 474 q 358 294 311 331 q 377 379 371 335 q 383 479 383 424 l 383 769 l 619 769 l 619 446 q 601 281 619 364 q 549 125 583 197 q 469 0 515 53 l 176 0 m 71 822 l 160 983 l 485 983 l 574 822 l 385 822 l 322 935 l 261 822 l 71 822 z "},"Ÿ":{"ha":656,"x_min":25,"x_max":619,"o":"m 176 0 l 174 3 q 274 129 235 74 q 335 235 313 185 l 333 238 l 111 238 q 49 357 72 276 q 25 529 25 438 l 25 769 l 258 769 l 258 571 q 285 402 258 474 q 358 294 311 331 q 377 379 371 335 q 383 479 383 424 l 383 769 l 619 769 l 619 446 q 601 281 619 364 q 549 125 583 197 q 469 0 515 53 l 176 0 m 115 822 q 93 901 93 849 q 115 983 93 957 l 281 983 q 299 901 299 960 q 281 822 299 849 l 115 822 m 367 822 q 344 901 344 849 q 367 983 344 957 l 532 983 q 550 901 550 960 q 532 822 550 849 l 367 822 z "},"Ẏ":{"ha":656,"x_min":25,"x_max":619,"o":"m 176 0 l 174 3 q 274 129 235 74 q 335 235 313 185 l 333 238 l 111 238 q 49 357 72 276 q 25 529 25 438 l 25 769 l 258 769 l 258 571 q 285 402 258 474 q 358 294 311 331 q 377 379 371 335 q 383 479 383 424 l 383 769 l 619 769 l 619 446 q 601 281 619 364 q 549 125 583 197 q 469 0 515 53 l 176 0 m 231 822 q 208 901 208 849 q 231 983 208 957 l 418 983 q 436 901 436 960 q 418 822 436 849 l 231 822 z "},"Ỵ":{"ha":656,"x_min":25,"x_max":619,"o":"m 176 0 l 174 3 q 274 129 235 74 q 335 235 313 185 l 333 238 l 111 238 q 49 357 72 276 q 25 529 25 438 l 25 769 l 258 769 l 258 571 q 285 402 258 474 q 358 294 311 331 q 377 379 371 335 q 383 479 383 424 l 383 769 l 619 769 l 619 446 q 601 281 619 364 q 549 125 583 197 q 469 0 515 53 l 176 0 m 233 -219 q 211 -140 211 -193 q 233 -58 211 -85 l 426 -58 q 444 -140 444 -82 q 426 -219 444 -193 l 233 -219 z "},"Ỳ":{"ha":656,"x_min":25,"x_max":619,"o":"m 176 0 l 174 3 q 274 129 235 74 q 335 235 313 185 l 333 238 l 111 238 q 49 357 72 276 q 25 529 25 438 l 25 769 l 258 769 l 258 571 q 285 402 258 474 q 358 294 311 331 q 377 379 371 335 q 383 479 383 424 l 383 769 l 619 769 l 619 446 q 601 281 619 364 q 549 125 583 197 q 469 0 515 53 l 176 0 m 132 971 l 356 971 l 432 822 l 208 822 l 132 971 z "},"Ƴ":{"ha":656,"x_min":-36,"x_max":619,"o":"m 278 525 q 284 444 278 488 q 308 360 290 400 q 358 294 325 321 q 377 381 371 336 q 383 479 383 426 l 383 769 l 619 769 l 619 426 q 601 272 619 351 q 548 121 582 192 q 469 0 514 50 l 176 0 l 174 3 q 274 131 236 76 q 335 235 313 186 l 333 238 l 111 238 q 54 361 69 279 q 39 529 39 443 q 24 680 39 615 q -36 765 8 744 l -36 769 l 176 769 q 257 680 236 736 q 278 525 278 624 z "},"Ỷ":{"ha":656,"x_min":25,"x_max":619,"o":"m 176 0 l 174 3 q 274 129 235 74 q 335 235 313 185 l 333 238 l 111 238 q 49 357 72 276 q 25 529 25 438 l 25 769 l 258 769 l 258 571 q 285 402 258 474 q 358 294 311 331 q 377 379 371 335 q 383 479 383 424 l 383 769 l 619 769 l 619 446 q 601 281 619 364 q 549 125 583 197 q 469 0 515 53 l 176 0 m 218 821 q 258 914 258 875 q 164 971 258 967 l 164 986 q 251 994 217 992 q 311 997 286 997 q 352 997 331 997 q 393 989 374 996 q 444 921 444 974 q 389 821 444 869 l 218 821 z "},"Ȳ":{"ha":656,"x_min":25,"x_max":619,"o":"m 176 0 l 174 3 q 274 129 235 74 q 335 235 313 185 l 333 238 l 111 238 q 49 357 72 276 q 25 529 25 438 l 25 769 l 258 769 l 258 571 q 285 402 258 474 q 358 294 311 331 q 377 379 371 335 q 383 479 383 424 l 383 769 l 619 769 l 619 446 q 601 281 619 364 q 549 125 583 197 q 469 0 515 53 l 176 0 m 129 821 l 129 950 l 515 950 l 515 821 l 129 821 z "},"Ɏ":{"ha":656,"x_min":-19,"x_max":667,"o":"m 176 0 l 174 3 q 274 129 235 74 q 335 235 313 185 l 333 238 l 111 238 q 49 357 72 276 q 25 529 25 438 l 25 769 l 258 769 l 258 571 q 285 402 258 474 q 358 294 311 331 q 377 379 371 335 q 383 479 383 424 l 383 769 l 619 769 l 619 446 q 601 281 619 364 q 549 125 583 197 q 469 0 515 53 l 176 0 m -19 489 l -19 571 l 667 571 l 667 489 l -19 489 z "},"Ỹ":{"ha":656,"x_min":25,"x_max":619,"o":"m 176 0 l 174 3 q 274 129 235 74 q 335 235 313 185 l 333 238 l 111 238 q 49 357 72 276 q 25 529 25 438 l 25 769 l 258 769 l 258 571 q 285 402 258 474 q 358 294 311 331 q 377 379 371 335 q 383 479 383 424 l 383 769 l 619 769 l 619 446 q 601 281 619 364 q 549 125 583 197 q 469 0 515 53 l 176 0 m 136 807 l 136 953 q 232 990 176 990 q 283 985 256 990 q 342 967 311 979 q 418 950 386 950 q 508 990 464 950 l 508 843 q 422 810 478 810 q 365 817 396 810 q 303 836 335 825 q 229 851 260 851 q 136 807 172 851 z "},"Z":{"ha":578,"x_min":1,"x_max":576,"o":"m 1 0 l 250 603 l 3 603 l 49 769 l 576 769 l 328 167 l 572 167 l 526 0 l 1 0 z "},"Ź":{"ha":578,"x_min":1,"x_max":576,"o":"m 1 0 l 250 603 l 3 603 l 49 769 l 576 769 l 328 167 l 572 167 l 526 0 l 1 0 m 469 971 l 393 822 l 169 822 l 246 971 l 469 971 z "},"Ž":{"ha":578,"x_min":1,"x_max":576,"o":"m 1 0 l 250 603 l 3 603 l 49 769 l 576 769 l 328 167 l 572 167 l 526 0 l 1 0 m 44 983 l 228 983 l 289 871 l 351 983 l 533 983 l 444 822 l 133 822 l 44 983 z "},"Ẑ":{"ha":578,"x_min":1,"x_max":576,"o":"m 1 0 l 250 603 l 3 603 l 49 769 l 576 769 l 328 167 l 572 167 l 526 0 l 1 0 m 38 822 l 126 983 l 451 983 l 540 822 l 351 822 l 289 935 l 228 822 l 38 822 z "},"Ż":{"ha":578,"x_min":1,"x_max":576,"o":"m 1 0 l 250 603 l 3 603 l 49 769 l 576 769 l 328 167 l 572 167 l 526 0 l 1 0 m 197 822 q 175 901 175 849 q 197 983 175 957 l 385 983 q 403 901 403 960 q 385 822 403 849 l 197 822 z "},"Ẓ":{"ha":578,"x_min":1,"x_max":576,"o":"m 1 0 l 250 603 l 3 603 l 49 769 l 576 769 l 328 167 l 572 167 l 526 0 l 1 0 m 194 -219 q 172 -140 172 -193 q 194 -58 172 -85 l 388 -58 q 406 -140 406 -82 q 388 -219 406 -193 l 194 -219 z "},"Ẕ":{"ha":578,"x_min":1,"x_max":576,"o":"m 1 0 l 250 603 l 3 603 l 49 769 l 576 769 l 328 167 l 572 167 l 526 0 l 1 0 m 96 -187 l 96 -58 l 482 -58 l 482 -187 l 96 -187 z "},"Ƶ":{"ha":578,"x_min":1,"x_max":576,"o":"m 1 0 l 250 603 l 3 603 l 49 769 l 576 769 l 328 167 l 572 167 l 526 0 l 1 0 m 24 343 l 24 425 l 554 425 l 554 343 l 24 343 z "},"ɪ":{"ha":447,"x_min":42,"x_max":406,"o":"m 42 0 l 42 83 l 103 83 l 103 472 l 42 472 l 42 556 l 406 556 l 406 472 l 343 472 l 343 83 l 406 83 l 406 0 l 42 0 z "},"ᵻ":{"ha":447,"x_min":38,"x_max":410,"o":"m 42 0 l 42 83 l 103 83 l 103 472 l 42 472 l 42 556 l 406 556 l 406 472 l 343 472 l 343 83 l 406 83 l 406 0 l 42 0 m 38 236 l 38 318 l 410 318 l 410 236 l 38 236 z "},"a":{"ha":640,"x_min":19,"x_max":597,"o":"m 100 0 q 37 91 54 38 q 19 193 19 144 q 40 308 19 253 q 100 390 61 364 l 349 390 q 318 479 338 439 q 272 553 299 519 l 272 556 l 549 556 q 583 462 568 525 q 597 333 597 399 l 597 0 l 100 0 m 360 46 l 360 285 q 359 313 360 300 q 357 339 358 326 q 288 285 318 321 q 257 197 257 250 q 283 108 257 151 q 360 46 308 65 z "},"á":{"ha":640,"x_min":19,"x_max":597,"o":"m 100 0 q 37 91 54 38 q 19 193 19 144 q 40 308 19 253 q 100 390 61 364 l 349 390 q 318 479 338 439 q 272 553 299 519 l 272 556 l 549 556 q 583 462 568 525 q 597 333 597 399 l 597 0 l 100 0 m 360 46 l 360 285 q 359 313 360 300 q 357 339 358 326 q 288 285 318 321 q 257 197 257 250 q 283 108 257 151 q 360 46 308 65 m 556 769 l 467 608 l 242 608 l 331 769 l 556 769 z "},"ă":{"ha":640,"x_min":19,"x_max":597,"o":"m 100 0 q 37 91 54 38 q 19 193 19 144 q 40 308 19 253 q 100 390 61 364 l 349 390 q 318 479 338 439 q 272 553 299 519 l 272 556 l 549 556 q 583 462 568 525 q 597 333 597 399 l 597 0 l 100 0 m 360 46 l 360 285 q 359 313 360 300 q 357 339 358 326 q 288 285 318 321 q 257 197 257 250 q 283 108 257 151 q 360 46 308 65 m 174 660 l 174 811 q 378 731 271 731 q 582 811 485 731 l 582 660 q 485 608 538 625 q 378 592 432 592 q 272 608 324 592 q 174 660 219 625 z "},"ắ":{"ha":640,"x_min":19,"x_max":597,"o":"m 100 0 q 37 91 54 38 q 19 193 19 144 q 40 308 19 253 q 100 390 61 364 l 349 390 q 318 479 338 439 q 272 553 299 519 l 272 556 l 549 556 q 583 462 568 525 q 597 333 597 399 l 597 0 l 100 0 m 360 46 l 360 285 q 359 313 360 300 q 357 339 358 326 q 288 285 318 321 q 257 197 257 250 q 283 108 257 151 q 360 46 308 65 m 174 660 l 174 804 q 378 724 271 724 q 582 804 485 724 l 582 660 q 485 608 538 625 q 378 592 432 592 q 272 608 324 592 q 174 660 219 625 m 267 800 l 335 925 l 542 925 l 475 800 l 267 800 z "},"ặ":{"ha":640,"x_min":19,"x_max":597,"o":"m 100 0 q 37 91 54 38 q 19 193 19 144 q 40 308 19 253 q 100 390 61 364 l 349 390 q 318 479 338 439 q 272 553 299 519 l 272 556 l 549 556 q 583 462 568 525 q 597 333 597 399 l 597 0 l 100 0 m 360 46 l 360 285 q 359 313 360 300 q 357 339 358 326 q 288 285 318 321 q 257 197 257 250 q 283 108 257 151 q 360 46 308 65 m 263 -219 q 240 -140 240 -193 q 263 -58 240 -85 l 456 -58 q 474 -140 474 -82 q 456 -219 474 -193 l 263 -219 m 174 660 l 174 811 q 378 731 271 731 q 582 811 485 731 l 582 660 q 485 608 538 625 q 378 592 432 592 q 272 608 324 592 q 174 660 219 625 z "},"ằ":{"ha":640,"x_min":19,"x_max":597,"o":"m 100 0 q 37 91 54 38 q 19 193 19 144 q 40 308 19 253 q 100 390 61 364 l 349 390 q 318 479 338 439 q 272 553 299 519 l 272 556 l 549 556 q 583 462 568 525 q 597 333 597 399 l 597 0 l 100 0 m 360 46 l 360 285 q 359 313 360 300 q 357 339 358 326 q 288 285 318 321 q 257 197 257 250 q 283 108 257 151 q 360 46 308 65 m 174 660 l 174 804 q 378 724 271 724 q 582 804 485 724 l 582 660 q 485 608 538 625 q 378 592 432 592 q 272 608 324 592 q 174 660 219 625 m 486 800 l 278 800 l 211 925 l 418 925 l 486 800 z "},"ẳ":{"ha":640,"x_min":19,"x_max":597,"o":"m 100 0 q 37 91 54 38 q 19 193 19 144 q 40 308 19 253 q 100 390 61 364 l 349 390 q 318 479 338 439 q 272 553 299 519 l 272 556 l 549 556 q 583 462 568 525 q 597 333 597 399 l 597 0 l 100 0 m 360 46 l 360 285 q 359 313 360 300 q 357 339 358 326 q 288 285 318 321 q 257 197 257 250 q 283 108 257 151 q 360 46 308 65 m 174 660 l 174 804 q 378 724 271 724 q 582 804 485 724 l 582 660 q 485 608 538 625 q 378 592 432 592 q 272 608 324 592 q 174 660 219 625 m 283 800 q 313 848 303 824 q 322 889 322 872 q 232 946 322 942 l 232 958 q 316 967 282 964 q 374 969 350 969 q 413 969 393 969 q 451 961 433 968 q 501 896 501 946 q 449 800 501 846 l 283 800 z "},"ẵ":{"ha":640,"x_min":19,"x_max":597,"o":"m 100 0 q 37 91 54 38 q 19 193 19 144 q 40 308 19 253 q 100 390 61 364 l 349 390 q 318 479 338 439 q 272 553 299 519 l 272 556 l 549 556 q 583 462 568 525 q 597 333 597 399 l 597 0 l 100 0 m 360 46 l 360 285 q 359 313 360 300 q 357 339 358 326 q 288 285 318 321 q 257 197 257 250 q 283 108 257 151 q 360 46 308 65 m 174 660 l 174 804 q 378 724 271 724 q 582 804 485 724 l 582 660 q 485 608 538 625 q 378 592 432 592 q 272 608 324 592 q 174 660 219 625 m 218 785 l 218 917 q 301 954 254 954 q 396 931 340 954 q 463 914 436 914 q 540 954 501 914 l 540 821 q 465 788 514 788 q 417 796 443 788 q 363 814 390 804 q 328 825 344 821 q 297 829 313 829 q 218 785 247 829 z "},"ǎ":{"ha":640,"x_min":19,"x_max":622,"o":"m 100 0 q 37 91 54 38 q 19 193 19 144 q 40 308 19 253 q 100 390 61 364 l 349 390 q 318 479 338 439 q 272 553 299 519 l 272 556 l 549 556 q 583 462 568 525 q 597 333 597 399 l 597 0 l 100 0 m 360 46 l 360 285 q 359 313 360 300 q 357 339 358 326 q 288 285 318 321 q 257 197 257 250 q 283 108 257 151 q 360 46 308 65 m 133 769 l 317 769 l 378 657 l 440 769 l 622 769 l 533 608 l 222 608 l 133 769 z "},"â":{"ha":640,"x_min":19,"x_max":629,"o":"m 100 0 q 37 91 54 38 q 19 193 19 144 q 40 308 19 253 q 100 390 61 364 l 349 390 q 318 479 338 439 q 272 553 299 519 l 272 556 l 549 556 q 583 462 568 525 q 597 333 597 399 l 597 0 l 100 0 m 360 46 l 360 285 q 359 313 360 300 q 357 339 358 326 q 288 285 318 321 q 257 197 257 250 q 283 108 257 151 q 360 46 308 65 m 126 608 l 215 769 l 540 769 l 629 608 l 440 608 l 378 721 l 317 608 l 126 608 z "},"ấ":{"ha":640,"x_min":19,"x_max":622,"o":"m 100 0 q 37 91 54 38 q 19 193 19 144 q 40 308 19 253 q 100 390 61 364 l 349 390 q 318 479 338 439 q 272 553 299 519 l 272 556 l 549 556 q 583 462 568 525 q 597 333 597 399 l 597 0 l 100 0 m 360 46 l 360 285 q 359 313 360 300 q 357 339 358 326 q 288 285 318 321 q 257 197 257 250 q 283 108 257 151 q 360 46 308 65 m 133 608 l 222 749 l 533 749 l 622 608 l 440 608 l 378 707 l 317 608 l 133 608 m 267 801 l 335 926 l 542 926 l 475 801 l 267 801 z "},"ậ":{"ha":640,"x_min":19,"x_max":629,"o":"m 100 0 q 37 91 54 38 q 19 193 19 144 q 40 308 19 253 q 100 390 61 364 l 349 390 q 318 479 338 439 q 272 553 299 519 l 272 556 l 549 556 q 583 462 568 525 q 597 333 597 399 l 597 0 l 100 0 m 360 46 l 360 285 q 359 313 360 300 q 357 339 358 326 q 288 285 318 321 q 257 197 257 250 q 283 108 257 151 q 360 46 308 65 m 126 608 l 215 769 l 540 769 l 629 608 l 440 608 l 378 721 l 317 608 l 126 608 m 263 -219 q 240 -140 240 -193 q 263 -58 240 -85 l 456 -58 q 474 -140 474 -82 q 456 -219 474 -193 l 263 -219 z "},"ầ":{"ha":640,"x_min":19,"x_max":622,"o":"m 100 0 q 37 91 54 38 q 19 193 19 144 q 40 308 19 253 q 100 390 61 364 l 349 390 q 318 479 338 439 q 272 553 299 519 l 272 556 l 549 556 q 583 462 568 525 q 597 333 597 399 l 597 0 l 100 0 m 360 46 l 360 285 q 359 313 360 300 q 357 339 358 326 q 288 285 318 321 q 257 197 257 250 q 283 108 257 151 q 360 46 308 65 m 622 608 l 439 608 l 378 707 l 315 608 l 133 608 l 222 749 l 533 749 l 622 608 m 486 801 l 278 801 l 211 926 l 418 926 l 486 801 z "},"ẩ":{"ha":640,"x_min":19,"x_max":622,"o":"m 100 0 q 37 91 54 38 q 19 193 19 144 q 40 308 19 253 q 100 390 61 364 l 349 390 q 318 479 338 439 q 272 553 299 519 l 272 556 l 549 556 q 583 462 568 525 q 597 333 597 399 l 597 0 l 100 0 m 360 46 l 360 285 q 359 313 360 300 q 357 339 358 326 q 288 285 318 321 q 257 197 257 250 q 283 108 257 151 q 360 46 308 65 m 622 608 l 439 608 l 378 707 l 315 608 l 133 608 l 222 749 l 533 749 l 622 608 m 283 801 q 313 849 303 825 q 322 890 322 874 q 232 947 322 943 l 232 960 q 316 968 282 965 q 374 971 350 971 q 413 970 393 971 q 451 963 433 969 q 501 897 501 947 q 449 801 501 847 l 283 801 z "},"ẫ":{"ha":640,"x_min":19,"x_max":622,"o":"m 100 0 q 37 91 54 38 q 19 193 19 144 q 40 308 19 253 q 100 390 61 364 l 349 390 q 318 479 338 439 q 272 553 299 519 l 272 556 l 549 556 q 583 462 568 525 q 597 333 597 399 l 597 0 l 100 0 m 360 46 l 360 285 q 359 313 360 300 q 357 339 358 326 q 288 285 318 321 q 257 197 257 250 q 283 108 257 151 q 360 46 308 65 m 622 608 l 439 608 l 378 707 l 315 608 l 133 608 l 222 749 l 533 749 l 622 608 m 218 786 l 218 918 q 301 956 254 956 q 396 932 340 956 q 463 915 436 915 q 540 956 501 915 l 540 822 q 465 789 514 789 q 417 797 443 789 q 363 815 390 806 q 328 826 344 822 q 297 831 313 831 q 218 786 247 831 z "},"ȁ":{"ha":640,"x_min":19,"x_max":597,"o":"m 100 0 q 37 91 54 38 q 19 193 19 144 q 40 308 19 253 q 100 390 61 364 l 349 390 q 318 479 338 439 q 272 553 299 519 l 272 556 l 549 556 q 583 462 568 525 q 597 333 597 399 l 597 0 l 100 0 m 360 46 l 360 285 q 359 313 360 300 q 357 339 358 326 q 288 285 318 321 q 257 197 257 250 q 283 108 257 151 q 360 46 308 65 m 357 608 l 171 608 l 86 768 l 272 768 l 357 608 m 596 608 l 410 608 l 325 768 l 511 768 l 596 608 z "},"ä":{"ha":640,"x_min":19,"x_max":606,"o":"m 100 0 q 37 91 54 38 q 19 193 19 144 q 40 308 19 253 q 100 390 61 364 l 349 390 q 318 479 338 439 q 272 553 299 519 l 272 556 l 549 556 q 583 462 568 525 q 597 333 597 399 l 597 0 l 100 0 m 360 46 l 360 285 q 359 313 360 300 q 357 339 358 326 q 288 285 318 321 q 257 197 257 250 q 283 108 257 151 q 360 46 308 65 m 171 608 q 149 688 149 635 q 171 769 149 743 l 336 769 q 354 688 354 746 q 336 608 354 635 l 171 608 m 422 608 q 400 688 400 635 q 422 769 400 743 l 588 769 q 606 688 606 746 q 588 608 606 635 l 422 608 z "},"ǟ":{"ha":640,"x_min":19,"x_max":597,"o":"m 100 0 q 37 91 54 38 q 19 193 19 144 q 40 308 19 253 q 100 390 61 364 l 349 390 q 318 479 338 439 q 272 553 299 519 l 272 556 l 549 556 q 583 462 568 525 q 597 333 597 399 l 597 0 l 100 0 m 360 46 l 360 285 q 359 313 360 300 q 357 339 358 326 q 288 285 318 321 q 257 197 257 250 q 283 108 257 151 q 360 46 308 65 m 185 608 q 164 682 164 633 q 185 758 164 733 l 339 758 q 356 682 356 736 q 339 608 356 633 l 185 608 m 419 608 q 399 682 399 633 q 419 758 399 733 l 574 758 q 590 682 590 736 q 574 608 590 633 l 419 608 m 183 801 l 183 917 l 572 917 l 572 801 l 183 801 z "},"ȧ":{"ha":640,"x_min":19,"x_max":597,"o":"m 100 0 q 37 91 54 38 q 19 193 19 144 q 40 308 19 253 q 100 390 61 364 l 349 390 q 318 479 338 439 q 272 553 299 519 l 272 556 l 549 556 q 583 462 568 525 q 597 333 597 399 l 597 0 l 100 0 m 360 46 l 360 285 q 359 313 360 300 q 357 339 358 326 q 288 285 318 321 q 257 197 257 250 q 283 108 257 151 q 360 46 308 65 m 286 608 q 264 688 264 635 q 286 769 264 743 l 474 769 q 492 688 492 746 q 474 608 492 635 l 286 608 z "},"ạ":{"ha":640,"x_min":19,"x_max":597,"o":"m 100 0 q 37 91 54 38 q 19 193 19 144 q 40 308 19 253 q 100 390 61 364 l 349 390 q 318 479 338 439 q 272 553 299 519 l 272 556 l 549 556 q 583 462 568 525 q 597 333 597 399 l 597 0 l 100 0 m 360 46 l 360 285 q 359 313 360 300 q 357 339 358 326 q 288 285 318 321 q 257 197 257 250 q 283 108 257 151 q 360 46 308 65 m 263 -219 q 240 -140 240 -193 q 263 -58 240 -85 l 456 -58 q 474 -140 474 -82 q 456 -219 474 -193 l 263 -219 z "},"ǡ":{"ha":640,"x_min":19,"x_max":597,"o":"m 100 0 q 37 91 54 38 q 19 193 19 144 q 40 308 19 253 q 100 390 61 364 l 349 390 q 318 479 338 439 q 272 553 299 519 l 272 556 l 549 556 q 583 462 568 525 q 597 333 597 399 l 597 0 l 100 0 m 360 46 l 360 285 q 359 313 360 300 q 357 339 358 326 q 288 285 318 321 q 257 197 257 250 q 283 108 257 151 q 360 46 308 65 m 304 608 q 283 682 283 633 q 304 758 283 733 l 458 758 q 475 682 475 736 q 458 608 475 633 l 304 608 m 183 811 l 183 926 l 572 926 l 572 811 l 183 811 z "},"à":{"ha":640,"x_min":19,"x_max":597,"o":"m 100 0 q 37 91 54 38 q 19 193 19 144 q 40 308 19 253 q 100 390 61 364 l 349 390 q 318 479 338 439 q 272 553 299 519 l 272 556 l 549 556 q 583 462 568 525 q 597 333 597 399 l 597 0 l 100 0 m 360 46 l 360 285 q 359 313 360 300 q 357 339 358 326 q 288 285 318 321 q 257 197 257 250 q 283 108 257 151 q 360 46 308 65 m 172 769 l 397 769 l 486 608 l 261 608 l 172 769 z "},"ả":{"ha":640,"x_min":19,"x_max":597,"o":"m 100 0 q 37 91 54 38 q 19 193 19 144 q 40 308 19 253 q 100 390 61 364 l 349 390 q 318 479 338 439 q 272 553 299 519 l 272 556 l 549 556 q 583 462 568 525 q 597 333 597 399 l 597 0 l 100 0 m 360 46 l 360 285 q 359 313 360 300 q 357 339 358 326 q 288 285 318 321 q 257 197 257 250 q 283 108 257 151 q 360 46 308 65 m 276 608 q 317 710 317 667 q 222 771 317 767 l 222 788 q 310 796 275 793 q 369 799 344 799 q 417 798 389 799 q 465 790 446 797 q 503 764 489 783 q 517 710 517 744 q 506 653 517 679 q 476 608 494 628 l 276 608 z "},"ȃ":{"ha":640,"x_min":19,"x_max":597,"o":"m 100 0 q 37 91 54 38 q 19 193 19 144 q 40 308 19 253 q 100 390 61 364 l 349 390 q 318 479 338 439 q 272 553 299 519 l 272 556 l 549 556 q 583 462 568 525 q 597 333 597 399 l 597 0 l 100 0 m 360 46 l 360 285 q 359 313 360 300 q 357 339 358 326 q 288 285 318 321 q 257 197 257 250 q 283 108 257 151 q 360 46 308 65 m 174 738 q 272 789 219 772 q 378 806 324 806 q 485 789 432 806 q 582 738 538 772 l 582 586 q 378 667 485 667 q 174 586 271 667 l 174 738 z "},"ɑ":{"ha":692,"x_min":32,"x_max":685,"o":"m 122 0 q 32 258 32 88 q 57 429 32 353 q 122 556 82 506 l 600 556 l 600 254 q 685 0 600 113 l 122 0 m 260 267 q 275 165 260 213 q 316 85 290 118 q 372 44 342 53 l 372 506 q 290 399 319 454 q 260 267 260 344 z "},"ā":{"ha":640,"x_min":19,"x_max":597,"o":"m 100 0 q 37 91 54 38 q 19 193 19 144 q 40 308 19 253 q 100 390 61 364 l 349 390 q 318 479 338 439 q 272 553 299 519 l 272 556 l 549 556 q 583 462 568 525 q 597 333 597 399 l 597 0 l 100 0 m 360 46 l 360 285 q 359 313 360 300 q 357 339 358 326 q 288 285 318 321 q 257 197 257 250 q 283 108 257 151 q 360 46 308 65 m 185 607 l 185 736 l 571 736 l 571 607 l 185 607 z "},"ą":{"ha":640,"x_min":19,"x_max":597,"o":"m 100 0 q 37 91 54 38 q 19 193 19 144 q 40 308 19 253 q 100 390 61 364 l 349 390 q 318 479 338 439 q 272 553 299 519 l 272 556 l 549 556 q 583 462 568 525 q 597 333 597 399 l 597 0 l 100 0 m 360 46 l 360 285 q 359 313 360 300 q 357 339 358 326 q 288 285 318 321 q 257 197 257 250 q 283 108 257 151 q 360 46 308 65 m 590 -101 l 590 -242 q 543 -246 565 -246 q 429 -209 475 -246 q 383 -114 383 -172 q 482 0 383 -28 l 597 0 q 536 -28 558 -10 q 514 -72 514 -47 q 526 -100 514 -90 q 557 -110 539 -110 q 590 -101 574 -110 z "},"å":{"ha":640,"x_min":19,"x_max":597,"o":"m 100 0 q 37 91 54 38 q 19 193 19 144 q 40 308 19 253 q 100 390 61 364 l 349 390 q 318 479 338 439 q 272 553 299 519 l 272 556 l 549 556 q 583 462 568 525 q 597 333 597 399 l 597 0 l 100 0 m 360 46 l 360 285 q 359 313 360 300 q 357 339 358 326 q 288 285 318 321 q 257 197 257 250 q 283 108 257 151 q 360 46 308 65 m 203 775 l 553 775 q 578 737 569 761 q 586 688 586 713 q 578 640 586 663 q 553 606 569 618 l 203 606 q 178 640 186 618 q 169 688 169 663 q 178 737 169 713 q 203 775 186 761 m 347 693 q 378 624 347 656 q 408 693 408 656 q 378 758 408 731 q 347 693 347 731 z "},"ḁ":{"ha":640,"x_min":19,"x_max":597,"o":"m 100 0 q 37 91 54 38 q 19 193 19 144 q 40 308 19 253 q 100 390 61 364 l 349 390 q 318 479 338 439 q 272 553 299 519 l 272 556 l 549 556 q 583 462 568 525 q 597 333 597 399 l 597 0 l 100 0 m 360 46 l 360 285 q 359 313 360 300 q 357 339 358 326 q 288 285 318 321 q 257 197 257 250 q 283 108 257 151 q 360 46 308 65 m 182 -58 l 532 -58 q 557 -97 549 -72 q 565 -146 565 -121 q 557 -193 565 -171 q 532 -228 549 -215 l 182 -228 q 157 -193 165 -215 q 149 -146 149 -171 q 157 -97 149 -121 q 182 -58 165 -72 m 326 -140 q 357 -210 326 -178 q 388 -140 388 -178 q 357 -75 388 -103 q 326 -140 326 -103 z "},"ⱥ":{"ha":640,"x_min":19,"x_max":597,"o":"m 100 0 q 37 91 54 38 q 19 193 19 144 q 40 308 19 253 q 100 390 61 364 l 349 390 q 318 479 338 439 q 272 553 299 519 l 272 556 l 549 556 q 583 462 568 525 q 597 333 597 399 l 597 0 l 100 0 m 360 46 l 360 285 q 359 313 360 300 q 357 339 358 326 q 288 285 318 321 q 257 197 257 250 q 283 108 257 151 q 360 46 308 65 m 183 -108 l 481 725 l 561 725 l 264 -108 l 183 -108 z "},"ã":{"ha":640,"x_min":19,"x_max":597,"o":"m 100 0 q 37 91 54 38 q 19 193 19 144 q 40 308 19 253 q 100 390 61 364 l 349 390 q 318 479 338 439 q 272 553 299 519 l 272 556 l 549 556 q 583 462 568 525 q 597 333 597 399 l 597 0 l 100 0 m 360 46 l 360 285 q 359 313 360 300 q 357 339 358 326 q 288 285 318 321 q 257 197 257 250 q 283 108 257 151 q 360 46 308 65 m 192 593 l 192 739 q 288 776 232 776 q 339 771 311 776 q 397 753 367 765 q 474 736 442 736 q 564 776 519 736 l 564 629 q 478 596 533 596 q 421 603 451 596 q 358 622 390 611 q 285 638 315 638 q 192 593 228 638 z "},"æ":{"ha":944,"x_min":19,"x_max":938,"o":"m 100 0 q 37 91 54 38 q 19 193 19 144 q 40 308 19 253 q 100 390 61 364 l 360 390 q 345 488 360 449 q 308 550 331 528 l 308 556 l 857 556 q 920 465 903 518 q 938 356 938 413 q 917 249 938 304 q 857 165 896 193 l 608 165 q 640 75 619 115 q 686 3 660 35 l 685 0 l 100 0 m 597 510 l 597 507 q 674 446 649 488 q 700 354 699 404 q 671 264 699 301 q 606 211 646 229 l 604 210 l 601 208 q 601 208 601 208 q 604 210 601 208 q 603 210 603 210 q 606 211 603 210 q 671 264 647 231 q 700 347 700 303 q 700 348 700 347 q 700 354 700 349 l 700 361 q 674 448 700 404 q 597 510 649 492 m 379 49 q 360 264 360 126 l 360 339 q 288 285 318 321 q 257 197 257 250 q 284 109 257 154 q 379 49 311 64 z "},"ǣ":{"ha":944,"x_min":19,"x_max":938,"o":"m 100 0 q 37 91 54 38 q 19 193 19 144 q 40 308 19 253 q 100 390 61 364 l 360 390 q 345 488 360 449 q 308 550 331 528 l 308 556 l 857 556 q 920 465 903 518 q 938 356 938 413 q 917 249 938 304 q 857 165 896 193 l 608 165 q 640 75 619 115 q 686 3 660 35 l 685 0 l 100 0 m 597 510 l 597 507 q 674 446 649 488 q 700 354 699 404 q 671 264 699 301 q 606 211 646 229 l 604 210 l 601 208 q 601 208 601 208 q 604 210 601 208 q 603 210 603 210 q 606 211 603 210 q 671 264 647 231 q 700 347 700 303 q 700 348 700 347 q 700 354 700 349 l 700 361 q 674 448 700 404 q 597 510 649 492 m 379 49 q 360 264 360 126 l 360 339 q 288 285 318 321 q 257 197 257 250 q 284 109 257 154 q 379 49 311 64 m 368 607 l 368 736 l 754 736 l 754 607 l 368 607 z "},"b":{"ha":675,"x_min":56,"x_max":651,"o":"m 56 0 l 56 797 l 293 797 l 293 556 l 546 556 q 622 439 593 517 q 651 258 651 361 q 641 178 651 225 q 607 83 631 131 q 546 0 583 36 l 56 0 m 293 47 q 383 151 354 93 q 411 285 411 210 q 374 421 411 363 q 293 510 338 479 l 293 47 z "},"ḃ":{"ha":675,"x_min":56,"x_max":651,"o":"m 56 0 l 56 797 l 293 797 l 293 556 l 546 556 q 622 439 593 517 q 651 258 651 361 q 641 178 651 225 q 607 83 631 131 q 546 0 583 36 l 56 0 m 293 47 q 383 151 354 93 q 411 285 411 210 q 374 421 411 363 q 293 510 338 479 l 293 47 m 253 850 q 231 929 231 876 q 253 1011 231 985 l 440 1011 q 458 929 458 988 q 440 850 458 876 l 253 850 z "},"ḅ":{"ha":675,"x_min":56,"x_max":651,"o":"m 56 0 l 56 797 l 293 797 l 293 556 l 546 556 q 622 439 593 517 q 651 258 651 361 q 641 178 651 225 q 607 83 631 131 q 546 0 583 36 l 56 0 m 293 47 q 383 151 354 93 q 411 285 411 210 q 374 421 411 363 q 293 510 338 479 l 293 47 m 244 -219 q 222 -140 222 -193 q 244 -58 222 -85 l 438 -58 q 456 -140 456 -82 q 438 -219 456 -193 l 244 -219 z "},"ꞵ":{"ha":689,"x_min":56,"x_max":663,"o":"m 56 -278 l 56 565 q 153 769 56 703 l 550 769 q 628 606 628 715 q 604 504 628 547 q 540 442 581 461 q 626 346 593 404 q 660 222 658 288 q 641 107 663 168 q 583 0 619 46 l 296 0 l 296 -278 l 56 -278 m 296 556 l 296 454 q 363 521 336 481 q 389 599 389 561 q 375 660 389 631 q 331 711 361 690 q 296 556 296 647 m 421 228 q 403 296 421 258 q 356 367 385 333 q 296 424 328 401 l 296 43 q 359 94 331 63 q 404 162 388 126 q 421 228 421 197 z "},"ɓ":{"ha":678,"x_min":54,"x_max":650,"o":"m 379 797 l 381 794 q 322 692 346 749 q 293 556 297 636 l 544 556 q 606 473 582 521 q 640 378 629 425 q 650 297 650 332 q 621 117 650 196 q 544 0 592 39 l 54 0 l 54 575 q 69 703 54 640 q 103 797 83 767 l 379 797 m 292 508 l 292 46 q 373 135 336 78 q 410 271 410 193 q 381 404 410 346 q 292 508 353 463 z "},"ʘ":{"ha":724,"x_min":36,"x_max":688,"o":"m 124 0 q 56 185 76 93 q 36 383 36 278 q 57 594 36 496 q 122 769 78 693 l 601 769 q 669 585 650 678 q 688 386 688 493 q 667 172 688 272 q 603 0 647 71 l 124 0 m 369 44 q 426 200 408 117 q 444 379 444 283 q 427 558 444 475 q 361 717 410 642 q 279 385 279 569 q 301 203 279 288 q 369 44 322 119 m 363 318 q 315 338 335 318 q 296 385 296 357 q 315 432 296 413 q 363 451 335 451 q 410 432 390 451 q 429 385 429 413 q 410 338 429 357 q 363 318 390 318 z "},"ḇ":{"ha":675,"x_min":56,"x_max":651,"o":"m 56 0 l 56 797 l 293 797 l 293 556 l 546 556 q 622 439 593 517 q 651 258 651 361 q 641 178 651 225 q 607 83 631 131 q 546 0 583 36 l 56 0 m 293 47 q 383 151 354 93 q 411 285 411 210 q 374 421 411 363 q 293 510 338 479 l 293 47 m 146 -187 l 146 -58 l 532 -58 l 532 -187 l 146 -187 z "},"ƀ":{"ha":675,"x_min":-8,"x_max":651,"o":"m 56 0 l 56 797 l 293 797 l 293 556 l 546 556 q 622 439 593 517 q 651 258 651 361 q 641 178 651 225 q 607 83 631 131 q 546 0 583 36 l 56 0 m 293 47 q 383 151 354 93 q 411 285 411 210 q 374 421 411 363 q 293 510 338 479 l 293 47 m -8 632 l -8 715 l 356 715 l 356 632 l -8 632 z "},"c":{"ha":404,"x_min":28,"x_max":410,"o":"m 115 0 q 53 122 78 51 q 28 281 28 192 q 46 431 28 365 q 101 556 64 496 l 396 556 l 396 554 q 301 425 335 490 q 268 278 268 360 q 307 130 268 197 q 410 3 346 63 l 410 0 l 115 0 z "},"ć":{"ha":404,"x_min":28,"x_max":436,"o":"m 115 0 q 53 122 78 51 q 28 281 28 192 q 46 431 28 365 q 101 556 64 496 l 396 556 l 396 554 q 301 425 335 490 q 268 278 268 360 q 307 130 268 197 q 410 3 346 63 l 410 0 l 115 0 m 436 769 l 347 608 l 122 608 l 211 769 l 436 769 z "},"č":{"ha":404,"x_min":14,"x_max":503,"o":"m 115 0 q 53 122 78 51 q 28 281 28 192 q 46 431 28 365 q 101 556 64 496 l 396 556 l 396 554 q 301 425 335 490 q 268 278 268 360 q 307 130 268 197 q 410 3 346 63 l 410 0 l 115 0 m 14 769 l 197 769 l 258 657 l 321 769 l 503 769 l 414 608 l 103 608 l 14 769 z "},"ç":{"ha":404,"x_min":28,"x_max":410,"o":"m 115 0 q 53 122 78 51 q 28 281 28 192 q 46 431 28 365 q 101 556 64 496 l 396 556 l 396 554 q 301 425 335 490 q 268 278 268 360 q 307 130 268 197 q 410 3 346 63 l 410 0 l 115 0 m 124 -229 q 182 -196 153 -219 q 211 -139 211 -172 q 192 -94 211 -114 q 149 -65 172 -75 l 179 0 l 318 0 l 300 -44 q 358 -78 333 -54 q 383 -143 383 -103 q 372 -188 383 -164 q 332 -232 360 -212 l 125 -232 l 124 -229 z "},"ḉ":{"ha":404,"x_min":28,"x_max":436,"o":"m 115 0 q 53 122 78 51 q 28 281 28 192 q 46 431 28 365 q 101 556 64 496 l 396 556 l 396 554 q 301 425 335 490 q 268 278 268 360 q 307 130 268 197 q 410 3 346 63 l 410 0 l 115 0 m 124 -229 q 182 -196 153 -219 q 211 -139 211 -172 q 192 -94 211 -114 q 149 -65 172 -75 l 179 0 l 318 0 l 300 -44 q 358 -78 333 -54 q 383 -143 383 -103 q 372 -188 383 -164 q 332 -232 360 -212 l 125 -232 l 124 -229 m 436 769 l 347 608 l 122 608 l 211 769 l 436 769 z "},"ĉ":{"ha":404,"x_min":7,"x_max":510,"o":"m 115 0 q 53 122 78 51 q 28 281 28 192 q 46 431 28 365 q 101 556 64 496 l 396 556 l 396 554 q 301 425 335 490 q 268 278 268 360 q 307 130 268 197 q 410 3 346 63 l 410 0 l 115 0 m 7 608 l 96 769 l 421 769 l 510 608 l 321 608 l 258 721 l 197 608 l 7 608 z "},"ċ":{"ha":404,"x_min":28,"x_max":410,"o":"m 115 0 q 53 122 78 51 q 28 281 28 192 q 46 431 28 365 q 101 556 64 496 l 396 556 l 396 554 q 301 425 335 490 q 268 278 268 360 q 307 130 268 197 q 410 3 346 63 l 410 0 l 115 0 m 167 608 q 144 688 144 635 q 167 769 144 743 l 354 769 q 372 688 372 746 q 354 608 372 635 l 167 608 z "},"ꭓ":{"ha":701,"x_min":-28,"x_max":729,"o":"m 11 -211 l 92 160 l 231 160 l 106 369 q 28 491 63 443 q -28 549 -7 539 l -28 558 l 219 558 q 277 504 247 546 q 343 401 307 463 l 376 347 l 435 556 l 663 556 l 565 217 l 456 217 l 603 -24 q 649 -98 624 -57 q 697 -169 674 -139 q 729 -204 719 -200 l 729 -211 l 492 -211 q 431 -165 461 -204 q 360 -56 401 -126 l 299 47 l 243 -211 l 11 -211 z "},"ƈ":{"ha":404,"x_min":28,"x_max":565,"o":"m 115 0 q 53 122 78 51 q 28 281 28 192 q 46 431 28 365 q 101 556 64 496 l 335 556 q 344 671 335 617 q 381 758 353 725 q 468 792 410 792 q 513 786 488 792 q 565 771 539 781 l 565 611 l 561 610 q 516 628 535 624 q 474 632 497 632 q 411 609 426 632 q 396 556 396 586 l 396 554 q 301 425 335 490 q 268 278 268 360 q 307 130 268 197 q 410 3 346 63 l 410 0 l 115 0 z "},"ȼ":{"ha":404,"x_min":28,"x_max":410,"o":"m 115 0 q 53 122 78 51 q 28 281 28 192 q 46 431 28 365 q 101 556 64 496 l 396 556 l 396 554 q 301 425 335 490 q 268 278 268 360 q 307 130 268 197 q 410 3 346 63 l 410 0 l 115 0 m 31 -108 l 328 725 l 408 725 l 111 -108 l 31 -108 z "},"d":{"ha":678,"x_min":28,"x_max":624,"o":"m 133 0 q 73 83 96 36 q 39 178 50 131 q 28 258 28 225 q 57 439 28 361 q 133 556 86 517 l 386 556 l 386 797 l 624 797 l 624 0 l 133 0 m 386 47 l 386 510 q 305 421 342 479 q 268 285 268 363 q 297 151 268 210 q 386 47 325 93 z "},"ð":{"ha":647,"x_min":14,"x_max":619,"o":"m 76 0 q 35 86 57 24 q 14 235 14 149 q 35 385 14 321 q 75 481 56 450 l 344 481 q 311 564 331 522 l 228 528 l 228 603 l 279 625 q 227 707 254 671 q 176 768 200 743 l 467 768 q 481 745 474 757 q 496 721 488 733 l 572 754 l 572 679 l 528 660 q 592 494 564 589 q 619 286 619 400 q 608 166 619 224 q 578 65 596 108 q 543 0 561 22 l 76 0 m 254 218 q 270 122 254 164 q 308 49 286 79 q 356 151 336 90 q 376 290 376 213 q 371 367 376 329 q 356 443 365 406 q 279 347 304 413 q 254 218 254 281 z "},"ď":{"ha":678,"x_min":28,"x_max":893,"o":"m 133 0 q 73 83 96 36 q 39 178 50 131 q 28 258 28 225 q 57 439 28 361 q 133 556 86 517 l 386 556 l 386 797 l 624 797 l 624 0 l 133 0 m 386 47 l 386 510 q 305 421 342 479 q 268 285 268 363 q 297 151 268 210 q 386 47 325 93 m 678 581 l 715 797 l 893 797 l 856 581 l 678 581 z "},"ḑ":{"ha":678,"x_min":28,"x_max":624,"o":"m 133 0 q 73 83 96 36 q 39 178 50 131 q 28 258 28 225 q 57 439 28 361 q 133 556 86 517 l 386 556 l 386 797 l 624 797 l 624 0 l 133 0 m 386 47 l 386 510 q 305 421 342 479 q 268 285 268 363 q 297 151 268 210 q 386 47 325 93 m 307 -303 l 307 -206 l 261 -206 l 261 -58 l 440 -58 q 458 -85 451 -68 q 465 -133 465 -103 q 450 -222 465 -178 q 407 -303 435 -265 l 307 -303 z "},"ḓ":{"ha":678,"x_min":28,"x_max":624,"o":"m 133 0 q 73 83 96 36 q 39 178 50 131 q 28 258 28 225 q 57 439 28 361 q 133 556 86 517 l 386 556 l 386 797 l 624 797 l 624 0 l 133 0 m 386 47 l 386 510 q 305 421 342 479 q 268 285 268 363 q 297 151 268 210 q 386 47 325 93 m 119 -199 l 208 -58 l 519 -58 l 608 -199 l 426 -199 l 364 -100 l 303 -199 l 119 -199 z "},"đ":{"ha":678,"x_min":28,"x_max":682,"o":"m 133 0 q 73 83 96 36 q 39 178 50 131 q 28 258 28 225 q 57 439 28 361 q 133 556 86 517 l 386 556 l 386 797 l 624 797 l 624 0 l 133 0 m 386 47 l 386 510 q 305 421 342 479 q 268 285 268 363 q 297 151 268 210 q 386 47 325 93 m 318 644 l 318 728 l 682 728 l 682 644 l 318 644 z "},"ḋ":{"ha":678,"x_min":28,"x_max":624,"o":"m 133 0 q 73 83 96 36 q 39 178 50 131 q 28 258 28 225 q 57 439 28 361 q 133 556 86 517 l 386 556 l 386 797 l 624 797 l 624 0 l 133 0 m 386 47 l 386 510 q 305 421 342 479 q 268 285 268 363 q 297 151 268 210 q 386 47 325 93 m 294 850 q 272 929 272 876 q 294 1011 272 985 l 482 1011 q 500 929 500 988 q 482 850 500 876 l 294 850 z "},"ḍ":{"ha":678,"x_min":28,"x_max":624,"o":"m 133 0 q 73 83 96 36 q 39 178 50 131 q 28 258 28 225 q 57 439 28 361 q 133 556 86 517 l 386 556 l 386 797 l 624 797 l 624 0 l 133 0 m 386 47 l 386 510 q 305 421 342 479 q 268 285 268 363 q 297 151 268 210 q 386 47 325 93 m 269 -219 q 247 -140 247 -193 q 269 -58 247 -85 l 463 -58 q 481 -140 481 -82 q 463 -219 481 -193 l 269 -219 z "},"ɗ":{"ha":674,"x_min":24,"x_max":699,"o":"m 382 556 q 407 697 382 629 q 482 797 432 765 l 699 797 q 640 693 660 761 q 619 556 619 625 l 619 0 l 135 0 q 56 117 88 39 q 24 297 24 196 q 36 378 24 332 q 73 473 49 425 q 135 556 97 521 l 382 556 m 264 271 q 301 138 264 194 q 382 49 338 81 l 382 504 q 264 271 264 415 z "},"ḏ":{"ha":678,"x_min":28,"x_max":624,"o":"m 133 0 q 73 83 96 36 q 39 178 50 131 q 28 258 28 225 q 57 439 28 361 q 133 556 86 517 l 386 556 l 386 797 l 624 797 l 624 0 l 133 0 m 386 47 l 386 510 q 305 421 342 479 q 268 285 268 363 q 297 151 268 210 q 386 47 325 93 m 171 -187 l 171 -58 l 557 -58 l 557 -187 l 171 -187 z "},"ɖ":{"ha":678,"x_min":28,"x_max":704,"o":"m 133 0 q 73 83 96 36 q 39 178 50 131 q 28 258 28 225 q 57 439 28 361 q 133 556 86 517 l 386 556 l 386 797 l 624 797 l 624 0 q 644 -137 624 -69 q 704 -242 665 -206 l 488 -242 q 432 -180 454 -219 q 399 -92 410 -140 q 386 0 388 -44 l 133 0 m 386 47 l 386 510 q 305 421 342 479 q 268 285 268 363 q 297 151 268 210 q 386 47 325 93 z "},"e":{"ha":628,"x_min":43,"x_max":621,"o":"m 92 0 q 58 94 72 31 q 43 222 43 158 l 43 556 l 540 556 q 603 465 586 518 q 621 356 621 413 q 600 249 621 304 q 540 165 579 193 l 292 165 q 323 75 303 115 q 369 3 343 35 l 368 0 l 92 0 m 285 208 q 357 267 331 229 q 383 361 383 306 q 358 448 383 404 q 281 510 332 492 l 281 271 q 285 208 281 238 z "},"é":{"ha":628,"x_min":43,"x_max":621,"o":"m 92 0 q 58 94 72 31 q 43 222 43 158 l 43 556 l 540 556 q 603 465 586 518 q 621 356 621 413 q 600 249 621 304 q 540 165 579 193 l 292 165 q 323 75 303 115 q 369 3 343 35 l 368 0 l 92 0 m 285 208 q 357 267 331 229 q 383 361 383 306 q 358 448 383 404 q 281 510 332 492 l 281 271 q 285 208 281 238 m 489 769 l 400 608 l 175 608 l 264 769 l 489 769 z "},"ě":{"ha":628,"x_min":43,"x_max":621,"o":"m 92 0 q 58 94 72 31 q 43 222 43 158 l 43 556 l 540 556 q 603 465 586 518 q 621 356 621 413 q 600 249 621 304 q 540 165 579 193 l 292 165 q 323 75 303 115 q 369 3 343 35 l 368 0 l 92 0 m 285 208 q 357 267 331 229 q 383 361 383 306 q 358 448 383 404 q 281 510 332 492 l 281 271 q 285 208 281 238 m 67 769 l 250 769 l 311 657 l 374 769 l 556 769 l 467 608 l 156 608 l 67 769 z "},"ȩ":{"ha":628,"x_min":43,"x_max":621,"o":"m 92 0 q 58 94 72 31 q 43 222 43 158 l 43 556 l 540 556 q 603 465 586 518 q 621 356 621 413 q 600 249 621 304 q 540 165 579 193 l 292 165 q 323 75 303 115 q 369 3 343 35 l 368 0 l 92 0 m 285 208 q 357 267 331 229 q 383 361 383 306 q 358 448 383 404 q 281 510 332 492 l 281 271 q 285 208 281 238 m 103 -229 q 161 -196 132 -219 q 190 -139 190 -172 q 171 -94 190 -114 q 128 -65 151 -75 l 158 0 l 297 0 l 279 -44 q 338 -78 313 -54 q 363 -143 363 -103 q 351 -188 363 -164 q 311 -232 339 -212 l 104 -232 l 103 -229 z "},"ḝ":{"ha":628,"x_min":43,"x_max":621,"o":"m 92 0 q 58 94 72 31 q 43 222 43 158 l 43 556 l 540 556 q 603 465 586 518 q 621 356 621 413 q 600 249 621 304 q 540 165 579 193 l 292 165 q 323 75 303 115 q 369 3 343 35 l 368 0 l 92 0 m 285 208 q 357 267 331 229 q 383 361 383 306 q 358 448 383 404 q 281 510 332 492 l 281 271 q 285 208 281 238 m 103 -229 q 161 -196 132 -219 q 190 -139 190 -172 q 171 -94 190 -114 q 128 -65 151 -75 l 158 0 l 297 0 l 279 -44 q 338 -78 313 -54 q 363 -143 363 -103 q 351 -188 363 -164 q 311 -232 339 -212 l 104 -232 l 103 -229 m 107 660 l 107 811 q 311 731 204 731 q 515 811 418 731 l 515 660 q 418 608 471 625 q 311 592 365 592 q 205 608 257 592 q 107 660 153 625 z "},"ê":{"ha":628,"x_min":43,"x_max":621,"o":"m 92 0 q 58 94 72 31 q 43 222 43 158 l 43 556 l 540 556 q 603 465 586 518 q 621 356 621 413 q 600 249 621 304 q 540 165 579 193 l 292 165 q 323 75 303 115 q 369 3 343 35 l 368 0 l 92 0 m 285 208 q 357 267 331 229 q 383 361 383 306 q 358 448 383 404 q 281 510 332 492 l 281 271 q 285 208 281 238 m 60 608 l 149 769 l 474 769 l 563 608 l 374 608 l 311 721 l 250 608 l 60 608 z "},"ế":{"ha":628,"x_min":43,"x_max":621,"o":"m 92 0 q 58 94 72 31 q 43 222 43 158 l 43 556 l 540 556 q 603 465 586 518 q 621 356 621 413 q 600 249 621 304 q 540 165 579 193 l 292 165 q 323 75 303 115 q 369 3 343 35 l 368 0 l 92 0 m 285 208 q 357 267 331 229 q 383 361 383 306 q 358 448 383 404 q 281 510 332 492 l 281 271 q 285 208 281 238 m 67 608 l 156 749 l 467 749 l 556 608 l 374 608 l 311 707 l 250 608 l 67 608 m 200 801 l 268 926 l 475 926 l 408 801 l 200 801 z "},"ḙ":{"ha":628,"x_min":-11,"x_max":621,"o":"m 92 0 q 58 94 72 31 q 43 222 43 158 l 43 556 l 540 556 q 603 465 586 518 q 621 356 621 413 q 600 249 621 304 q 540 165 579 193 l 292 165 q 323 75 303 115 q 369 3 343 35 l 368 0 l 92 0 m 285 208 q 357 267 331 229 q 383 361 383 306 q 358 448 383 404 q 281 510 332 492 l 281 271 q 285 208 281 238 m -11 -199 l 78 -58 l 389 -58 l 478 -199 l 296 -199 l 233 -100 l 172 -199 l -11 -199 z "},"ệ":{"ha":628,"x_min":43,"x_max":621,"o":"m 92 0 q 58 94 72 31 q 43 222 43 158 l 43 556 l 540 556 q 603 465 586 518 q 621 356 621 413 q 600 249 621 304 q 540 165 579 193 l 292 165 q 323 75 303 115 q 369 3 343 35 l 368 0 l 92 0 m 285 208 q 357 267 331 229 q 383 361 383 306 q 358 448 383 404 q 281 510 332 492 l 281 271 q 285 208 281 238 m 139 -219 q 117 -140 117 -193 q 139 -58 117 -85 l 332 -58 q 350 -140 350 -82 q 332 -219 350 -193 l 139 -219 m 60 608 l 149 769 l 474 769 l 563 608 l 374 608 l 311 721 l 250 608 l 60 608 z "},"ề":{"ha":628,"x_min":43,"x_max":621,"o":"m 92 0 q 58 94 72 31 q 43 222 43 158 l 43 556 l 540 556 q 603 465 586 518 q 621 356 621 413 q 600 249 621 304 q 540 165 579 193 l 292 165 q 323 75 303 115 q 369 3 343 35 l 368 0 l 92 0 m 285 208 q 357 267 331 229 q 383 361 383 306 q 358 448 383 404 q 281 510 332 492 l 281 271 q 285 208 281 238 m 556 608 l 372 608 l 311 707 l 249 608 l 67 608 l 156 749 l 467 749 l 556 608 m 419 801 l 211 801 l 144 926 l 351 926 l 419 801 z "},"ể":{"ha":628,"x_min":43,"x_max":621,"o":"m 92 0 q 58 94 72 31 q 43 222 43 158 l 43 556 l 540 556 q 603 465 586 518 q 621 356 621 413 q 600 249 621 304 q 540 165 579 193 l 292 165 q 323 75 303 115 q 369 3 343 35 l 368 0 l 92 0 m 285 208 q 357 267 331 229 q 383 361 383 306 q 358 448 383 404 q 281 510 332 492 l 281 271 q 285 208 281 238 m 556 608 l 372 608 l 311 707 l 249 608 l 67 608 l 156 749 l 467 749 l 556 608 m 217 801 q 246 849 236 825 q 256 890 256 874 q 165 947 256 943 l 165 960 q 249 968 215 965 q 307 971 283 971 q 347 970 326 971 q 385 963 367 969 q 435 897 435 947 q 382 801 435 847 l 217 801 z "},"ễ":{"ha":628,"x_min":43,"x_max":621,"o":"m 92 0 q 58 94 72 31 q 43 222 43 158 l 43 556 l 540 556 q 603 465 586 518 q 621 356 621 413 q 600 249 621 304 q 540 165 579 193 l 292 165 q 323 75 303 115 q 369 3 343 35 l 368 0 l 92 0 m 285 208 q 357 267 331 229 q 383 361 383 306 q 358 448 383 404 q 281 510 332 492 l 281 271 q 285 208 281 238 m 556 608 l 372 608 l 311 707 l 249 608 l 67 608 l 156 749 l 467 749 l 556 608 m 151 786 l 151 918 q 235 956 188 956 q 329 932 274 956 q 396 915 369 915 q 474 956 435 915 l 474 822 q 399 789 447 789 q 350 797 376 789 q 296 815 324 806 q 262 826 278 822 q 231 831 246 831 q 151 786 181 831 z "},"ȅ":{"ha":628,"x_min":19,"x_max":621,"o":"m 92 0 q 58 94 72 31 q 43 222 43 158 l 43 556 l 540 556 q 603 465 586 518 q 621 356 621 413 q 600 249 621 304 q 540 165 579 193 l 292 165 q 323 75 303 115 q 369 3 343 35 l 368 0 l 92 0 m 285 208 q 357 267 331 229 q 383 361 383 306 q 358 448 383 404 q 281 510 332 492 l 281 271 q 285 208 281 238 m 290 608 l 104 608 l 19 768 l 206 768 l 290 608 m 529 608 l 343 608 l 258 768 l 444 768 l 529 608 z "},"ë":{"ha":628,"x_min":43,"x_max":621,"o":"m 92 0 q 58 94 72 31 q 43 222 43 158 l 43 556 l 540 556 q 603 465 586 518 q 621 356 621 413 q 600 249 621 304 q 540 165 579 193 l 292 165 q 323 75 303 115 q 369 3 343 35 l 368 0 l 92 0 m 285 208 q 357 267 331 229 q 383 361 383 306 q 358 448 383 404 q 281 510 332 492 l 281 271 q 285 208 281 238 m 104 608 q 82 688 82 635 q 104 769 82 743 l 269 769 q 288 688 288 746 q 269 608 288 635 l 104 608 m 356 608 q 333 688 333 635 q 356 769 333 743 l 521 769 q 539 688 539 746 q 521 608 539 635 l 356 608 z "},"ė":{"ha":628,"x_min":43,"x_max":621,"o":"m 92 0 q 58 94 72 31 q 43 222 43 158 l 43 556 l 540 556 q 603 465 586 518 q 621 356 621 413 q 600 249 621 304 q 540 165 579 193 l 292 165 q 323 75 303 115 q 369 3 343 35 l 368 0 l 92 0 m 285 208 q 357 267 331 229 q 383 361 383 306 q 358 448 383 404 q 281 510 332 492 l 281 271 q 285 208 281 238 m 219 608 q 197 688 197 635 q 219 769 197 743 l 407 769 q 425 688 425 746 q 407 608 425 635 l 219 608 z "},"ẹ":{"ha":628,"x_min":43,"x_max":621,"o":"m 92 0 q 58 94 72 31 q 43 222 43 158 l 43 556 l 540 556 q 603 465 586 518 q 621 356 621 413 q 600 249 621 304 q 540 165 579 193 l 292 165 q 323 75 303 115 q 369 3 343 35 l 368 0 l 92 0 m 285 208 q 357 267 331 229 q 383 361 383 306 q 358 448 383 404 q 281 510 332 492 l 281 271 q 285 208 281 238 m 139 -219 q 117 -140 117 -193 q 139 -58 117 -85 l 332 -58 q 350 -140 350 -82 q 332 -219 350 -193 l 139 -219 z "},"è":{"ha":628,"x_min":43,"x_max":621,"o":"m 92 0 q 58 94 72 31 q 43 222 43 158 l 43 556 l 540 556 q 603 465 586 518 q 621 356 621 413 q 600 249 621 304 q 540 165 579 193 l 292 165 q 323 75 303 115 q 369 3 343 35 l 368 0 l 92 0 m 285 208 q 357 267 331 229 q 383 361 383 306 q 358 448 383 404 q 281 510 332 492 l 281 271 q 285 208 281 238 m 106 769 l 331 769 l 419 608 l 194 608 l 106 769 z "},"ẻ":{"ha":628,"x_min":43,"x_max":621,"o":"m 92 0 q 58 94 72 31 q 43 222 43 158 l 43 556 l 540 556 q 603 465 586 518 q 621 356 621 413 q 600 249 621 304 q 540 165 579 193 l 292 165 q 323 75 303 115 q 369 3 343 35 l 368 0 l 92 0 m 285 208 q 357 267 331 229 q 383 361 383 306 q 358 448 383 404 q 281 510 332 492 l 281 271 q 285 208 281 238 m 210 608 q 250 710 250 667 q 156 771 250 767 l 156 788 q 243 796 208 793 q 303 799 278 799 q 351 798 322 799 q 399 790 379 797 q 436 764 422 783 q 450 710 450 744 q 439 653 450 679 q 410 608 428 628 l 210 608 z "},"ȇ":{"ha":628,"x_min":43,"x_max":621,"o":"m 92 0 q 58 94 72 31 q 43 222 43 158 l 43 556 l 540 556 q 603 465 586 518 q 621 356 621 413 q 600 249 621 304 q 540 165 579 193 l 292 165 q 323 75 303 115 q 369 3 343 35 l 368 0 l 92 0 m 285 208 q 357 267 331 229 q 383 361 383 306 q 358 448 383 404 q 281 510 332 492 l 281 271 q 285 208 281 238 m 107 738 q 205 789 153 772 q 311 806 257 806 q 418 789 365 806 q 515 738 471 772 l 515 586 q 311 667 418 667 q 107 586 204 667 l 107 738 z "},"ē":{"ha":628,"x_min":43,"x_max":621,"o":"m 92 0 q 58 94 72 31 q 43 222 43 158 l 43 556 l 540 556 q 603 465 586 518 q 621 356 621 413 q 600 249 621 304 q 540 165 579 193 l 292 165 q 323 75 303 115 q 369 3 343 35 l 368 0 l 92 0 m 285 208 q 357 267 331 229 q 383 361 383 306 q 358 448 383 404 q 281 510 332 492 l 281 271 q 285 208 281 238 m 118 607 l 118 736 l 504 736 l 504 607 l 118 607 z "},"ḗ":{"ha":628,"x_min":43,"x_max":621,"o":"m 92 0 q 58 94 72 31 q 43 222 43 158 l 43 556 l 540 556 q 603 465 586 518 q 621 356 621 413 q 600 249 621 304 q 540 165 579 193 l 292 165 q 323 75 303 115 q 369 3 343 35 l 368 0 l 92 0 m 285 208 q 357 267 331 229 q 383 361 383 306 q 358 448 383 404 q 281 510 332 492 l 281 271 q 285 208 281 238 m 117 608 l 117 724 l 506 724 l 506 608 l 117 608 m 200 765 l 268 890 l 475 890 l 408 765 l 200 765 z "},"ḕ":{"ha":628,"x_min":43,"x_max":621,"o":"m 92 0 q 58 94 72 31 q 43 222 43 158 l 43 556 l 540 556 q 603 465 586 518 q 621 356 621 413 q 600 249 621 304 q 540 165 579 193 l 292 165 q 323 75 303 115 q 369 3 343 35 l 368 0 l 92 0 m 285 208 q 357 267 331 229 q 383 361 383 306 q 358 448 383 404 q 281 510 332 492 l 281 271 q 285 208 281 238 m 117 608 l 117 724 l 506 724 l 506 608 l 117 608 m 419 765 l 211 765 l 144 890 l 351 890 l 419 765 z "},"ę":{"ha":628,"x_min":43,"x_max":621,"o":"m 92 0 q 58 94 72 31 q 43 222 43 158 l 43 556 l 540 556 q 603 465 586 518 q 621 356 621 413 q 600 249 621 304 q 540 165 579 193 l 292 165 q 323 75 303 115 q 369 3 343 35 l 368 0 l 92 0 m 285 208 q 357 267 331 229 q 383 361 383 306 q 358 448 383 404 q 281 510 332 492 l 281 271 q 285 208 281 238 m 361 -101 l 361 -242 q 314 -246 336 -246 q 200 -209 246 -246 q 154 -114 154 -172 q 253 0 154 -28 l 368 0 q 307 -28 329 -10 q 285 -72 285 -47 q 297 -100 285 -90 q 328 -110 310 -110 q 361 -101 344 -110 z "},"ɛ":{"ha":674,"x_min":32,"x_max":631,"o":"m 543 556 q 602 488 581 533 q 624 386 624 443 q 622 350 624 368 q 617 313 621 332 l 382 313 q 390 350 388 332 q 392 386 392 368 q 333 508 392 469 q 295 461 308 493 q 282 397 282 429 q 292 336 282 367 q 328 278 303 306 q 284 224 299 254 q 269 163 269 194 q 329 50 269 97 q 374 108 361 69 q 386 189 386 146 q 383 218 386 204 q 378 246 381 232 l 622 246 q 631 182 631 213 q 610 70 631 121 q 554 0 590 19 l 122 0 q 56 69 79 24 q 32 167 32 115 q 42 237 32 203 q 75 299 53 271 q 47 356 56 326 q 39 414 39 385 q 55 490 39 453 q 101 556 71 526 l 543 556 z "},"ʃ":{"ha":314,"x_min":-64,"x_max":331,"o":"m -64 -242 q -29 -183 -53 -225 q 15 -82 -6 -142 q 35 47 35 -22 l 35 417 q 57 621 35 549 q 132 719 79 693 l 331 719 q 287 632 300 671 q 270 547 274 593 q 267 431 267 500 l 267 -37 q 259 -117 267 -76 q 240 -190 251 -157 q 217 -242 228 -224 l -64 -242 z "},"ɇ":{"ha":628,"x_min":43,"x_max":621,"o":"m 92 0 q 58 94 72 31 q 43 222 43 158 l 43 556 l 540 556 q 603 465 586 518 q 621 356 621 413 q 600 249 621 304 q 540 165 579 193 l 292 165 q 323 75 303 115 q 369 3 343 35 l 368 0 l 92 0 m 285 208 q 357 267 331 229 q 383 361 383 306 q 358 448 383 404 q 281 510 332 492 l 281 271 q 285 208 281 238 m 119 -108 l 417 725 l 497 725 l 200 -108 l 119 -108 z "},"ẽ":{"ha":628,"x_min":43,"x_max":621,"o":"m 92 0 q 58 94 72 31 q 43 222 43 158 l 43 556 l 540 556 q 603 465 586 518 q 621 356 621 413 q 600 249 621 304 q 540 165 579 193 l 292 165 q 323 75 303 115 q 369 3 343 35 l 368 0 l 92 0 m 285 208 q 357 267 331 229 q 383 361 383 306 q 358 448 383 404 q 281 510 332 492 l 281 271 q 285 208 281 238 m 125 593 l 125 739 q 221 776 165 776 q 272 771 244 776 q 331 753 300 765 q 407 736 375 736 q 497 776 453 736 l 497 629 q 411 596 467 596 q 354 603 385 596 q 292 622 324 611 q 218 638 249 638 q 125 593 161 638 z "},"ḛ":{"ha":628,"x_min":43,"x_max":621,"o":"m 92 0 q 58 94 72 31 q 43 222 43 158 l 43 556 l 540 556 q 603 465 586 518 q 621 356 621 413 q 600 249 621 304 q 540 165 579 193 l 292 165 q 323 75 303 115 q 369 3 343 35 l 368 0 l 92 0 m 285 208 q 357 267 331 229 q 383 361 383 306 q 358 448 383 404 q 281 510 332 492 l 281 271 q 285 208 281 238 m 47 -232 l 47 -86 q 143 -49 88 -49 q 194 -54 167 -49 q 253 -72 222 -60 q 329 -89 297 -89 q 419 -49 375 -89 l 419 -196 q 333 -229 389 -229 q 276 -222 307 -229 q 214 -203 246 -214 q 140 -187 171 -187 q 47 -232 83 -187 z "},"ǝ":{"ha":628,"x_min":7,"x_max":585,"o":"m 536 556 q 570 462 556 525 q 585 333 585 399 l 585 0 l 88 0 q 24 91 42 38 q 7 200 7 144 q 28 308 7 253 q 88 390 49 364 l 336 390 q 305 481 325 440 q 258 553 285 521 l 260 556 l 536 556 m 343 347 q 271 288 297 326 q 244 194 244 250 q 270 108 244 151 q 347 46 296 65 l 347 285 q 343 347 347 318 z "},"ə":{"ha":628,"x_min":7,"x_max":585,"o":"m 536 556 q 570 462 556 525 q 585 333 585 399 l 585 0 l 88 0 q 24 91 42 38 q 7 200 7 144 q 28 308 7 253 q 88 390 49 364 l 336 390 q 305 481 325 440 q 258 553 285 521 l 260 556 l 536 556 m 343 347 q 271 288 297 326 q 244 194 244 250 q 270 108 244 151 q 347 46 296 65 l 347 285 q 343 347 347 318 z "},"ʒ":{"ha":540,"x_min":42,"x_max":526,"o":"m 42 -214 l 42 -211 q 206 -97 144 -168 q 268 49 268 -26 q 149 219 268 151 l 271 389 l 50 389 l 50 556 l 500 556 l 500 389 l 385 233 q 489 145 451 200 q 526 24 526 90 q 483 -112 526 -49 q 361 -214 439 -176 l 42 -214 z "},"ǯ":{"ha":540,"x_min":26,"x_max":526,"o":"m 42 -214 l 42 -211 q 206 -97 144 -168 q 268 49 268 -26 q 149 219 268 151 l 271 389 l 50 389 l 50 556 l 500 556 l 500 389 l 385 233 q 489 145 451 200 q 526 24 526 90 q 483 -112 526 -49 q 361 -214 439 -176 l 42 -214 m 26 769 l 210 769 l 271 657 l 333 769 l 515 769 l 426 608 l 115 608 l 26 769 z "},"ƹ":{"ha":540,"x_min":14,"x_max":499,"o":"m 499 -214 l 179 -214 q 58 -112 103 -176 q 14 24 14 -49 q 51 145 14 90 q 156 233 89 200 l 40 389 l 40 556 l 490 556 l 490 389 l 269 389 l 392 219 q 272 49 272 151 q 335 -97 272 -26 q 499 -211 397 -168 l 499 -214 z "},"f":{"ha":389,"x_min":54,"x_max":375,"o":"m 54 0 l 54 593 q 157 797 54 731 l 367 797 l 369 796 q 292 583 292 722 l 292 556 l 375 556 l 375 389 l 292 389 l 292 0 l 54 0 z "},"ḟ":{"ha":389,"x_min":54,"x_max":375,"o":"m 54 0 l 54 593 q 157 797 54 731 l 367 797 l 369 796 q 292 583 292 722 l 292 556 l 375 556 l 375 389 l 292 389 l 292 0 l 54 0 m 158 850 q 136 929 136 876 q 158 1011 136 985 l 346 1011 q 364 929 364 988 q 346 850 364 876 l 158 850 z "},"g":{"ha":678,"x_min":28,"x_max":624,"o":"m 299 -242 l 297 -239 q 356 -137 332 -193 q 385 0 381 -81 l 133 0 q 73 83 96 36 q 39 178 50 131 q 28 258 28 225 q 57 439 28 361 q 133 556 86 517 l 624 556 l 624 -19 q 609 -147 624 -83 q 575 -242 594 -211 l 299 -242 m 386 47 l 386 510 q 305 421 342 479 q 268 285 268 363 q 297 151 268 210 q 386 47 325 93 z "},"ǵ":{"ha":678,"x_min":28,"x_max":624,"o":"m 299 -242 l 297 -239 q 356 -137 332 -193 q 385 0 381 -81 l 133 0 q 73 83 96 36 q 39 178 50 131 q 28 258 28 225 q 57 439 28 361 q 133 556 86 517 l 624 556 l 624 -19 q 609 -147 624 -83 q 575 -242 594 -211 l 299 -242 m 386 47 l 386 510 q 305 421 342 479 q 268 285 268 363 q 297 151 268 210 q 386 47 325 93 m 554 769 l 465 608 l 240 608 l 329 769 l 554 769 z "},"ɣ":{"ha":808,"x_min":0,"x_max":808,"o":"m 231 -242 q 159 -169 182 -212 q 136 -74 136 -125 q 228 157 136 36 l 271 214 l 0 556 l 279 556 l 404 390 l 529 556 l 808 556 l 538 214 l 581 157 q 672 -74 672 36 q 649 -169 672 -125 q 578 -242 626 -212 l 231 -242 m 358 -69 q 370 -121 358 -97 q 404 -165 382 -144 q 438 -121 426 -144 q 450 -69 450 -97 q 404 46 450 -19 q 358 -69 358 -19 z "},"ğ":{"ha":678,"x_min":28,"x_max":624,"o":"m 299 -242 l 297 -239 q 356 -137 332 -193 q 385 0 381 -81 l 133 0 q 73 83 96 36 q 39 178 50 131 q 28 258 28 225 q 57 439 28 361 q 133 556 86 517 l 624 556 l 624 -19 q 609 -147 624 -83 q 575 -242 594 -211 l 299 -242 m 386 47 l 386 510 q 305 421 342 479 q 268 285 268 363 q 297 151 268 210 q 386 47 325 93 m 172 660 l 172 811 q 376 731 269 731 q 581 811 483 731 l 581 660 q 483 608 536 625 q 376 592 431 592 q 270 608 322 592 q 172 660 218 625 z "},"ǧ":{"ha":678,"x_min":28,"x_max":624,"o":"m 299 -242 l 297 -239 q 356 -137 332 -193 q 385 0 381 -81 l 133 0 q 73 83 96 36 q 39 178 50 131 q 28 258 28 225 q 57 439 28 361 q 133 556 86 517 l 624 556 l 624 -19 q 609 -147 624 -83 q 575 -242 594 -211 l 299 -242 m 386 47 l 386 510 q 305 421 342 479 q 268 285 268 363 q 297 151 268 210 q 386 47 325 93 m 132 769 l 315 769 l 376 657 l 439 769 l 621 769 l 532 608 l 221 608 l 132 769 z "},"ĝ":{"ha":678,"x_min":28,"x_max":628,"o":"m 299 -242 l 297 -239 q 356 -137 332 -193 q 385 0 381 -81 l 133 0 q 73 83 96 36 q 39 178 50 131 q 28 258 28 225 q 57 439 28 361 q 133 556 86 517 l 624 556 l 624 -19 q 609 -147 624 -83 q 575 -242 594 -211 l 299 -242 m 386 47 l 386 510 q 305 421 342 479 q 268 285 268 363 q 297 151 268 210 q 386 47 325 93 m 125 608 l 214 769 l 539 769 l 628 608 l 439 608 l 376 721 l 315 608 l 125 608 z "},"ģ":{"ha":678,"x_min":28,"x_max":624,"o":"m 299 -242 l 297 -239 q 356 -137 332 -193 q 385 0 381 -81 l 133 0 q 73 83 96 36 q 39 178 50 131 q 28 258 28 225 q 57 439 28 361 q 133 556 86 517 l 624 556 l 624 -19 q 609 -147 624 -83 q 575 -242 594 -211 l 299 -242 m 386 47 l 386 510 q 305 421 342 479 q 268 285 268 363 q 297 151 268 210 q 386 47 325 93 m 489 851 q 459 749 469 804 q 449 607 449 694 l 264 607 q 280 758 264 699 q 324 851 296 817 l 489 851 z "},"ġ":{"ha":678,"x_min":28,"x_max":624,"o":"m 299 -242 l 297 -239 q 356 -137 332 -193 q 385 0 381 -81 l 133 0 q 73 83 96 36 q 39 178 50 131 q 28 258 28 225 q 57 439 28 361 q 133 556 86 517 l 624 556 l 624 -19 q 609 -147 624 -83 q 575 -242 594 -211 l 299 -242 m 386 47 l 386 510 q 305 421 342 479 q 268 285 268 363 q 297 151 268 210 q 386 47 325 93 m 285 608 q 263 688 263 635 q 285 769 263 743 l 472 769 q 490 688 490 746 q 472 608 490 635 l 285 608 z "},"ɠ":{"ha":678,"x_min":28,"x_max":793,"o":"m 299 -242 l 297 -239 q 356 -137 332 -193 q 385 0 381 -81 l 133 0 q 73 83 96 36 q 39 178 50 131 q 28 258 28 225 q 57 439 28 361 q 133 556 86 517 l 563 556 q 572 671 563 617 q 609 758 581 725 q 696 792 638 792 q 741 786 715 792 q 793 771 767 781 l 793 611 l 789 610 q 744 628 763 624 q 701 632 725 632 q 639 609 654 632 q 624 556 624 586 l 624 -19 q 609 -147 624 -83 q 575 -242 594 -211 l 299 -242 m 386 47 l 386 510 q 305 421 342 479 q 268 285 268 363 q 297 151 268 210 q 386 47 325 93 z "},"ʔ":{"ha":514,"x_min":36,"x_max":499,"o":"m 156 0 l 86 231 q 74 306 74 272 q 95 387 74 349 q 167 472 117 425 q 222 528 204 508 q 239 567 239 549 q 213 629 239 594 q 140 700 186 664 q 36 767 94 736 l 38 769 l 354 769 q 460 675 421 733 q 499 553 499 617 q 470 466 499 508 q 393 379 442 424 q 340 323 358 347 q 322 271 322 299 q 329 232 322 256 l 397 0 l 156 0 z "},"ʕ":{"ha":514,"x_min":15,"x_max":478,"o":"m 358 0 l 117 0 l 185 232 q 192 271 192 256 q 174 323 192 299 q 121 379 157 347 q 44 466 74 424 q 15 553 15 508 q 54 675 15 617 q 160 769 93 733 l 476 769 l 478 767 q 374 700 419 736 q 301 629 328 664 q 275 567 275 594 q 292 528 275 549 q 347 472 310 508 q 419 387 397 425 q 440 306 440 349 q 428 231 440 272 l 358 0 z "},"ɂ":{"ha":510,"x_min":36,"x_max":488,"o":"m 136 0 q 102 65 113 36 q 92 121 92 94 q 117 199 92 164 q 181 274 142 235 q 224 326 213 306 q 236 365 236 346 q 211 420 236 386 q 141 493 186 454 q 36 568 96 532 l 38 571 l 343 571 q 451 470 415 532 q 488 354 488 408 q 465 267 488 303 q 408 194 442 231 q 351 128 372 156 q 331 75 331 100 q 363 0 331 44 l 136 0 z "},"ḡ":{"ha":678,"x_min":28,"x_max":624,"o":"m 299 -242 l 297 -239 q 356 -137 332 -193 q 385 0 381 -81 l 133 0 q 73 83 96 36 q 39 178 50 131 q 28 258 28 225 q 57 439 28 361 q 133 556 86 517 l 624 556 l 624 -19 q 609 -147 624 -83 q 575 -242 594 -211 l 299 -242 m 386 47 l 386 510 q 305 421 342 479 q 268 285 268 363 q 297 151 268 210 q 386 47 325 93 m 183 607 l 183 736 l 569 736 l 569 607 l 183 607 z "},"ǥ":{"ha":678,"x_min":28,"x_max":686,"o":"m 299 -242 l 297 -239 q 356 -137 332 -193 q 385 0 381 -81 l 133 0 q 73 83 96 36 q 39 178 50 131 q 28 258 28 225 q 57 439 28 361 q 133 556 86 517 l 624 556 l 624 -19 q 609 -147 624 -83 q 575 -242 594 -211 l 299 -242 m 386 47 l 386 510 q 305 421 342 479 q 268 285 268 363 q 297 151 268 210 q 386 47 325 93 m 322 226 l 322 310 l 686 310 l 686 226 l 322 226 z "},"h":{"ha":688,"x_min":56,"x_max":644,"o":"m 56 0 l 56 797 l 293 797 l 293 556 l 564 556 q 623 438 601 513 q 644 278 644 364 l 644 0 l 407 0 l 407 263 q 377 415 407 357 q 293 508 347 474 l 293 0 l 56 0 z "},"ħ":{"ha":688,"x_min":-31,"x_max":644,"o":"m 56 0 l 56 615 l -31 615 l -31 699 l 56 699 l 56 797 l 293 797 l 293 699 l 382 699 l 382 615 l 293 615 l 293 556 l 564 556 q 623 438 601 513 q 644 278 644 364 l 644 0 l 407 0 l 407 263 q 377 415 407 357 q 293 508 347 474 l 293 0 l 56 0 z "},"ḫ":{"ha":688,"x_min":56,"x_max":644,"o":"m 56 0 l 56 797 l 293 797 l 293 556 l 564 556 q 623 438 601 513 q 644 278 644 364 l 644 0 l 407 0 l 407 263 q 377 415 407 357 q 293 508 347 474 l 293 0 l 56 0 m 347 -231 q 240 -216 293 -231 q 142 -172 188 -201 l 142 -25 q 347 -94 239 -94 q 553 -25 456 -94 l 553 -172 q 454 -216 507 -201 q 347 -231 401 -231 z "},"ȟ":{"ha":688,"x_min":-71,"x_max":644,"o":"m 56 0 l 56 797 l 293 797 l 293 556 l 564 556 q 623 438 601 513 q 644 278 644 364 l 644 0 l 407 0 l 407 263 q 377 415 407 357 q 293 508 347 474 l 293 0 l 56 0 m -71 1011 l 113 1011 l 174 899 l 236 1011 l 418 1011 l 329 850 l 18 850 l -71 1011 z "},"ḩ":{"ha":688,"x_min":56,"x_max":644,"o":"m 56 0 l 56 797 l 293 797 l 293 556 l 564 556 q 623 438 601 513 q 644 278 644 364 l 644 0 l 407 0 l 407 263 q 377 415 407 357 q 293 508 347 474 l 293 0 l 56 0 m 217 -229 q 275 -196 246 -219 q 304 -139 304 -172 q 285 -94 304 -114 q 242 -65 265 -75 l 272 0 l 411 0 l 393 -44 q 451 -78 426 -54 q 476 -143 476 -103 q 465 -188 476 -164 q 425 -232 453 -212 l 218 -232 l 217 -229 z "},"ĥ":{"ha":688,"x_min":-78,"x_max":644,"o":"m 56 0 l 56 797 l 293 797 l 293 556 l 564 556 q 623 438 601 513 q 644 278 644 364 l 644 0 l 407 0 l 407 263 q 377 415 407 357 q 293 508 347 474 l 293 0 l 56 0 m -78 850 l 11 1011 l 336 1011 l 425 850 l 236 850 l 174 963 l 113 850 l -78 850 z "},"ḧ":{"ha":688,"x_min":-56,"x_max":644,"o":"m 56 0 l 56 797 l 293 797 l 293 556 l 564 556 q 623 438 601 513 q 644 278 644 364 l 644 0 l 407 0 l 407 263 q 377 415 407 357 q 293 508 347 474 l 293 0 l 56 0 m -33 850 q -56 929 -56 876 q -33 1011 -56 985 l 132 1011 q 150 929 150 988 q 132 850 150 876 l -33 850 m 218 850 q 196 929 196 876 q 218 1011 196 985 l 383 1011 q 401 929 401 988 q 383 850 401 876 l 218 850 z "},"ḣ":{"ha":688,"x_min":56,"x_max":644,"o":"m 56 0 l 56 797 l 293 797 l 293 556 l 564 556 q 623 438 601 513 q 644 278 644 364 l 644 0 l 407 0 l 407 263 q 377 415 407 357 q 293 508 347 474 l 293 0 l 56 0 m 82 850 q 60 929 60 876 q 82 1011 60 985 l 269 1011 q 288 929 288 988 q 269 850 288 876 l 82 850 z "},"ḥ":{"ha":688,"x_min":56,"x_max":644,"o":"m 56 0 l 56 797 l 293 797 l 293 556 l 564 556 q 623 438 601 513 q 644 278 644 364 l 644 0 l 407 0 l 407 263 q 377 415 407 357 q 293 508 347 474 l 293 0 l 56 0 m 253 -219 q 231 -140 231 -193 q 253 -58 231 -85 l 446 -58 q 464 -140 464 -82 q 446 -219 464 -193 l 253 -219 z "},"ꜧ":{"ha":681,"x_min":56,"x_max":638,"o":"m 56 0 l 56 797 l 293 797 l 293 556 l 564 556 q 619 438 601 513 q 638 278 638 364 l 638 18 q 631 -74 638 -24 q 614 -169 625 -125 q 588 -242 603 -214 l 322 -242 q 384 -94 361 -176 q 407 74 407 -11 l 407 261 q 377 415 407 356 q 293 508 347 474 l 293 0 l 56 0 z "},"ɦ":{"ha":686,"x_min":54,"x_max":643,"o":"m 54 0 l 54 556 q 80 697 56 629 q 154 797 104 765 l 371 797 q 312 693 332 761 q 292 556 292 625 l 563 556 q 622 438 600 513 q 643 278 643 364 l 643 0 l 406 0 l 406 263 q 376 415 406 357 q 292 508 346 474 l 292 0 l 54 0 z "},"ɥ":{"ha":688,"x_min":43,"x_max":632,"o":"m 632 556 l 632 -242 l 394 -242 l 394 0 l 124 0 q 65 119 86 44 q 43 278 43 193 l 43 556 l 281 556 l 281 293 q 310 141 281 200 q 394 47 340 82 l 394 556 l 632 556 z "},"i":{"ha":351,"x_min":56,"x_max":296,"o":"m 56 608 l 56 719 l 296 719 l 296 608 l 56 608 m 56 0 l 56 556 l 296 556 l 296 0 l 56 0 z "},"ı":{"ha":307,"x_min":33,"x_max":274,"o":"m 33 0 l 33 556 l 274 556 l 274 0 l 33 0 z "},"í":{"ha":307,"x_min":18,"x_max":332,"o":"m 33 0 l 33 556 l 274 556 l 274 0 l 33 0 m 332 769 l 243 608 l 18 608 l 107 769 l 332 769 z "},"ǐ":{"ha":307,"x_min":-90,"x_max":399,"o":"m 33 0 l 33 556 l 274 556 l 274 0 l 33 0 m -90 769 l 93 769 l 154 657 l 217 769 l 399 769 l 310 608 l -1 608 l -90 769 z "},"î":{"ha":307,"x_min":-97,"x_max":406,"o":"m 33 0 l 33 556 l 274 556 l 274 0 l 33 0 m -97 608 l -8 769 l 317 769 l 406 608 l 217 608 l 154 721 l 93 608 l -97 608 z "},"ȉ":{"ha":307,"x_min":-137,"x_max":372,"o":"m 33 0 l 33 556 l 274 556 l 274 0 l 33 0 m 133 608 l -53 608 l -137 768 l 49 768 l 133 608 m 372 608 l 186 608 l 101 768 l 288 768 l 372 608 z "},"ï":{"ha":307,"x_min":-75,"x_max":382,"o":"m 33 0 l 33 556 l 274 556 l 274 0 l 33 0 m -53 608 q -75 688 -75 635 q -53 769 -75 743 l 113 769 q 131 688 131 746 q 113 608 131 635 l -53 608 m 199 608 q 176 688 176 635 q 199 769 176 743 l 364 769 q 382 688 382 746 q 364 608 382 635 l 199 608 z "},"ḯ":{"ha":307,"x_min":-75,"x_max":382,"o":"m 33 0 l 33 556 l 274 556 l 274 0 l 33 0 m -53 608 q -75 688 -75 635 q -53 769 -75 743 l 113 769 q 131 688 131 746 q 113 608 131 635 l -53 608 m 199 608 q 176 688 176 635 q 199 769 176 743 l 364 769 q 382 688 382 746 q 364 608 382 635 l 199 608 m 332 983 l 243 822 l 18 822 l 107 983 l 332 983 z "},"ị":{"ha":351,"x_min":56,"x_max":296,"o":"m 56 608 l 56 719 l 296 719 l 296 608 l 56 608 m 56 0 l 56 556 l 296 556 l 296 0 l 56 0 m 82 -219 q 60 -140 60 -193 q 82 -58 60 -85 l 275 -58 q 293 -140 293 -82 q 275 -219 293 -193 l 82 -219 z "},"ì":{"ha":307,"x_min":-51,"x_max":274,"o":"m 33 0 l 33 556 l 274 556 l 274 0 l 33 0 m -51 769 l 174 769 l 263 608 l 38 608 l -51 769 z "},"ỉ":{"ha":307,"x_min":-1,"x_max":293,"o":"m 33 0 l 33 556 l 274 556 l 274 0 l 33 0 m 53 608 q 93 710 93 667 q -1 771 93 767 l -1 788 q 86 796 51 793 q 146 799 121 799 q 194 798 165 799 q 242 790 222 797 q 279 764 265 783 q 293 710 293 744 q 282 653 293 679 q 253 608 271 628 l 53 608 z "},"ȋ":{"ha":307,"x_min":-50,"x_max":358,"o":"m 33 0 l 33 556 l 274 556 l 274 0 l 33 0 m -50 738 q 48 789 -4 772 q 154 806 100 806 q 261 789 208 806 q 358 738 314 772 l 358 586 q 154 667 261 667 q -50 586 47 667 l -50 738 z "},"ĳ":{"ha":682,"x_min":56,"x_max":626,"o":"m 56 608 l 56 719 l 296 719 l 296 608 l 56 608 m 56 0 l 56 556 l 296 556 l 296 0 l 56 0 m 386 608 l 386 719 l 626 719 l 626 608 l 386 608 m 292 -242 l 290 -240 q 360 -96 333 -175 q 386 47 386 -17 l 386 556 l 626 556 l 626 -37 q 619 -112 626 -72 q 602 -187 613 -153 q 578 -242 592 -222 l 292 -242 z "},"ī":{"ha":307,"x_min":-39,"x_max":347,"o":"m 33 0 l 33 556 l 274 556 l 274 0 l 33 0 m -39 607 l -39 736 l 347 736 l 347 607 l -39 607 z "},"į":{"ha":307,"x_min":33,"x_max":274,"o":"m 33 0 l 33 556 l 274 556 l 274 0 l 33 0 m 63 608 q 40 688 40 635 q 63 769 40 743 l 250 769 q 268 688 268 746 q 250 608 268 635 l 63 608 m 267 -101 l 267 -242 q 219 -246 242 -246 q 106 -209 151 -246 q 60 -114 60 -172 q 158 0 60 -28 l 274 0 q 213 -28 235 -10 q 190 -72 190 -47 q 203 -100 190 -90 q 233 -110 215 -110 q 267 -101 250 -110 z "},"ɩ":{"ha":349,"x_min":33,"x_max":363,"o":"m 82 0 q 48 94 63 31 q 33 222 33 158 l 33 556 l 274 556 l 274 271 q 299 115 274 178 q 363 0 325 51 l 82 0 z "},"ɨ":{"ha":351,"x_min":-6,"x_max":358,"o":"m 56 608 l 56 719 l 296 719 l 296 608 l 56 608 m 56 0 l 56 556 l 296 556 l 296 0 l 56 0 m -6 236 l -6 319 l 358 319 l 358 236 l -6 236 z "},"ĩ":{"ha":307,"x_min":-32,"x_max":340,"o":"m 33 0 l 33 556 l 274 556 l 274 0 l 33 0 m -32 593 l -32 739 q 64 776 8 776 q 115 771 88 776 q 174 753 143 765 q 250 736 218 736 q 340 776 296 736 l 340 629 q 254 596 310 596 q 197 603 228 596 q 135 622 167 611 q 61 638 92 638 q -32 593 4 638 z "},"ḭ":{"ha":351,"x_min":-10,"x_max":363,"o":"m 56 608 l 56 719 l 296 719 l 296 608 l 56 608 m 56 0 l 56 556 l 296 556 l 296 0 l 56 0 m -10 -232 l -10 -86 q 86 -49 31 -49 q 138 -54 110 -49 q 196 -72 165 -60 q 272 -89 240 -89 q 363 -49 318 -89 l 363 -196 q 276 -229 332 -229 q 219 -222 250 -229 q 157 -203 189 -214 q 83 -187 114 -187 q -10 -232 26 -187 z "},"j":{"ha":356,"x_min":-36,"x_max":300,"o":"m 60 608 l 60 719 l 300 719 l 300 608 l 60 608 m -35 -242 l -36 -240 q 33 -96 7 -175 q 60 47 60 -17 l 60 556 l 300 556 l 300 -37 q 293 -112 300 -72 q 276 -187 286 -153 q 251 -242 265 -222 l -35 -242 z "},"ȷ":{"ha":351,"x_min":-19,"x_max":318,"o":"m -19 -242 q 51 -97 25 -176 q 78 47 78 -17 l 78 556 l 318 556 l 318 -37 q 311 -112 318 -72 q 294 -187 304 -153 q 269 -242 283 -222 l -19 -242 z "},"ǰ":{"ha":351,"x_min":-47,"x_max":442,"o":"m -19 -242 q 51 -97 25 -176 q 78 47 78 -17 l 78 556 l 318 556 l 318 -37 q 311 -112 318 -72 q 294 -187 304 -153 q 269 -242 283 -222 l -19 -242 m -47 769 l 136 769 l 197 657 l 260 769 l 442 769 l 353 608 l 42 608 l -47 769 z "},"ĵ":{"ha":351,"x_min":-54,"x_max":449,"o":"m -19 -242 q 51 -97 25 -176 q 78 47 78 -17 l 78 556 l 318 556 l 318 -37 q 311 -112 318 -72 q 294 -187 304 -153 q 269 -242 283 -222 l -19 -242 m -54 608 l 35 769 l 360 769 l 449 608 l 260 608 l 197 721 l 136 608 l -54 608 z "},"ʝ":{"ha":621,"x_min":19,"x_max":656,"o":"m 326 601 l 326 699 l 567 699 l 567 601 l 326 601 m 153 -246 q 56 -170 93 -222 q 19 -46 19 -118 q 58 73 19 21 q 166 156 97 125 q 326 192 235 188 l 326 556 l 567 556 l 567 149 q 656 101 618 126 l 656 8 q 567 53 606 35 l 567 -42 q 404 -246 567 -212 l 153 -246 m 242 -62 q 256 -144 242 -108 q 296 -199 269 -179 q 319 -148 313 -186 q 326 -32 326 -110 l 326 82 q 261 32 281 68 q 242 -62 242 -4 z "},"ɟ":{"ha":351,"x_min":-19,"x_max":383,"o":"m -19 -242 q 51 -97 25 -176 q 78 47 78 -17 l 78 556 l 318 556 l 318 -37 q 311 -112 318 -72 q 294 -187 304 -153 q 269 -242 283 -222 l -19 -242 m 11 83 l 11 165 l 383 165 l 383 83 l 11 83 z "},"ɉ":{"ha":356,"x_min":-36,"x_max":365,"o":"m 60 608 l 60 719 l 300 719 l 300 608 l 60 608 m -35 -242 l -36 -240 q 33 -96 7 -175 q 60 47 60 -17 l 60 556 l 300 556 l 300 -37 q 293 -112 300 -72 q 276 -187 286 -153 q 251 -242 265 -222 l -35 -242 m 1 236 l 1 319 l 365 319 l 365 236 l 1 236 z "},"k":{"ha":667,"x_min":56,"x_max":646,"o":"m 56 0 l 56 797 l 293 797 l 293 360 l 389 556 l 622 556 l 525 346 q 614 256 582 317 q 646 100 646 196 l 646 0 l 408 0 l 408 121 q 376 239 408 188 q 293 308 343 290 l 293 0 l 56 0 z "},"ḱ":{"ha":667,"x_min":54,"x_max":646,"o":"m 56 0 l 56 797 l 293 797 l 293 360 l 389 556 l 622 556 l 525 346 q 614 256 582 317 q 646 100 646 196 l 646 0 l 408 0 l 408 121 q 376 239 408 188 q 293 308 343 290 l 293 0 l 56 0 m 354 999 l 278 850 l 54 850 l 131 999 l 354 999 z "},"ǩ":{"ha":667,"x_min":-71,"x_max":646,"o":"m 56 0 l 56 797 l 293 797 l 293 360 l 389 556 l 622 556 l 525 346 q 614 256 582 317 q 646 100 646 196 l 646 0 l 408 0 l 408 121 q 376 239 408 188 q 293 308 343 290 l 293 0 l 56 0 m -71 1011 l 113 1011 l 174 899 l 236 1011 l 418 1011 l 329 850 l 18 850 l -71 1011 z "},"ķ":{"ha":667,"x_min":56,"x_max":646,"o":"m 56 0 l 56 797 l 293 797 l 293 360 l 389 556 l 622 556 l 525 346 q 614 256 582 317 q 646 100 646 196 l 646 0 l 408 0 l 408 121 q 376 239 408 188 q 293 308 343 290 l 293 0 l 56 0 m 297 -303 l 297 -206 l 251 -206 l 251 -58 l 431 -58 q 449 -85 442 -68 q 456 -133 456 -103 q 440 -222 456 -178 q 397 -303 425 -265 l 297 -303 z "},"ḳ":{"ha":667,"x_min":56,"x_max":646,"o":"m 56 0 l 56 797 l 293 797 l 293 360 l 389 556 l 622 556 l 525 346 q 614 256 582 317 q 646 100 646 196 l 646 0 l 408 0 l 408 121 q 376 239 408 188 q 293 308 343 290 l 293 0 l 56 0 m 260 -219 q 238 -140 238 -193 q 260 -58 238 -85 l 453 -58 q 471 -140 471 -82 q 453 -219 471 -193 l 260 -219 z "},"ĸ":{"ha":665,"x_min":54,"x_max":644,"o":"m 54 0 l 54 556 l 292 556 l 292 360 l 388 556 l 621 556 l 524 346 q 613 256 581 317 q 644 100 644 196 l 644 0 l 407 0 l 407 121 q 374 239 407 188 q 292 308 342 290 l 292 0 l 54 0 z "},"ƙ":{"ha":660,"x_min":54,"x_max":639,"o":"m 54 0 l 54 556 q 81 697 56 629 q 157 797 107 765 l 374 797 q 315 693 335 761 q 294 556 294 625 l 294 403 l 378 556 l 618 556 l 529 389 q 608 310 578 364 q 639 194 639 256 l 639 0 l 399 0 l 399 194 q 371 287 399 242 q 294 367 343 332 l 294 0 l 54 0 z "},"ḵ":{"ha":667,"x_min":56,"x_max":646,"o":"m 56 0 l 56 797 l 293 797 l 293 360 l 389 556 l 622 556 l 525 346 q 614 256 582 317 q 646 100 646 196 l 646 0 l 408 0 l 408 121 q 376 239 408 188 q 293 308 343 290 l 293 0 l 56 0 m 161 -187 l 161 -58 l 547 -58 l 547 -187 l 161 -187 z "},"ꝁ":{"ha":667,"x_min":-8,"x_max":646,"o":"m 56 0 l 56 797 l 293 797 l 293 360 l 389 556 l 622 556 l 525 346 q 614 256 582 317 q 646 100 646 196 l 646 0 l 408 0 l 408 121 q 376 239 408 188 q 293 308 343 290 l 293 0 l 56 0 m -8 635 l -8 718 l 356 718 l 356 635 l -8 635 z "},"l":{"ha":354,"x_min":46,"x_max":368,"o":"m 94 0 q 60 94 75 31 q 46 222 46 158 l 46 797 l 281 797 l 281 271 q 306 116 281 179 q 368 3 331 53 l 367 0 l 94 0 z "},"ĺ":{"ha":354,"x_min":28,"x_max":368,"o":"m 94 0 q 60 94 75 31 q 46 222 46 158 l 46 797 l 281 797 l 281 271 q 306 116 281 179 q 368 3 331 53 l 367 0 l 94 0 m 342 1011 l 253 850 l 28 850 l 117 1011 l 342 1011 z "},"ƛ":{"ha":715,"x_min":0,"x_max":743,"o":"m 0 -3 l 57 278 q 87 400 71 343 q 119 499 103 457 q 150 556 136 540 l 303 556 q 274 626 292 592 l 182 597 l 160 660 l 239 685 q 192 743 218 715 q 135 794 165 771 l 136 797 l 411 797 q 449 753 429 783 l 497 769 l 518 707 l 479 694 q 524 576 504 640 q 556 464 544 513 l 568 411 q 613 257 586 335 q 672 113 639 179 q 743 3 706 47 l 738 0 l 472 0 q 415 127 444 49 q 357 329 385 206 l 339 410 q 294 263 315 357 l 238 -3 l 0 -3 z "},"ƚ":{"ha":354,"x_min":-22,"x_max":368,"o":"m 94 0 q 60 94 75 31 q 46 222 46 158 l 46 797 l 281 797 l 281 271 q 306 116 281 179 q 368 3 331 53 l 367 0 l 94 0 m -22 315 l -22 399 l 342 399 l 342 315 l -22 315 z "},"ɬ":{"ha":444,"x_min":0,"x_max":458,"o":"m 185 0 q 151 94 165 31 q 136 222 136 158 l 136 263 q 28 328 57 278 q 0 446 0 379 q 31 535 0 494 q 113 575 61 575 q 136 569 125 575 l 136 797 l 371 797 l 371 383 l 458 383 l 458 256 l 371 256 q 398 110 374 169 q 458 3 422 50 l 457 0 l 185 0 m 88 458 q 101 415 88 431 q 136 393 114 400 l 136 489 q 117 513 131 513 q 98 501 108 513 q 88 458 88 489 z "},"ľ":{"ha":354,"x_min":46,"x_max":550,"o":"m 94 0 q 60 94 75 31 q 46 222 46 158 l 46 797 l 281 797 l 281 271 q 306 116 281 179 q 368 3 331 53 l 367 0 l 94 0 m 335 581 l 372 797 l 550 797 l 513 581 l 335 581 z "},"ḽ":{"ha":354,"x_min":-36,"x_max":453,"o":"m 94 0 q 60 94 75 31 q 46 222 46 158 l 46 797 l 281 797 l 281 271 q 306 116 281 179 q 368 3 331 53 l 367 0 l 94 0 m -36 -199 l 53 -58 l 364 -58 l 453 -199 l 271 -199 l 208 -100 l 147 -199 l -36 -199 z "},"ļ":{"ha":354,"x_min":46,"x_max":368,"o":"m 94 0 q 60 94 75 31 q 46 222 46 158 l 46 797 l 281 797 l 281 271 q 306 116 281 179 q 368 3 331 53 l 367 0 l 94 0 m 151 -303 l 151 -206 l 106 -206 l 106 -58 l 285 -58 q 303 -85 296 -68 q 310 -133 310 -103 q 294 -222 310 -178 q 251 -303 279 -265 l 151 -303 z "},"ḷ":{"ha":354,"x_min":46,"x_max":368,"o":"m 94 0 q 60 94 75 31 q 46 222 46 158 l 46 797 l 281 797 l 281 271 q 306 116 281 179 q 368 3 331 53 l 367 0 l 94 0 m 114 -219 q 92 -140 92 -193 q 114 -58 92 -85 l 307 -58 q 325 -140 325 -82 q 307 -219 325 -193 l 114 -219 z "},"ḹ":{"ha":354,"x_min":-40,"x_max":368,"o":"m 94 0 q 60 94 75 31 q 46 222 46 158 l 46 797 l 281 797 l 281 271 q 306 116 281 179 q 368 3 331 53 l 367 0 l 94 0 m 114 -219 q 92 -140 92 -193 q 114 -58 92 -85 l 307 -58 q 325 -140 325 -82 q 307 -219 325 -193 l 114 -219 m -40 849 l -40 976 l 367 976 l 367 849 l -40 849 z "},"ⱡ":{"ha":374,"x_min":-3,"x_max":385,"o":"m 111 0 q 77 94 92 31 q 63 222 63 158 l 63 797 l 297 797 l 297 271 q 322 116 297 179 q 385 3 347 53 l 383 0 l 111 0 m -3 561 l 354 561 l 354 478 l -3 478 l -3 561 m -3 360 l 354 360 l 354 276 l -3 276 l -3 360 z "},"ḻ":{"ha":354,"x_min":15,"x_max":401,"o":"m 94 0 q 60 94 75 31 q 46 222 46 158 l 46 797 l 281 797 l 281 271 q 306 116 281 179 q 368 3 331 53 l 367 0 l 94 0 m 15 -187 l 15 -58 l 401 -58 l 401 -187 l 15 -187 z "},"ɫ":{"ha":354,"x_min":-49,"x_max":371,"o":"m 94 0 q 60 94 75 31 q 46 222 46 158 l 46 797 l 281 797 l 281 271 q 306 116 281 179 q 368 3 331 53 l 367 0 l 94 0 m -49 390 l -49 494 q 60 532 -4 532 q 118 526 88 532 q 183 508 149 521 q 269 492 233 492 q 371 532 321 492 l 371 426 q 274 393 336 393 q 210 401 243 393 q 140 419 176 408 q 57 435 90 435 q -49 390 -7 435 z "},"ł":{"ha":354,"x_min":-25,"x_max":368,"o":"m 94 0 q 60 94 75 31 q 46 222 46 158 l 46 797 l 281 797 l 281 271 q 306 116 281 179 q 368 3 331 53 l 367 0 l 94 0 m -25 349 l -25 438 l 347 647 l 347 558 l -25 349 z "},"m":{"ha":1031,"x_min":56,"x_max":989,"o":"m 56 0 l 56 556 l 889 556 q 940 490 918 532 q 976 399 963 449 q 989 300 989 350 l 989 0 l 751 0 l 751 263 q 715 413 751 353 q 601 507 678 472 l 599 507 q 629 404 621 450 q 638 290 638 358 l 638 0 l 407 0 l 407 257 q 382 403 407 343 q 296 506 357 463 l 293 506 l 293 0 l 56 0 z "},"ḿ":{"ha":1031,"x_min":56,"x_max":989,"o":"m 56 0 l 56 556 l 889 556 q 940 490 918 532 q 976 399 963 449 q 989 300 989 350 l 989 0 l 751 0 l 751 263 q 715 413 751 353 q 601 507 678 472 l 599 507 q 629 404 621 450 q 638 290 638 358 l 638 0 l 407 0 l 407 257 q 382 403 407 343 q 296 506 357 463 l 293 506 l 293 0 l 56 0 m 672 769 l 583 608 l 358 608 l 447 769 l 672 769 z "},"ṁ":{"ha":1031,"x_min":56,"x_max":989,"o":"m 56 0 l 56 556 l 889 556 q 940 490 918 532 q 976 399 963 449 q 989 300 989 350 l 989 0 l 751 0 l 751 263 q 715 413 751 353 q 601 507 678 472 l 599 507 q 629 404 621 450 q 638 290 638 358 l 638 0 l 407 0 l 407 257 q 382 403 407 343 q 296 506 357 463 l 293 506 l 293 0 l 56 0 m 403 608 q 381 688 381 635 q 403 769 381 743 l 590 769 q 608 688 608 746 q 590 608 608 635 l 403 608 z "},"ṃ":{"ha":1031,"x_min":56,"x_max":989,"o":"m 56 0 l 56 556 l 889 556 q 940 490 918 532 q 976 399 963 449 q 989 300 989 350 l 989 0 l 751 0 l 751 263 q 715 413 751 353 q 601 507 678 472 l 599 507 q 629 404 621 450 q 638 290 638 358 l 638 0 l 407 0 l 407 257 q 382 403 407 343 q 296 506 357 463 l 293 506 l 293 0 l 56 0 m 426 -219 q 404 -140 404 -193 q 426 -58 404 -85 l 619 -58 q 638 -140 638 -82 q 619 -219 638 -193 l 426 -219 z "},"ɯ":{"ha":1031,"x_min":42,"x_max":975,"o":"m 975 556 l 975 0 l 142 0 q 91 65 114 24 q 55 157 68 107 q 42 256 42 207 l 42 556 l 279 556 l 279 293 q 316 144 279 203 q 429 49 353 85 l 432 49 q 401 151 410 106 q 393 265 393 197 l 393 556 l 624 556 l 624 299 q 649 153 624 214 q 735 50 675 93 l 738 50 l 738 556 l 975 556 z "},"n":{"ha":686,"x_min":54,"x_max":643,"o":"m 54 0 l 54 556 l 563 556 q 622 438 600 513 q 643 278 643 364 l 643 0 l 406 0 l 406 263 q 376 415 406 357 q 292 508 346 474 l 292 0 l 54 0 z "},"ń":{"ha":686,"x_min":54,"x_max":643,"o":"m 54 0 l 54 556 l 563 556 q 622 438 600 513 q 643 278 643 364 l 643 0 l 406 0 l 406 263 q 376 415 406 357 q 292 508 346 474 l 292 0 l 54 0 m 492 768 l 403 607 l 178 607 l 267 768 l 492 768 z "},"ň":{"ha":686,"x_min":54,"x_max":643,"o":"m 54 0 l 54 556 l 563 556 q 622 438 600 513 q 643 278 643 364 l 643 0 l 406 0 l 406 263 q 376 415 406 357 q 292 508 346 474 l 292 0 l 54 0 m 69 768 l 253 768 l 314 656 l 376 768 l 558 768 l 469 607 l 158 607 l 69 768 z "},"ṋ":{"ha":686,"x_min":54,"x_max":643,"o":"m 54 0 l 54 556 l 563 556 q 622 438 600 513 q 643 278 643 364 l 643 0 l 406 0 l 406 263 q 376 415 406 357 q 292 508 346 474 l 292 0 l 54 0 m 101 -199 l 190 -58 l 501 -58 l 590 -199 l 408 -199 l 346 -100 l 285 -199 l 101 -199 z "},"ņ":{"ha":686,"x_min":54,"x_max":643,"o":"m 54 0 l 54 556 l 563 556 q 622 438 600 513 q 643 278 643 364 l 643 0 l 406 0 l 406 263 q 376 415 406 357 q 292 508 346 474 l 292 0 l 54 0 m 289 -303 l 289 -206 l 243 -206 l 243 -58 l 422 -58 q 440 -85 433 -68 q 447 -133 447 -103 q 432 -222 447 -178 q 389 -303 417 -265 l 289 -303 z "},"ṅ":{"ha":686,"x_min":54,"x_max":643,"o":"m 54 0 l 54 556 l 563 556 q 622 438 600 513 q 643 278 643 364 l 643 0 l 406 0 l 406 263 q 376 415 406 357 q 292 508 346 474 l 292 0 l 54 0 m 222 607 q 200 686 200 633 q 222 768 200 742 l 410 768 q 428 686 428 744 q 410 607 428 633 l 222 607 z "}}}
